<?xml version="1.0" encoding="iso-8859-1"?>
<!-- Uploaded to: SVG Repo, www.svgrepo.com, Generator: SVG Repo Mixer Tools -->
<svg version="1.1" id="Layer_1" xmlns="http://www.w3.org/2000/svg" xmlns:xlink="http://www.w3.org/1999/xlink" 
	 viewBox="0 0 512.001 512.001" xml:space="preserve">
<path d="M57.877,473.877c-3.86,0-7.646-1.57-10.376-4.3c-0.675-0.677-1.291-1.425-1.82-2.232c-0.528-0.793-0.983-1.644-1.35-2.537
	c-0.367-0.882-0.66-1.805-0.837-2.744c-0.191-0.941-0.294-1.909-0.294-2.862c0-0.954,0.103-1.924,0.294-2.862
	c0.176-0.939,0.47-1.864,0.837-2.759c0.367-0.881,0.822-1.732,1.35-2.524c0.528-0.809,1.145-1.557,1.82-2.232
	s1.424-1.291,2.231-1.834c0.792-0.527,1.644-0.983,2.524-1.35c0.895-0.367,1.82-0.644,2.759-0.837c1.893-0.382,3.83-0.382,5.724,0
	c0.939,0.192,1.864,0.47,2.744,0.837c0.895,0.367,1.746,0.823,2.539,1.35c0.807,0.543,1.556,1.159,2.231,1.834
	s1.291,1.424,1.82,2.232c0.528,0.793,0.983,1.644,1.35,2.524c0.367,0.895,0.66,1.82,0.851,2.759
	c0.191,0.939,0.279,1.908,0.279,2.862c0,0.952-0.088,1.923-0.279,2.862c-0.191,0.939-0.484,1.864-0.851,2.744
	c-0.367,0.894-0.822,1.745-1.35,2.537c-0.528,0.807-1.145,1.556-1.82,2.232c-0.675,0.675-1.424,1.292-2.231,1.818
	c-0.792,0.528-1.644,0.983-2.539,1.35c-0.881,0.367-1.805,0.646-2.744,0.837C59.8,473.775,58.83,473.877,57.877,473.877z"/>
<path d="M461.462,473.877c-3.86,0-7.646-1.57-10.376-4.3c-0.675-0.677-1.292-1.425-1.82-2.232c-0.528-0.793-0.983-1.644-1.35-2.537
	c-0.367-0.882-0.66-1.805-0.837-2.744c-0.191-0.941-0.294-1.909-0.294-2.862c0-0.954,0.103-1.924,0.294-2.862
	c0.176-0.939,0.47-1.864,0.837-2.759c0.367-0.881,0.822-1.732,1.35-2.524c0.528-0.809,1.145-1.557,1.82-2.232
	c3.405-3.419,8.483-4.975,13.252-4.021c0.925,0.192,1.849,0.47,2.744,0.837c0.881,0.367,1.732,0.823,2.524,1.35
	c0.807,0.543,1.556,1.159,2.231,1.835c0.675,0.675,1.291,1.424,1.82,2.232c0.528,0.793,0.983,1.644,1.35,2.524
	c0.367,0.895,0.66,1.82,0.837,2.759c0.191,0.939,0.294,1.908,0.294,2.862c0,0.952-0.103,1.923-0.294,2.862
	c-0.176,0.939-0.47,1.864-0.837,2.744c-0.367,0.894-0.822,1.745-1.35,2.537c-0.528,0.807-1.145,1.556-1.82,2.232
	C469.107,472.307,465.321,473.877,461.462,473.877z"/>
<rect x="14.676" y="52.8" style="fill:#D8766A;" width="482.644" height="73.996"/>
<rect x="308.589" y="126.8" style="fill:#F4D15A;" width="153.113" height="78.761"/>
<rect x="308.589" y="205.55" style="fill:#E4AAA9;" width="153.113" height="78.761"/>
<rect x="308.589" y="284.316" style="fill:#F4D15A;" width="153.113" height="78.761"/>
<path d="M497.324,38.124H14.676C6.57,38.124,0,44.696,0,52.8v73.996c0,8.104,6.57,14.676,14.676,14.676h28.525v273.701
	c0,8.104,6.57,14.676,14.676,14.676s14.676-6.572,14.676-14.676V219.253h221.36v65.062v78.761c0,8.104,6.57,14.676,14.676,14.676
	h138.198v37.42c0,8.104,6.57,14.676,14.676,14.676c8.105,0,14.676-6.572,14.676-14.676v-49.491c0.153-0.847,0.245-1.714,0.245-2.605
	v-78.761v-78.761v-64.083h20.942c8.105,0,14.676-6.572,14.676-14.676V52.8C512,44.696,505.43,38.124,497.324,38.124z
	 M72.553,141.471h221.36v48.43H72.553V141.471z M323.264,220.231h123.522v49.409H323.264V220.231z M446.787,190.879H323.264v-49.408
	h123.522V190.879z M323.264,348.4v-49.409h123.522V348.4H323.264z M482.648,112.12h-174.06H29.352V67.476h453.297V112.12z"/>
</svg>