<?xml version="1.0" standalone="no"?>
<!DOCTYPE svg PUBLIC "-//W3C//DTD SVG 20010904//EN"
 "http://www.w3.org/TR/2001/REC-SVG-20010904/DTD/svg10.dtd">
<svg version="1.0" xmlns="http://www.w3.org/2000/svg"
 width="500.000000pt" height="500.000000pt" viewBox="0 0 500.000000 500.000000"
 preserveAspectRatio="xMidYMid meet">

<g transform="translate(0.000000,500.000000) scale(0.100000,-0.100000)"
fill="#000000" stroke="none">
<path d="M3783 4790 c-23 -5 -51 -13 -61 -19 -13 -7 -31 -7 -53 -1 -45 13
-175 13 -224 -1 -23 -7 -53 -26 -73 -48 -42 -46 -47 -51 -119 -120 -68 -64
-99 -133 -88 -194 5 -23 1 -45 -10 -66 -42 -81 -40 -224 5 -311 17 -34 18 -39
3 -85 -14 -40 -15 -57 -5 -104 14 -64 34 -96 83 -129 25 -17 37 -35 45 -67 17
-66 52 -114 108 -149 58 -37 127 -66 156 -66 11 0 20 -3 20 -6 0 -3 -18 -36
-40 -72 -58 -99 -73 -146 -72 -237 0 -66 6 -98 37 -185 39 -113 47 -141 130
-477 30 -123 68 -265 85 -316 16 -52 30 -110 30 -130 0 -25 6 -39 19 -46 17
-10 18 -14 5 -68 -8 -32 -16 -92 -20 -133 -6 -82 10 -146 47 -186 15 -16 25
-54 39 -149 11 -71 40 -213 65 -316 27 -115 54 -264 70 -390 l25 -204 -20 -27
c-11 -15 -20 -34 -20 -42 0 -18 -134 -64 -211 -73 -103 -11 -159 -58 -159
-133 0 -25 6 -54 13 -64 15 -21 78 -35 155 -36 32 0 63 -7 78 -17 23 -14 54
-15 297 -9 150 4 312 10 361 15 83 7 91 10 118 40 30 34 37 87 19 162 -7 30
-5 40 9 52 22 19 32 139 35 437 3 218 4 231 40 395 23 108 49 198 71 247 75
167 101 265 114 435 10 119 12 129 35 146 31 23 34 73 6 109 -13 16 -23 54
-31 123 -19 163 -36 232 -141 556 -150 465 -202 578 -309 668 -52 44 -152 101
-176 101 -10 0 -7 11 12 40 15 22 34 72 43 110 14 59 21 72 51 92 19 13 45 43
58 68 31 60 24 134 -18 203 -24 39 -29 55 -24 86 3 20 1 79 -5 129 -19 155
-65 247 -141 281 -20 9 -53 35 -75 59 -21 24 -59 54 -85 67 -94 48 -227 71
-307 55z m176 -35 c87 -21 156 -60 205 -117 23 -27 49 -48 58 -48 23 0 75 -46
95 -84 28 -53 43 -127 50 -235 5 -87 4 -103 -8 -99 -10 3 -16 31 -21 94 -12
158 -73 294 -132 294 -13 0 -27 11 -37 28 -38 67 -215 152 -315 152 -55 0
-109 -19 -116 -41 -3 -9 -19 -7 -58 6 -33 12 -85 19 -130 19 -88 1 -123 -16
-145 -69 -9 -21 -24 -35 -40 -39 -15 -4 -46 -26 -70 -50 -50 -50 -70 -108 -61
-172 4 -32 1 -45 -11 -56 -46 -37 -57 -170 -23 -268 19 -56 19 -67 1 -56 -21
13 -45 112 -45 187 0 63 5 84 27 123 22 40 24 51 15 77 -8 22 -7 41 1 69 15
49 79 131 125 159 20 12 41 34 48 48 31 63 127 90 252 73 38 -6 72 -12 74 -15
3 -2 14 1 26 7 55 30 142 35 235 13z m-399 -410 c44 1 80 7 111 22 40 18 53
19 105 11 62 -10 178 -4 234 12 28 8 40 6 75 -15 23 -13 58 -42 79 -65 46 -51
106 -144 106 -164 0 -13 9 -14 43 -10 40 6 45 4 74 -29 53 -61 56 -158 6 -217
-30 -36 -55 -39 -52 -7 4 40 -1 67 -11 67 -5 0 -10 -21 -10 -47 0 -27 -5 -77
-10 -112 -33 -203 -204 -316 -515 -341 -188 -15 -322 15 -408 90 -57 50 -76
99 -87 219 -5 53 -18 142 -30 199 -19 91 -20 112 -11 192 14 113 18 124 61
152 19 13 46 40 58 60 l24 36 46 -27 c38 -21 60 -26 112 -26z m-306 -447 c17
-89 21 -168 8 -168 -36 0 -88 118 -79 177 6 33 31 73 47 73 4 0 15 -37 24 -82z
m1083 -357 c65 -32 166 -133 201 -199 46 -85 101 -232 185 -494 110 -340 123
-389 142 -543 13 -101 23 -147 36 -164 34 -44 25 -65 -38 -94 -170 -75 -603
-169 -603 -130 0 7 9 13 19 13 26 0 34 15 42 75 4 28 41 149 83 270 106 312
119 380 118 640 0 192 -10 281 -28 262 -4 -3 -7 -124 -8 -269 -2 -261 -2 -264
-33 -378 -17 -63 -61 -200 -97 -305 -36 -104 -66 -207 -66 -227 0 -49 -12 -49
-128 -4 -48 18 -111 39 -139 46 -29 6 -53 17 -53 22 0 6 11 23 24 39 27 32 33
54 106 435 32 166 50 287 50 334 0 83 -19 251 -31 264 -20 23 -25 -10 -13
-101 21 -156 17 -207 -36 -486 -72 -377 -79 -404 -106 -436 -13 -16 -24 -38
-24 -48 0 -11 -9 -28 -19 -37 -18 -17 -19 -16 -26 3 -3 11 -1 46 5 78 10 57 7
70 -79 413 -49 195 -99 380 -111 410 -12 30 -27 78 -34 105 -8 30 -19 50 -27
50 -20 0 -13 -46 22 -135 16 -41 67 -228 114 -414 85 -335 86 -341 81 -440
l-4 -101 -28 -6 c-59 -13 -64 -11 -64 24 0 17 -15 79 -34 137 -18 58 -59 213
-90 345 -32 132 -80 308 -107 392 -54 166 -63 260 -35 341 16 44 87 172 96
172 3 0 19 -48 35 -106 42 -150 43 -150 94 -65 l42 71 42 -82 c23 -45 47 -81
52 -80 10 1 14 16 36 126 l11 58 57 -56 c31 -31 59 -56 62 -56 13 0 81 113
143 238 74 147 66 143 163 93z m-187 -92 c-57 -114 -113 -210 -121 -207 -3 2
-32 27 -64 56 l-58 54 58 53 c36 34 78 61 114 75 31 11 67 29 81 40 14 10 26
17 28 15 2 -1 -15 -41 -38 -86z m-180 -13 c0 -2 -22 -21 -50 -42 -37 -28 -47
-41 -39 -50 11 -13 -9 -164 -21 -164 -15 0 -72 138 -66 158 5 16 2 22 -16 27
-41 13 -88 37 -88 46 0 5 30 9 68 10 37 0 90 4 117 9 61 9 95 11 95 6z m-304
-30 c4 -11 63 -47 102 -62 1 -1 -16 -34 -39 -73 -23 -40 -43 -71 -44 -69 -2 2
-16 46 -30 98 -15 52 -30 101 -32 108 -3 7 3 12 16 12 12 0 24 -6 27 -14z
m371 -1400 c29 -8 84 -26 123 -42 l70 -27 -6 -56 c-11 -111 -58 -223 -128
-303 -22 -26 -47 -48 -53 -48 -17 0 -16 7 6 38 24 35 61 108 61 122 0 25 -17
5 -44 -52 -34 -72 -86 -135 -96 -117 -5 6 5 50 21 97 33 98 32 92 20 92 -5 0
-22 -37 -37 -82 -15 -46 -32 -91 -39 -100 -11 -17 -13 -16 -23 6 -8 19 -5 43
18 122 16 54 27 101 24 103 -9 10 -23 -23 -44 -104 -28 -108 -29 -110 -40 -99
-5 5 -3 47 6 104 16 112 17 120 5 120 -5 0 -11 -22 -15 -50 -7 -54 -21 -73
-28 -37 -15 76 86 327 130 327 9 0 41 -7 69 -14z m827 -68 c-11 -171 -44 -303
-110 -445 -33 -70 -64 -183 -99 -363 -12 -61 -18 -156 -21 -340 -2 -140 -7
-284 -11 -320 l-8 -65 -120 -1 c-119 -2 -261 8 -271 18 -2 3 3 24 12 48 14 36
16 63 10 183 -12 252 -16 276 -58 397 -59 171 -64 193 -77 343 l-12 137 35 41
c51 60 116 209 116 265 0 13 3 25 8 27 4 3 59 12 122 22 127 18 348 72 425
104 28 11 53 20 57 20 3 1 4 -32 2 -71z m-989 15 c-4 -10 -20 -53 -35 -95 -23
-65 -29 -74 -35 -55 -7 21 -8 20 -12 -8 -6 -38 16 -132 34 -146 17 -15 18 -72
1 -67 -7 3 -23 22 -35 44 -26 44 -30 113 -12 210 16 95 28 122 52 127 45 9 49
8 42 -10z m25 -458 c14 -17 95 -21 105 -5 3 6 19 10 34 10 l28 0 7 -92 c11
-148 23 -208 65 -319 44 -119 58 -179 65 -299 3 -47 8 -125 12 -175 5 -76 3
-98 -14 -140 -16 -40 -24 -50 -43 -51 -39 -1 -169 13 -175 19 -3 3 4 19 17 36
18 25 21 38 16 78 -3 26 -15 121 -27 211 -11 90 -38 237 -60 327 -37 153 -60
272 -74 373 -5 37 -4 42 13 42 10 0 24 -7 31 -15z m173 -1132 c-29 -18 -53
-23 -102 -23 -74 0 -140 -26 -160 -64 l-13 -24 -67 21 c-36 11 -72 22 -80 24
-30 8 31 35 101 45 39 5 105 22 146 36 68 25 80 27 143 18 l70 -10 -38 -23z
m310 7 c87 -6 167 -8 177 -5 15 5 20 -3 29 -45 21 -96 49 -87 -281 -92 -293
-5 -293 -5 -370 21 -96 31 -89 44 30 52 81 5 92 8 152 47 42 28 72 41 85 37
11 -3 91 -10 178 -15z m-653 -119 c51 -16 55 -19 58 -50 l3 -34 -73 6 c-40 3
-80 8 -90 12 -19 8 -31 48 -23 76 7 22 21 21 125 -10z m196 -21 l89 -30 295 5
295 6 -27 -25 c-34 -31 -60 -34 -388 -44 -351 -12 -370 -9 -370 53 0 29 8 65
14 65 1 0 42 -14 92 -30z"/>
<path d="M3780 4188 c-20 -22 -27 -48 -12 -48 5 0 14 11 20 25 17 36 56 33 93
-6 33 -36 49 -33 25 4 -32 48 -93 60 -126 25z"/>
<path d="M3406 4144 c-9 -8 -19 -27 -22 -42 -3 -15 -7 -32 -9 -39 -2 -7 0 -15
4 -18 5 -2 14 16 20 41 13 50 33 64 60 40 10 -9 24 -16 32 -16 18 1 -37 50
-56 50 -7 0 -21 -7 -29 -16z"/>
<path d="M3844 3876 c-7 -29 11 -66 31 -66 20 0 29 43 15 69 -15 28 -38 27
-46 -3z"/>
<path d="M3597 3798 c-8 -46 -12 -86 -8 -89 11 -12 91 -21 91 -11 0 6 -17 13
-39 17 -38 6 -39 6 -31 43 14 65 18 122 10 122 -4 0 -14 -37 -23 -82z"/>
<path d="M3454 3846 c-7 -29 11 -66 31 -66 20 0 29 43 15 69 -15 28 -38 27
-46 -3z"/>
<path d="M3997 3704 c-3 -4 0 -16 8 -28 8 -11 15 -40 15 -63 0 -25 5 -43 11
-43 17 0 6 108 -12 126 -9 8 -18 12 -22 8z"/>
<path d="M3800 3618 c-33 -12 -82 -21 -122 -22 -43 -1 -68 -5 -68 -12 0 -6 24
-28 53 -48 87 -60 157 -46 193 40 15 37 18 64 7 63 -5 0 -33 -10 -63 -21z m43
-28 c-10 -37 -50 -70 -85 -70 -31 0 -106 36 -96 46 3 2 24 7 48 10 24 4 62 12
84 19 55 18 55 18 49 -5z"/>
<path d="M1015 4555 c-27 -8 -67 -14 -87 -15 -20 0 -72 -11 -115 -25 -215 -68
-350 -217 -415 -456 -18 -68 -23 -110 -23 -224 0 -153 12 -210 65 -315 50 -99
165 -190 239 -190 48 0 44 -15 -10 -35 -101 -36 -218 -178 -288 -352 -16 -38
-67 -224 -114 -414 -68 -273 -88 -369 -96 -463 -7 -95 -13 -124 -30 -147 -26
-35 -26 -57 0 -85 15 -16 24 -48 34 -122 19 -134 37 -209 75 -312 58 -156 70
-270 70 -641 0 -235 -3 -336 -12 -355 -10 -22 -10 -28 6 -40 16 -11 17 -17 7
-45 -15 -45 -14 -134 2 -148 36 -29 412 -42 577 -19 41 5 127 12 190 15 63 2
120 9 127 15 41 34 -18 99 -116 128 -58 17 -76 28 -120 74 -38 41 -51 62 -51
85 0 84 40 446 92 824 12 87 12 89 52 115 32 21 51 47 86 116 42 84 45 93 48
190 2 55 9 107 16 115 6 8 12 54 12 105 2 85 8 113 104 426 113 371 142 496
142 615 1 98 -17 150 -77 227 l-45 58 28 5 c15 3 72 20 126 38 73 24 110 42
143 70 113 100 166 282 143 494 -25 233 -99 406 -208 486 -18 13 -46 43 -62
65 -38 53 -96 90 -190 119 -96 31 -252 40 -325 18z m319 -44 c85 -30 143 -67
175 -111 15 -21 53 -62 85 -91 169 -154 237 -566 131 -787 -32 -68 -88 -142
-107 -142 -5 0 9 21 31 46 126 144 132 463 12 718 -48 104 -189 265 -266 304
-99 50 -260 74 -345 52 -25 -6 -76 -16 -114 -21 -237 -33 -397 -170 -473 -404
-34 -108 -43 -288 -19 -397 20 -90 65 -187 114 -247 l37 -45 -34 24 c-48 36
-108 132 -134 214 -32 103 -32 326 1 439 46 162 130 284 245 358 68 44 195 89
252 89 22 0 60 7 85 15 65 22 245 14 324 -14z m105 -355 c35 -19 101 -91 134
-147 53 -92 69 -162 70 -319 2 -130 -1 -152 -22 -215 -29 -85 -66 -124 -141
-152 -127 -48 -390 -69 -530 -43 -102 19 -216 58 -250 87 -34 28 -73 99 -85
151 -4 20 -23 48 -47 71 -37 34 -42 44 -46 93 -8 100 37 175 89 148 18 -10 24
-9 31 4 17 31 143 86 196 86 27 0 73 7 103 16 30 9 78 16 107 15 115 -4 252
66 320 165 20 29 38 53 40 54 2 0 15 -6 31 -14z m-554 -891 c44 -9 87 -23 95
-30 76 -65 198 -66 290 -4 l45 30 38 -43 c136 -155 132 -281 -25 -797 -122
-401 -130 -435 -122 -508 l6 -63 -30 0 c-17 0 -54 5 -82 11 -40 9 -50 14 -46
27 3 10 33 136 66 282 64 283 83 347 166 564 50 129 56 156 35 156 -9 0 -77
-172 -134 -335 -30 -88 -155 -609 -173 -723 -8 -50 -19 -60 -34 -33 -7 13 -7
22 0 26 17 10 11 48 -15 97 -42 78 -86 252 -89 348 -1 47 -8 96 -16 110 -10
19 -12 66 -6 220 3 107 7 204 9 215 1 12 -4 20 -13 20 -21 0 -43 -300 -29
-400 5 -38 13 -113 19 -165 10 -111 60 -297 96 -357 30 -52 30 -71 2 -77 -13
-3 -49 -10 -80 -16 -56 -11 -85 -28 -135 -78 -31 -31 -27 -37 -89 129 -68 182
-91 286 -110 492 -15 164 -15 332 -1 532 1 17 -2 31 -8 32 -19 5 -27 -53 -32
-237 -9 -326 26 -575 112 -804 19 -50 33 -92 31 -93 -8 -8 -424 41 -448 53
-31 16 -36 35 -14 54 18 14 31 80 45 220 10 99 144 662 185 779 62 172 183
329 286 369 60 24 85 24 205 -3z m356 -29 c-30 -36 -144 -42 -209 -13 -23 10
-11 13 88 18 63 3 119 6 124 7 5 1 3 -4 -3 -12z m-106 -1410 l50 -12 -2 -77
c-2 -78 -26 -187 -42 -187 -18 0 -20 33 -6 101 18 85 18 79 1 79 -9 0 -18 -22
-26 -62 -13 -67 -35 -118 -50 -118 -19 0 -29 36 -20 76 14 57 12 100 -4 113
-11 10 -12 19 -4 44 5 18 11 38 14 45 4 14 22 14 89 -2z m-152 -77 l37 -46 -6
-75 c-6 -63 -4 -77 11 -92 12 -11 25 -15 39 -11 12 3 28 7 36 8 17 2 24 -31
11 -52 -8 -12 -14 -12 -38 4 -15 10 -45 36 -66 58 -20 22 -40 38 -43 34 -8 -8
40 -65 82 -97 37 -28 41 -38 19 -46 -27 -11 -65 6 -111 48 -28 26 -44 35 -44
25 0 -15 30 -44 80 -79 l25 -17 -26 0 c-15 -1 -50 14 -78 33 -28 19 -53 31
-56 26 -3 -5 5 -16 17 -24 12 -9 17 -16 11 -16 -22 0 -100 99 -121 154 -39
102 -38 116 7 160 33 32 52 41 103 51 35 7 66 9 69 6 3 -3 22 -27 42 -52z
m-553 26 c187 -17 220 -23 220 -36 0 -6 10 -20 23 -32 12 -13 30 -50 41 -82
24 -77 49 -126 86 -168 l29 -34 -19 -114 c-55 -316 -70 -455 -77 -691 l-6
-237 -46 -7 c-49 -8 -326 2 -342 11 -6 4 -5 13 1 25 6 11 10 150 10 358 0 385
-11 481 -76 659 -32 89 -74 287 -74 349 0 23 3 24 33 19 17 -3 106 -12 197
-20z m513 -393 c26 -2 49 -8 52 -12 2 -3 -11 -121 -30 -261 -35 -262 -65 -553
-65 -631 0 -24 7 -54 16 -66 l15 -22 -70 0 c-38 0 -77 -3 -86 -6 -14 -6 -15
10 -10 167 8 228 21 379 51 567 43 279 44 284 63 276 9 -3 37 -9 64 -12z m48
-1057 c22 -19 47 -35 57 -35 14 -1 13 -4 -7 -21 l-24 -20 -21 20 c-12 12 -37
26 -56 32 -19 7 -43 19 -54 28 -17 15 -17 16 15 22 19 4 38 7 43 8 5 0 26 -15
47 -34z m-141 -11 l31 -31 -43 -29 -43 -29 -151 1 c-139 1 -157 3 -227 28 -73
27 -75 29 -66 54 5 13 11 28 13 31 2 3 106 6 230 6 l226 0 30 -31z m283 -45
c28 -15 67 -50 67 -61 0 -4 -43 -8 -95 -8 -108 0 -116 11 -41 55 48 29 42 28
69 14z m-173 -14 c64 -33 25 -69 -85 -81 -131 -13 -495 -3 -522 15 -5 3 -13
18 -17 34 -8 34 7 35 88 7 44 -16 94 -22 204 -27 l147 -5 65 35 c75 41 81 42
120 22z"/>
<path d="M1482 3748 c-31 -31 0 -105 33 -78 25 21 14 90 -15 90 -3 0 -11 -5
-18 -12z"/>
<path d="M1052 3738 c-31 -31 0 -105 33 -78 25 21 14 90 -15 90 -3 0 -11 -5
-18 -12z"/>
<path d="M1265 3660 c-22 -24 -13 -39 10 -16 22 21 32 20 40 -4 3 -11 11 -20
16 -20 13 0 1 42 -15 52 -18 12 -32 9 -51 -12z"/>
<path d="M1100 3455 c0 -5 11 -34 25 -62 52 -113 158 -106 215 13 12 25 21 47
19 49 -10 9 -259 9 -259 0z m230 -24 c0 -17 -47 -76 -72 -90 -36 -21 -75 -6
-105 38 -39 58 -35 61 77 61 55 0 100 -4 100 -9z"/>
<path d="M2335 4396 c-45 -11 -95 -32 -95 -40 0 -1 22 -17 49 -35 64 -41 126
-132 141 -208 26 -123 -15 -249 -107 -333 -30 -28 -59 -50 -64 -50 -5 0 -9 -6
-9 -14 0 -7 24 -21 56 -31 83 -26 201 -18 277 20 114 56 196 178 205 305 13
187 -110 349 -296 389 -64 13 -92 13 -157 -3z m170 -21 c150 -39 265 -184 265
-335 0 -192 -157 -350 -347 -350 -36 0 -83 5 -105 12 l-38 11 54 49 c37 33 66
71 88 116 30 60 33 75 33 157 0 80 -3 97 -31 155 -33 68 -71 114 -117 145 -33
21 -31 24 30 41 64 17 98 17 168 -1z"/>
<path d="M2050 4180 c-10 -23 -19 -30 -41 -30 -38 0 -45 -17 -19 -45 14 -15
21 -33 19 -52 -4 -34 3 -39 41 -23 24 10 33 9 52 -4 34 -24 41 -20 35 23 -4
33 -1 43 19 62 28 26 23 39 -16 39 -23 0 -33 7 -45 30 -9 17 -19 30 -24 30 -5
0 -14 -13 -21 -30z m73 -50 c19 0 19 -1 2 -20 -10 -11 -15 -28 -12 -40 5 -19
2 -21 -24 -15 -18 4 -36 2 -44 -5 -13 -11 -15 -8 -15 18 0 17 -4 34 -10 37
-17 10 -11 25 10 25 10 0 25 10 31 22 l12 22 15 -22 c8 -12 24 -22 35 -22z"/>
<path d="M2660 3610 c-10 -23 -19 -30 -41 -30 -38 0 -45 -17 -19 -45 14 -15
21 -33 19 -52 -4 -34 3 -39 41 -23 24 10 33 9 52 -4 34 -24 41 -20 35 23 -4
33 -1 43 19 62 28 26 23 39 -16 39 -23 0 -33 7 -45 30 -9 17 -19 30 -24 30 -5
0 -14 -13 -21 -30z m73 -50 c19 0 19 -1 2 -20 -10 -11 -15 -28 -12 -40 5 -19
2 -21 -24 -15 -18 4 -36 2 -44 -5 -13 -11 -15 -8 -15 18 0 17 -4 34 -10 37
-17 10 -11 25 10 25 10 0 25 10 31 22 l12 22 15 -22 c8 -12 24 -22 35 -22z"/>
<path d="M2084 2961 c-117 -29 -171 -61 -262 -157 -46 -47 -91 -102 -101 -122
-50 -98 -64 -224 -37 -316 11 -35 12 -55 4 -77 -13 -37 -5 -102 16 -134 8 -13
33 -31 55 -41 25 -11 42 -26 45 -40 9 -33 65 -94 99 -109 l29 -12 -54 -30
c-60 -35 -127 -103 -156 -160 -11 -21 -30 -69 -42 -108 -17 -49 -38 -87 -75
-131 -29 -34 -78 -96 -110 -137 -31 -42 -65 -79 -75 -82 -24 -8 -43 -37 -91
-147 -52 -119 -61 -200 -28 -242 24 -30 172 -106 269 -136 l55 -18 6 -53 c3
-30 1 -65 -5 -78 -9 -21 -6 -27 21 -50 l31 -26 -14 -50 c-7 -27 -13 -94 -14
-147 l0 -97 33 -18 c47 -26 435 -33 472 -9 18 12 38 14 82 10 49 -5 62 -3 83
14 21 17 25 28 24 76 0 67 -17 89 -82 106 -61 15 -120 49 -128 72 -3 10 -12
18 -20 18 -24 0 -15 15 16 27 33 12 50 55 33 83 -8 12 -3 49 21 141 31 122 32
124 58 121 14 -2 44 6 65 16 79 41 117 105 152 253 11 46 27 104 36 129 9 25
20 97 25 160 13 153 -1 259 -46 373 -20 49 -34 90 -32 91 1 2 26 11 54 20 102
33 167 89 192 165 7 19 29 48 49 66 l38 33 4 118 c6 203 5 237 -12 294 -21 72
-71 146 -120 179 -21 14 -61 45 -88 68 -27 24 -67 52 -89 63 -101 51 -254 64
-386 31z m291 -26 c66 -18 149 -66 171 -101 8 -12 25 -25 38 -28 34 -8 102
-78 129 -133 34 -67 50 -153 42 -224 -4 -33 -9 -58 -12 -56 -2 3 -6 39 -9 81
-8 140 -62 248 -146 295 -26 14 -50 33 -53 42 -8 23 -71 64 -131 84 -67 23
-217 31 -296 16 -78 -16 -172 -64 -204 -106 -13 -18 -24 -36 -24 -42 0 -5 -11
-16 -25 -23 -65 -35 -117 -157 -121 -288 -1 -52 -5 -96 -8 -99 -15 -15 -27 60
-24 142 4 74 9 100 33 147 35 71 173 217 233 248 112 56 290 75 407 45z m77
-403 c40 -32 79 -66 87 -75 20 -25 31 -11 31 40 l0 46 24 -22 c13 -12 36 -45
52 -74 28 -50 29 -58 29 -177 -1 -106 -4 -132 -22 -172 -63 -137 -364 -206
-631 -143 -117 28 -172 69 -198 149 -20 62 -20 62 -37 47 -50 -41 -99 77 -62
148 17 33 32 41 67 34 22 -4 26 -1 26 21 0 28 31 79 88 143 l33 38 -9 -35
c-18 -63 -12 -64 71 -15 71 42 76 43 55 11 -9 -14 -12 -27 -8 -30 28 -17 209
50 282 105 14 10 30 19 37 19 6 0 45 -26 85 -58z m298 -211 c11 -42 -1 -101
-25 -121 -9 -7 -17 -11 -18 -9 -1 2 -1 46 1 97 3 79 6 91 18 81 7 -6 18 -28
24 -48z m-613 -411 c54 -6 122 -8 151 -4 36 4 52 3 52 -5 0 -50 -231 -451
-259 -451 -11 0 -39 75 -53 142 -13 61 -28 77 -28 30 0 -77 84 -262 152 -335
21 -23 38 -44 38 -48 0 -4 -24 -10 -52 -14 -43 -6 -59 -14 -85 -43 -29 -32
-33 -33 -39 -16 -4 10 -28 42 -54 71 -68 75 -120 158 -156 248 -29 71 -54 107
-54 75 0 -24 63 -162 102 -222 l40 -62 -33 -27 c-22 -18 -39 -25 -49 -20 -8 4
-59 21 -112 36 -54 16 -98 34 -98 40 0 18 137 421 155 456 45 86 178 174 247
164 20 -3 81 -10 135 -15z m290 -49 c4 -16 -6 -48 -31 -100 -54 -109 -184
-323 -226 -372 l-36 -42 -23 37 -23 37 25 27 c51 55 195 303 233 402 22 59 44
77 62 53 7 -10 16 -29 19 -42z m48 -123 c22 -78 23 -306 2 -383 -8 -27 -20
-72 -27 -100 -20 -77 -22 -82 -27 -67 -7 19 -58 42 -92 42 l-30 0 5 73 c3 39
19 128 36 197 17 69 32 136 33 150 2 30 66 161 75 155 4 -3 15 -33 25 -67z
m-155 -214 c-11 -38 -25 -116 -31 -173 -5 -57 -14 -112 -20 -122 -15 -28 -36
-23 -55 14 -9 17 -28 42 -41 55 l-25 23 26 32 c14 18 56 80 93 138 38 59 69
106 70 105 2 -1 -6 -34 -17 -72z m-726 -119 c-13 -44 -26 -85 -29 -92 -3 -9
-12 -10 -37 -1 -18 6 -35 12 -37 14 -2 2 25 39 59 84 35 44 64 79 66 77 2 -1
-8 -39 -22 -82z m-28 -136 c38 -11 113 -34 167 -50 l98 -30 -25 -29 c-30 -36
-60 -114 -76 -198 -7 -34 -18 -66 -25 -72 -9 -8 -40 -5 -108 9 -102 20 -192
62 -251 115 l-35 31 50 111 c65 144 79 151 205 113z m387 -91 c-15 -17 -17
-17 -52 4 -20 12 -38 23 -40 25 -3 2 6 14 19 28 l24 25 33 -32 c31 -30 32 -33
16 -50z m262 22 c4 -6 -7 -28 -24 -49 -43 -55 -41 -67 13 -61 15 1 14 -4 -10
-34 -26 -33 -30 -35 -41 -19 -25 34 -26 1 0 -49 14 -29 23 -55 20 -58 -16 -15
-133 159 -133 198 0 16 42 63 64 72 30 12 104 12 111 0z m180 -15 c14 -13 25
-32 25 -43 0 -40 -33 -113 -68 -150 -20 -21 -31 -30 -23 -20 25 32 3 31 -36
-1 -21 -17 -42 -31 -48 -31 -5 0 7 12 28 27 20 14 37 32 37 40 0 8 -22 -3 -55
-28 -31 -23 -58 -39 -61 -36 -3 3 15 25 40 50 25 24 46 50 46 57 0 8 -22 -8
-50 -35 -43 -43 -50 -46 -50 -27 0 12 16 39 35 61 50 55 46 88 -7 60 -31 -17
-31 -5 -1 31 61 72 142 92 188 45z m-356 -120 c-2 -2 -25 -1 -50 2 -44 5 -45
6 -41 37 2 17 11 39 20 49 15 16 17 14 45 -33 16 -28 28 -53 26 -55z m-135 76
c16 -18 16 -27 -16 -167 -40 -185 -47 -194 -145 -194 -38 0 -99 9 -138 20 -74
21 -248 101 -277 127 -16 15 -26 73 -12 73 3 0 24 -13 47 -29 84 -57 166 -87
295 -107 54 -8 78 11 87 69 11 64 42 158 65 195 23 38 66 44 94 13z m176 -146
c16 -24 45 -56 64 -72 l34 -28 -29 -120 c-24 -97 -27 -124 -18 -142 6 -12 9
-28 6 -37 -7 -16 -74 -29 -127 -24 l-35 3 3 55 c6 124 33 293 52 330 24 46 24
50 6 50 -34 0 -70 -164 -88 -400 -3 -32 -6 -35 -43 -41 -57 -10 -202 7 -232
26 -19 13 -22 19 -13 31 8 9 10 32 6 68 l-7 54 59 -5 c46 -4 69 -1 105 15 54
24 59 35 88 167 11 50 22 97 24 105 4 12 17 14 60 12 53 -4 57 -6 85 -47z
m-236 -455 l81 -1 -35 -15 c-55 -24 -111 -27 -152 -10 -47 20 -51 41 -7 32 17
-3 68 -6 113 -6z m225 -6 c9 -8 -14 -24 -45 -30 -26 -5 -40 -2 -54 11 -11 10
-20 22 -20 27 0 7 109 0 119 -8z m-107 -41 c8 -10 18 -30 22 -45 7 -29 49 -58
85 -58 11 0 27 -3 36 -6 13 -5 8 -12 -22 -30 -99 -60 -90 -58 -183 -45 -47 7
-109 22 -139 33 -30 12 -61 21 -69 21 -12 0 -13 12 -9 60 7 75 16 86 61 65 30
-15 41 -15 90 -4 31 8 60 16 63 20 12 12 50 6 65 -11z m148 -6 c0 -18 89 -66
149 -82 l46 -11 -41 -7 c-23 -4 -47 -14 -54 -22 -11 -13 -17 -11 -47 15 -18
17 -44 30 -57 30 -38 0 -86 21 -97 42 -12 23 -14 22 31 35 49 15 70 15 70 0z
m208 -149 c5 -46 -14 -68 -58 -68 -78 0 -93 29 -39 75 43 36 93 32 97 -7z
m-144 -10 c14 -39 -21 -75 -80 -84 -48 -7 -369 10 -396 21 -12 5 -18 18 -18
42 0 39 1 40 90 9 57 -19 154 -36 207 -36 30 0 50 7 71 25 40 33 83 56 102 52
8 -1 19 -14 24 -29z"/>
<path d="M2524 2326 c-10 -26 0 -51 21 -51 16 0 20 7 20 30 0 33 -30 49 -41
21z"/>
<path d="M2167 2314 c-4 -4 -7 -20 -7 -36 0 -25 4 -29 23 -26 17 2 22 10 22
33 0 29 -22 45 -38 29z"/>
<path d="M2355 2280 c-10 -11 -15 -23 -11 -28 4 -4 14 2 22 13 15 20 15 20 30
1 18 -25 29 -14 14 13 -14 26 -32 27 -55 1z"/>
<path d="M2270 2092 c0 -27 44 -93 66 -98 12 -3 32 -1 43 6 21 11 81 86 81
101 0 4 -43 7 -95 6 -76 0 -95 -3 -95 -15z m160 -7 c0 -12 -64 -75 -76 -75
-17 0 -51 36 -57 60 -4 17 2 19 64 19 38 0 69 -2 69 -4z"/>
<path d="M1457 1014 c-15 -16 -7 -53 14 -59 30 -10 58 19 43 43 -12 18 -45 28
-57 16z m41 -26 c-6 -18 -28 -21 -28 -4 0 9 7 16 16 16 9 0 14 -5 12 -12z"/>
<path d="M3374 580 c-88 -36 -60 -160 35 -160 48 0 81 35 81 85 0 54 -66 96
-116 75z m83 -46 c31 -48 -12 -105 -70 -90 -32 8 -53 56 -37 86 23 43 80 45
107 4z"/>
<path d="M3386 528 c-32 -46 -9 -90 38 -72 26 10 19 25 -9 18 -20 -5 -25 -2
-25 14 0 23 25 46 40 37 5 -3 10 1 10 9 0 24 -37 19 -54 -6z"/>
<path d="M3533 553 c-7 -2 -13 -11 -13 -18 0 -7 -6 -16 -12 -18 -10 -4 -10 -8
-1 -14 6 -4 13 -22 16 -38 l4 -30 2 33 c0 19 7 35 17 39 13 5 13 8 2 15 -10 7
-10 11 0 15 6 2 12 9 12 14 0 10 -8 10 -27 2z"/>
<path d="M3745 540 c3 -5 8 -10 11 -10 2 0 4 5 4 10 0 6 -5 10 -11 10 -5 0 -7
-4 -4 -10z"/>
<path d="M3640 488 c0 -41 20 -45 20 -5 1 19 3 18 15 -8 l13 -30 1 28 c1 34
21 36 21 2 0 -14 5 -25 11 -25 6 0 9 14 7 33 -3 30 -6 32 -45 38 l-43 5 0 -38z"/>
<path d="M3572 488 c2 -28 8 -34 31 -36 25 -3 27 -1 27 32 0 20 -4 36 -10 36
-5 0 -10 -11 -10 -25 0 -14 -4 -25 -10 -25 -5 0 -10 11 -10 25 0 14 -5 25 -11
25 -6 0 -9 -14 -7 -32z"/>
<path d="M3740 490 c0 -16 5 -30 10 -30 6 0 10 14 10 30 0 17 -4 30 -10 30 -5
0 -10 -13 -10 -30z"/>
<path d="M3781 483 c1 -33 2 -35 8 -13 5 16 13 24 24 22 10 -2 17 4 17 13 0 9
-9 15 -25 15 -22 0 -25 -4 -24 -37z"/>
<path d="M3844 506 c-11 -29 1 -51 29 -54 25 -3 27 -1 27 32 0 32 -3 36 -25
36 -14 0 -28 -6 -31 -14z m36 -21 c0 -8 -4 -15 -10 -15 -5 0 -10 7 -10 15 0 8
5 15 10 15 6 0 10 -7 10 -15z"/>
</g>
</svg>
