<?xml version="1.0" standalone="no"?>
<!DOCTYPE svg PUBLIC "-//W3C//DTD SVG 20010904//EN"
 "http://www.w3.org/TR/2001/REC-SVG-20010904/DTD/svg10.dtd">
<svg version="1.0" xmlns="http://www.w3.org/2000/svg"
 width="500.000000pt" height="500.000000pt" viewBox="0 0 500.000000 500.000000"
 preserveAspectRatio="xMidYMid meet">

<g transform="translate(0.000000,500.000000) scale(0.100000,-0.100000)"
fill="#000000" stroke="none">
<path d="M1057 4270 c-32 -5 -77 -18 -101 -29 -24 -10 -70 -27 -103 -36 -192
-55 -335 -213 -395 -434 -17 -60 -21 -106 -21 -226 -1 -137 2 -157 26 -231 43
-129 124 -236 232 -308 35 -23 37 -26 16 -26 -88 0 -183 -75 -220 -173 -28
-77 -39 -190 -46 -512 -7 -276 -21 -397 -51 -442 -8 -14 -13 -31 -10 -39 3 -8
-2 -45 -10 -82 -22 -93 -15 -222 14 -284 25 -50 44 -63 71 -49 13 7 20 5 29
-10 10 -16 20 -18 62 -14 60 6 52 29 75 -235 9 -107 23 -247 31 -310 8 -63 14
-138 14 -165 0 -28 5 -56 11 -62 9 -9 9 -26 0 -69 -24 -120 -9 -208 40 -234
14 -8 107 -10 302 -6 155 3 325 1 377 -3 163 -14 301 14 330 68 15 29 12 83
-6 109 -21 31 -50 45 -111 53 -72 10 -171 55 -155 71 7 7 12 39 12 73 0 60 7
112 54 415 14 91 30 228 36 305 6 77 13 172 16 211 l5 71 40 13 c22 8 51 24
65 37 l25 23 -25 37 c-21 33 -23 44 -17 87 5 28 15 52 25 58 20 11 22 85 2
114 -11 15 -15 67 -17 218 l-3 197 55 31 c65 37 212 183 292 291 71 94 136
215 173 320 18 51 35 84 51 94 27 18 30 45 8 63 -14 12 -12 17 14 44 16 17 41
56 55 87 19 40 36 61 63 76 84 47 101 95 41 111 l-30 7 41 33 c48 38 53 67 15
84 -23 11 -33 9 -76 -14 -47 -25 -49 -26 -34 -5 38 53 48 78 35 93 -23 28 -63
16 -122 -37 -59 -53 -64 -46 -21 28 23 39 11 66 -30 71 -34 4 -70 -33 -116
-119 l-33 -63 -16 24 c-38 59 -76 76 -100 46 -9 -11 -8 -38 3 -119 23 -151 21
-168 -25 -265 -65 -137 -157 -268 -249 -354 l-82 -77 -40 20 c-31 16 -38 23
-27 30 8 5 21 9 29 9 29 0 118 49 160 87 60 53 90 121 90 203 0 41 6 72 15 84
21 27 19 52 -5 69 -20 14 -20 14 2 75 13 35 30 63 39 65 24 6 43 124 37 228
-9 142 -74 265 -161 300 -17 7 -54 32 -82 56 -61 53 -168 107 -255 128 -81 19
-256 27 -333 15z m337 -45 c91 -25 179 -71 231 -120 27 -24 63 -49 81 -55 41
-14 99 -78 125 -136 30 -72 41 -165 29 -252 -6 -42 -12 -77 -14 -79 -2 -2 -6
52 -9 119 -8 189 -52 283 -146 308 -24 6 -53 22 -65 35 -71 80 -307 165 -457
165 -68 0 -147 -18 -194 -44 -22 -13 -66 -28 -98 -34 -73 -14 -136 -52 -201
-118 -140 -143 -202 -338 -177 -564 18 -162 60 -258 161 -361 32 -33 53 -59
48 -59 -6 0 -42 33 -82 73 -126 128 -174 271 -163 487 16 310 147 503 402 591
195 67 210 69 345 65 72 -3 150 -11 184 -21z m318 -332 c48 -54 88 -196 88
-308 0 -47 -7 -83 -25 -127 -14 -34 -25 -63 -25 -65 0 -2 9 -3 20 -3 28 0 38
-29 16 -45 -14 -11 -16 -22 -10 -63 6 -45 4 -51 -16 -62 -12 -6 -46 -14 -76
-17 l-54 -6 0 -36 c1 -20 7 -54 15 -76 11 -31 12 -42 2 -52 -38 -37 -241 -82
-312 -69 -42 8 -44 -4 22 173 l45 122 -35 31 c-65 56 -72 141 -22 240 28 56
48 70 86 63 35 -7 100 28 137 73 34 41 84 139 102 202 15 47 20 50 42 25z
m505 -105 c-3 -7 -22 -49 -41 -93 -59 -133 -49 -137 63 -25 49 50 88 80 101
80 25 0 25 0 -47 -96 -83 -111 -72 -121 42 -39 71 50 115 68 115 46 0 -4 -31
-33 -69 -62 -71 -55 -92 -88 -48 -75 12 4 42 10 67 13 l45 6 -23 -25 c-13 -14
-40 -33 -60 -42 -30 -14 -41 -26 -55 -65 -9 -26 -31 -64 -50 -86 -41 -47 -50
-45 -166 25 -46 27 -87 50 -91 50 -4 0 -10 37 -14 83 -4 45 -11 110 -17 145
-6 35 -9 66 -5 69 10 11 39 -21 58 -64 10 -24 23 -43 28 -43 4 0 27 35 50 78
23 42 53 89 68 105 26 27 59 37 49 15z m-135 -468 c56 -33 107 -60 113 -60 7
0 20 -9 30 -20 17 -18 16 -20 -8 -42 -13 -13 -34 -52 -47 -88 -60 -175 -164
-334 -321 -491 -61 -61 -105 -95 -152 -119 -68 -33 -74 -39 -58 -55 11 -11 20
-365 9 -365 -11 0 -68 61 -82 89 -9 18 -15 92 -19 246 -4 121 -11 253 -17 294
-15 95 -9 115 41 147 125 78 280 268 361 441 21 45 41 83 44 83 3 0 51 -27
106 -60z m-317 -142 c-10 -32 -41 -81 -63 -101 -26 -24 -41 -5 -49 61 l-5 49
47 1 c26 1 50 4 53 7 13 13 23 3 17 -17z m-177 -1236 c15 -10 34 -21 43 -24
13 -5 15 -17 11 -62 -3 -41 0 -62 12 -81 20 -30 15 -40 -24 -60 -88 -46 -405
-80 -655 -72 -227 8 -425 39 -425 67 0 4 7 13 15 20 9 7 15 29 15 52 l0 39
333 -7 c282 -5 347 -4 432 10 55 9 115 21 132 27 39 12 73 53 73 85 0 29 4 29
38 6z m-1111 -102 c14 -11 36 -20 49 -20 15 0 24 -6 24 -16 0 -13 -7 -15 -37
-10 -21 4 -52 11 -70 17 l-31 10 16 39 c13 30 18 35 20 20 2 -11 15 -29 29
-40z m21 -67 c28 -3 52 -8 52 -10 0 -2 -7 -14 -15 -27 -19 -29 -11 -52 25 -71
26 -13 27 -17 33 -121 4 -67 2 -114 -4 -127 -19 -35 -34 0 -38 88 -2 68 -6 85
-18 85 -14 0 -15 -14 -10 -96 7 -120 -10 -123 -37 -6 -13 56 -24 82 -34 82
-11 0 -13 -8 -6 -37 18 -88 1 -134 -29 -76 -33 64 -40 139 -22 240 14 80 20
93 34 88 9 -4 40 -9 69 -12z m1040 -245 c-11 -190 -26 -327 -58 -528 -41 -258
-47 -312 -39 -343 15 -55 -35 -72 -206 -71 -72 0 -122 6 -144 15 l-34 15 2
309 c2 338 -6 434 -42 522 -13 32 -27 67 -31 77 -5 14 -10 16 -17 9 -7 -7 -3
-31 16 -76 45 -114 53 -218 48 -648 l-3 -197 -31 -12 c-37 -16 -263 -7 -284
10 -8 7 -13 29 -13 53 1 23 -13 175 -30 337 -32 311 -57 628 -49 636 3 3 67
-3 143 -12 173 -21 373 -21 574 1 85 9 156 18 159 21 2 2 14 4 25 4 21 0 21
-2 14 -122z m-288 -968 l118 0 6 -36 c4 -20 14 -37 24 -40 9 -3 45 -17 79 -31
64 -26 93 -25 93 1 0 25 30 47 54 40 29 -9 29 -9 12 -43 -31 -59 -34 -60 -336
-57 -151 1 -281 5 -287 9 -7 5 -13 21 -13 36 0 24 25 125 36 143 2 3 25 0 51
-8 28 -9 92 -14 163 -14z m-257 -50 c-7 -30 -13 -67 -13 -81 0 -34 -18 -39
-135 -39 -100 0 -157 22 -150 57 2 10 9 42 15 71 l12 52 142 -2 142 -3 -13
-55z m487 23 c79 -38 87 -46 71 -71 -6 -10 -22 -7 -77 15 -38 15 -72 32 -76
38 -9 12 -11 55 -3 55 4 0 42 -17 85 -37z m226 -88 c22 -34 11 -71 -28 -95
-55 -33 -157 -44 -298 -31 -69 6 -178 10 -243 8 -95 -2 -119 1 -127 13 -23 36
-16 37 277 35 158 -2 298 1 310 6 12 4 34 26 48 49 29 47 39 49 61 15z m-846
-70 c120 0 125 -1 128 -22 4 -29 -13 -33 -142 -36 -102 -2 -109 -1 -127 22
-25 30 -26 56 -1 45 9 -5 73 -9 142 -9z"/>
<path d="M1654 3466 c-3 -8 -4 -27 -2 -43 2 -22 8 -28 28 -28 20 0 26 6 28 28
5 45 -40 80 -54 43z"/>
<path d="M3491 4244 c-12 -9 -36 -45 -53 -81 -35 -72 -67 -103 -109 -103 -23
0 -29 -5 -29 -20 0 -38 29 -78 69 -96 l39 -17 -19 -44 c-10 -24 -26 -68 -34
-97 -15 -50 -17 -52 -45 -48 -26 4 -31 0 -47 -33 l-18 -38 -5 81 c-4 56 -11
87 -22 98 -32 33 -77 -10 -78 -74 -1 -24 -3 -22 -25 19 -50 96 -135 58 -106
-47 17 -60 14 -61 -34 -14 -37 37 -49 43 -63 34 -25 -16 -26 -60 -3 -100 25
-43 26 -43 3 -37 -10 2 -29 -4 -42 -15 -23 -19 -23 -20 -7 -45 9 -14 34 -38
56 -54 23 -15 41 -35 41 -44 0 -8 7 -24 15 -35 8 -10 15 -35 15 -54 0 -20 6
-44 14 -55 8 -11 28 -68 44 -126 17 -58 44 -139 60 -179 l29 -74 -23 -47 c-55
-108 -82 -295 -91 -615 -5 -192 -4 -233 8 -240 8 -5 53 -9 100 -10 47 0 99 -6
116 -13 26 -11 36 -10 61 3 35 18 42 13 42 -28 0 -17 9 -73 20 -125 11 -51 17
-97 14 -102 -10 -16 -69 -26 -104 -16 -29 8 -37 6 -51 -12 -12 -14 -37 -23
-84 -31 -150 -24 -170 -48 -169 -200 0 -78 7 -133 27 -213 42 -170 77 -220
162 -233 85 -12 145 26 165 108 10 39 9 55 -6 105 -22 71 -23 79 -6 75 8 -1
28 7 47 18 21 13 50 20 82 20 l49 0 23 -128 c18 -98 20 -133 12 -155 -8 -21
-7 -35 6 -62 14 -30 15 -41 3 -90 -17 -69 -5 -99 48 -123 31 -14 72 -17 254
-17 204 0 218 1 245 21 46 35 59 65 45 111 -18 60 -71 109 -127 118 -41 6 -46
9 -42 27 4 12 -5 41 -19 69 -22 41 -25 61 -27 160 l-2 113 44 9 c55 11 132 85
180 173 30 54 37 60 60 56 14 -3 31 -8 36 -13 6 -4 35 -8 65 -7 49 0 58 4 91
36 36 37 59 102 59 171 0 19 7 31 22 38 21 9 22 16 23 144 4 360 -65 742 -155
856 -11 14 -20 29 -20 33 0 3 25 17 55 29 60 25 106 71 126 125 7 20 22 39 33
42 61 18 126 134 111 196 -4 14 3 43 15 71 44 98 35 306 -19 448 -27 72 -74
136 -113 157 -18 10 -52 39 -77 65 -53 56 -167 115 -276 143 -103 26 -247 25
-305 -3 -25 -11 -72 -24 -105 -29 -60 -9 -60 -9 -76 20 -31 59 -144 87 -198
50z m140 -31 c28 -17 47 -49 35 -61 -4 -3 -15 4 -26 16 -53 56 -113 33 -158
-61 -32 -67 -70 -97 -126 -97 -37 0 -32 16 9 30 39 13 74 54 99 115 26 61 43
75 94 75 24 0 57 -8 73 -17z m567 -43 c120 -34 231 -101 247 -149 3 -9 21 -23
39 -29 101 -37 177 -221 175 -424 -1 -94 -16 -172 -33 -169 -6 0 -10 68 -11
159 0 144 -3 163 -27 230 -31 85 -70 141 -109 155 -15 6 -34 25 -42 43 -27 56
-148 125 -279 160 -87 22 -218 16 -273 -13 -22 -12 -64 -24 -94 -27 -111 -11
-241 -98 -311 -205 -42 -66 -68 -148 -81 -255 -12 -100 -19 -120 -30 -90 -12
31 -10 124 6 197 27 127 121 266 224 331 52 33 151 66 198 66 21 0 48 6 59 14
58 41 211 43 342 6z m-994 -356 c3 -9 6 -53 6 -99 0 -73 -3 -87 -24 -112 -40
-48 -58 -93 -37 -93 5 0 12 11 15 24 3 14 26 41 51 61 24 20 54 56 65 81 12
24 26 41 32 38 12 -8 0 -104 -22 -169 l-17 -50 -109 -32 c-60 -18 -118 -33
-130 -33 -26 0 -44 18 -44 47 0 15 -14 32 -43 52 -61 42 -74 59 -51 68 11 4
35 -3 66 -20 26 -15 50 -23 53 -18 3 5 -10 27 -29 50 -54 64 -80 111 -69 122
7 7 30 -12 68 -55 60 -68 92 -85 81 -43 -32 124 -39 168 -28 179 19 19 48 -17
81 -97 39 -96 51 -95 51 3 0 81 6 112 20 112 4 0 11 -7 14 -16z m1189 -136
c44 -59 85 -141 108 -217 22 -75 22 -75 5 -205 -9 -72 -25 -149 -35 -171 -23
-52 -66 -88 -133 -112 -79 -27 -335 -24 -475 6 -267 56 -423 152 -438 267 -3
27 -7 56 -9 64 -2 9 0 60 4 114 7 87 11 101 34 125 38 39 132 51 291 37 46 -5
87 -2 119 7 45 12 53 11 90 -8 32 -16 60 -20 131 -20 81 0 95 3 144 30 29 16
70 49 90 72 20 23 39 42 43 43 4 0 18 -15 31 -32z m-1067 -160 c-19 -27 -21
-13 -4 33 11 29 13 31 16 12 2 -13 -4 -33 -12 -45z m70 -35 c-3 -21 -6 -81 -7
-133 -1 -94 -1 -95 -16 -60 -8 19 -21 70 -28 112 -11 73 -11 78 9 97 33 34 50
27 42 -16z m-86 -33 c6 -11 9 -24 7 -28 -10 -16 15 -127 39 -174 34 -67 104
-141 177 -186 l60 -36 -6 -86 c-6 -99 -25 -172 -71 -287 -29 -69 -124 -231
-130 -221 -1 2 0 40 2 86 4 82 5 83 27 78 45 -12 34 13 -27 61 -136 107 -243
301 -319 583 -13 46 -32 93 -42 103 -36 36 -19 48 123 87 164 46 147 44 160
20z m1283 -77 c42 -48 27 -143 -30 -194 -19 -17 -37 -29 -39 -27 -4 5 13 132
27 191 12 51 18 56 42 30z m-901 -385 c22 -8 27 -17 33 -56 23 -171 -87 -428
-249 -580 -49 -47 -60 -53 -93 -50 -43 4 -68 33 -41 49 126 72 263 355 285
592 5 57 9 67 22 61 9 -3 28 -10 43 -16z m208 -44 c47 -8 135 -17 197 -21 111
-6 112 -6 117 -32 12 -54 46 -281 60 -401 9 -69 20 -152 25 -185 6 -33 12
-111 15 -172 5 -102 4 -113 -13 -122 -56 -30 -400 -57 -538 -41 -120 13 -313
55 -372 81 -35 15 -42 22 -35 36 4 10 10 52 12 95 l3 76 35 6 c22 5 55 27 95
63 159 148 266 385 257 573 l-3 72 30 -7 c17 -3 68 -12 115 -21z m399 -66 c22
-105 31 -207 36 -393 l5 -190 -20 140 c-11 77 -32 216 -46 309 -21 138 -23
170 -12 177 23 15 26 10 37 -43z m-1130 -88 c-30 -80 -51 -255 -57 -495 l-7
-230 -25 0 -25 0 2 210 c3 281 34 510 80 599 l16 30 17 -34 c16 -31 16 -35 -1
-80z m75 -35 c21 -30 56 -70 77 -90 39 -35 51 -65 25 -65 -16 0 -180 31 -184
34 -6 7 35 176 42 176 2 0 20 -25 40 -55z m1161 -115 c38 -171 58 -351 57
-519 -1 -85 3 -162 9 -173 8 -15 5 -20 -15 -27 -35 -14 -141 -24 -170 -17 -22
5 -24 9 -15 34 6 17 21 32 39 39 39 15 55 56 41 104 -16 54 -14 154 3 168 8 7
18 37 22 67 5 47 -7 311 -21 449 l-5 50 16 -35 c9 -19 27 -82 39 -140z m-1133
-56 l87 -16 -6 -46 c-3 -26 -7 -48 -7 -49 -2 -2 -44 8 -158 38 -39 10 -48 31
-32 73 8 20 9 20 116 0z m-17 -117 c75 -19 91 -27 93 -44 2 -14 -7 -28 -27
-43 -22 -15 -31 -30 -31 -49 0 -15 -11 -54 -24 -87 -13 -33 -30 -87 -37 -122
-10 -46 -17 -61 -27 -57 -7 3 -25 5 -38 5 l-24 0 0 194 c0 184 4 226 19 226 3
0 47 -11 96 -23z m85 -265 c0 -82 -28 -152 -60 -152 -15 0 -20 6 -20 28 0 56
54 207 70 197 6 -3 10 -36 10 -73z m225 -232 c172 -37 287 -45 461 -31 88 7
174 15 192 18 l32 5 -31 -88 c-63 -183 -161 -353 -221 -385 -28 -15 -88 -29
-88 -20 0 3 9 75 22 158 12 84 18 156 15 160 -16 15 -26 -19 -48 -162 -18
-123 -21 -175 -16 -288 5 -124 9 -143 32 -185 l26 -47 -26 -22 c-61 -53 -239
-71 -322 -33 -24 10 -43 21 -43 23 0 2 5 18 11 36 16 44 -39 337 -101 547 -49
163 -80 293 -80 338 l0 24 48 -15 c26 -8 88 -23 137 -33z m855 -124 c0 -51
-20 -109 -48 -138 -39 -42 -69 -36 -37 6 8 11 15 26 15 33 0 24 -16 13 -33
-21 -20 -42 -50 -62 -65 -43 -8 9 -6 21 8 42 22 33 25 45 11 45 -5 0 -18 -16
-30 -35 -11 -19 -28 -35 -36 -35 -19 0 -19 2 19 100 l29 75 83 1 84 1 0 -31z
m-988 -196 c15 -47 34 -117 42 -156 l13 -72 -58 -4 c-37 -3 -65 -11 -78 -22
-19 -17 -20 -17 -37 9 -21 32 -61 192 -65 266 l-4 54 52 -3 c28 -2 60 1 70 7
10 6 22 9 27 8 5 -2 22 -41 38 -87z m-236 11 c-44 -48 -27 -141 35 -194 46
-40 52 -62 12 -46 -14 5 -30 6 -34 2 -4 -4 -9 -54 -11 -109 l-4 -102 49 -20
c37 -16 48 -25 45 -39 -5 -21 -2 -21 -85 9 l-62 23 -31 127 c-59 245 -51 350
28 363 20 4 44 7 52 9 23 4 25 -2 6 -23z m-137 -23 c-20 -37 -4 -198 33 -342
l33 -129 63 -22 c93 -34 96 -45 15 -52 -98 -9 -141 51 -183 257 -36 175 -20
310 37 310 11 0 11 -4 2 -22z m177 -70 c8 -40 14 -77 14 -83 -1 -22 -49 47
-55 78 -6 32 10 95 21 84 3 -3 12 -39 20 -79z m37 -212 c-3 -13 2 -40 11 -61
9 -20 16 -52 16 -70 l0 -32 -41 20 c-33 16 -40 24 -35 41 3 12 6 49 6 83 0 62
0 62 23 52 17 -8 23 -17 20 -33z m760 -332 c23 -8 21 -16 -9 -37 -22 -16 -31
-17 -82 -7 -104 21 -113 27 -64 48 27 11 123 9 155 -4z m-212 -34 c4 -9 39
-21 94 -32 l89 -17 34 25 c50 39 51 20 1 -26 l-44 -40 -165 3 c-145 2 -170 5
-205 23 -38 20 -52 42 -42 67 7 19 230 17 238 -3z m284 -75 c0 -68 -106 -93
-333 -77 -167 11 -212 25 -212 67 0 31 6 31 50 3 32 -21 49 -23 212 -26 l178
-4 42 36 c48 41 63 41 63 1z"/>
<path d="M3694 3425 c-31 -47 7 -100 44 -63 23 23 9 88 -20 88 -4 0 -15 -11
-24 -25z"/>
<path d="M3902 3358 c-13 -13 -16 -38 -6 -38 4 0 13 8 20 18 13 16 15 15 34
-8 21 -26 27 -12 10 21 -12 21 -40 25 -58 7z"/>
<path d="M4164 3345 c-31 -47 7 -100 44 -63 23 23 9 88 -20 88 -4 0 -15 -11
-24 -25z"/>
<path d="M3785 3179 c22 -101 76 -159 148 -159 50 0 88 23 121 73 41 64 36 72
-37 74 -35 0 -93 9 -128 18 -119 32 -112 32 -104 -6z m215 -30 c28 -2 53 -6
55 -9 6 -10 -42 -73 -68 -87 -31 -17 -88 -16 -116 3 -24 17 -60 86 -61 115 0
14 7 14 70 -2 38 -10 92 -19 120 -20z"/>
<path d="M1595 729 c-32 -19 -45 -41 -45 -79 0 -70 85 -107 141 -61 31 25 33
92 4 121 -25 24 -74 34 -100 19z m50 -15 c14 -6 13 -8 -7 -18 -12 -6 -29 -23
-37 -38 -13 -22 -13 -29 -2 -42 17 -21 45 -20 62 1 13 15 11 16 -13 10 -15 -4
-29 -3 -33 3 -10 16 18 51 38 46 11 -3 17 2 17 12 0 12 3 13 11 5 17 -17 14
-61 -6 -83 -23 -26 -60 -25 -85 0 -28 28 -25 64 6 89 30 24 27 23 49 15z"/>
<path d="M1748 687 c-9 -13 -13 -35 -10 -55 5 -40 22 -42 22 -2 0 19 5 30 14
30 7 0 16 -13 20 -30 4 -24 11 -30 31 -30 22 0 25 4 24 38 -1 31 -2 33 -8 13
-9 -34 -31 -39 -31 -7 0 14 -3 25 -7 25 -5 -1 -17 -1 -28 0 -19 2 -19 3 -3 15
10 7 15 16 11 19 -11 12 -20 8 -35 -16z"/>
<path d="M1970 690 c0 -5 5 -10 10 -10 6 0 10 5 10 10 0 6 -4 10 -10 10 -5 0
-10 -4 -10 -10z"/>
<path d="M1864 671 c-8 -9 -4 -60 6 -66 6 -3 10 3 10 14 0 11 5 23 10 26 6 4
10 -5 10 -19 0 -14 5 -26 10 -26 6 0 10 12 10 26 0 14 4 23 10 19 6 -3 10 -15
10 -26 0 -10 5 -19 11 -19 7 0 9 9 5 23 -3 12 -6 27 -6 33 0 11 -76 24 -86 15z"/>
<path d="M1970 634 c0 -21 4 -33 10 -29 6 3 10 19 10 36 0 16 -4 29 -10 29 -5
0 -10 -16 -10 -36z"/>
<path d="M2000 635 c0 -19 5 -35 10 -35 6 0 10 11 10 25 0 14 5 25 10 25 6 0
20 -11 32 -25 25 -28 74 -36 64 -9 -3 9 -6 24 -6 35 0 21 -29 26 -47 8 -8 -8
-13 -8 -17 0 -4 6 -18 11 -32 11 -21 0 -24 -5 -24 -35z m110 0 c0 -8 -7 -15
-15 -15 -8 0 -15 7 -15 15 0 8 7 15 15 15 8 0 15 -7 15 -15z"/>
</g>
</svg>
