<?xml version="1.0" standalone="no"?>
<!DOCTYPE svg PUBLIC "-//W3C//DTD SVG 20010904//EN"
 "http://www.w3.org/TR/2001/REC-SVG-20010904/DTD/svg10.dtd">
<svg version="1.0" xmlns="http://www.w3.org/2000/svg"
 width="500.000000pt" height="375.000000pt" viewBox="0 0 500.000000 375.000000"
 preserveAspectRatio="xMidYMid meet">

<g transform="translate(0.000000,375.000000) scale(0.100000,-0.100000)"
fill="#000000" stroke="none">
<path d="M2205 3589 c-106 -31 -222 -89 -304 -155 -41 -32 -81 -58 -90 -56
-11 2 -12 0 -4 -5 8 -6 2 -24 -23 -63 -18 -29 -37 -70 -40 -89 -4 -20 -26
-104 -50 -187 -56 -199 -68 -291 -61 -489 7 -202 31 -297 122 -481 54 -109 77
-144 133 -202 l68 -69 -45 -28 c-25 -15 -120 -66 -211 -113 -257 -134 -400
-234 -437 -306 -14 -27 -11 -26 28 15 24 25 57 54 73 65 28 18 29 18 47 -7 84
-108 141 -152 282 -219 108 -51 233 -87 374 -105 133 -17 193 -19 193 -5 0 6
-19 10 -41 10 -49 0 -268 43 -354 69 -170 53 -302 128 -390 222 -47 51 -54 64
-43 75 7 7 117 67 244 132 219 113 385 212 414 247 18 21 25 20 92 -21 84 -51
223 -104 274 -104 28 0 49 7 65 21 21 18 21 20 4 14 -11 -4 -45 -9 -75 -12
-64 -6 -129 18 -227 85 -144 98 -224 185 -289 317 -52 105 -64 162 -64 297 0
174 54 467 111 598 l24 55 7 -66 c10 -102 34 -186 82 -284 55 -111 115 -174
178 -186 71 -14 176 -11 208 6 17 9 40 13 54 9 15 -3 41 3 74 20 27 14 52 23
55 20 9 -10 61 62 94 131 40 85 66 200 61 277 -2 31 0 54 3 50 9 -11 96 -329
113 -414 22 -108 39 -270 33 -326 -5 -53 -60 -202 -109 -295 -36 -67 -112
-150 -202 -217 -44 -33 -67 -62 -106 -131 -28 -49 -50 -92 -50 -95 0 -15 64
75 91 128 23 45 38 62 72 79 23 12 56 32 73 44 l31 24 49 -36 c62 -44 196
-112 333 -168 120 -49 346 -125 374 -125 27 0 20 -12 -29 -49 -176 -129 -433
-250 -702 -331 -40 -12 -71 -24 -69 -27 10 -9 246 50 332 83 183 71 391 188
472 266 30 30 47 39 60 34 12 -5 14 -4 8 2 -5 6 -73 34 -150 63 -134 50 -402
167 -528 231 l-60 30 35 36 c137 147 205 272 264 488 25 91 28 114 27 284 0
197 -8 257 -59 408 -49 148 -91 218 -194 322 -92 94 -98 98 -215 147 -66 28
-148 58 -181 67 -87 22 -240 20 -329 -5z m862 -1151 c-3 -7 -5 -2 -5 12 0 14
2 19 5 13 2 -7 2 -19 0 -25z m-12 -85 c-10 -67 -24 -89 -25 -38 0 50 9 85 22
85 7 0 8 -18 3 -47z m-1255 15 c0 -7 -7 -21 -14 -31 -10 -13 -12 -27 -5 -49
13 -46 18 -45 12 1 -3 25 -2 41 5 41 13 0 24 -42 27 -103 l3 -48 -24 32 c-33
44 -47 94 -40 135 7 32 36 50 36 22z m1205 -111 c-8 -20 -20 -37 -25 -37 -6 0
0 20 12 44 27 51 35 46 13 -7z m-1122 -94 c23 -25 20 -38 -3 -19 -19 14 -40
52 -40 68 0 7 6 4 12 -7 6 -11 20 -30 31 -42z"/>
<path d="M4080 3419 c-230 -39 -428 -178 -528 -375 -64 -126 -72 -303 -20
-437 17 -43 18 -28 2 38 -50 214 36 438 231 598 121 100 253 147 410 147 167
0 274 -46 387 -169 231 -250 204 -641 -63 -903 -124 -122 -263 -178 -439 -178
-154 0 -284 45 -368 126 -35 34 -53 45 -59 37 -9 -13 -213 -85 -213 -75 0 3
13 20 29 37 42 44 141 178 141 190 -1 17 -250 -257 -250 -274 0 -33 73 -12
218 63 l82 43 29 -33 c49 -55 110 -93 195 -120 69 -22 99 -26 201 -27 103 0
131 4 200 26 44 15 103 40 130 56 114 66 228 198 291 336 71 155 83 355 31
505 -72 203 -238 350 -436 386 -86 15 -122 16 -201 3z"/>
<path d="M3753 3373 c15 -2 37 -2 50 0 12 2 0 4 -28 4 -27 0 -38 -2 -22 -4z"/>
<path d="M3673 3363 c9 -2 23 -2 30 0 6 3 -1 5 -18 5 -16 0 -22 -2 -12 -5z"/>
<path d="M3454 3304 c-18 -14 -18 -15 4 -4 12 6 22 13 22 15 0 8 -5 6 -26 -11z"/>
<path d="M1590 3295 c-14 -8 -20 -14 -15 -14 6 0 21 6 35 14 14 8 21 14 15 14
-5 0 -21 -6 -35 -14z"/>
<path d="M1534 3264 c-18 -14 -18 -15 4 -4 12 6 22 13 22 15 0 8 -5 6 -26 -11z"/>
<path d="M1470 3229 c-17 -13 -18 -17 -5 -10 33 17 51 31 40 31 -5 0 -21 -10
-35 -21z"/>
<path d="M4213 3153 c2 -46 1 -83 -2 -82 -3 0 -28 27 -55 60 -67 81 -76 79
-76 -25 0 -47 5 -88 10 -91 12 -7 13 0 11 90 l-2 70 34 -50 c19 -27 51 -65 71
-84 31 -30 36 -32 42 -17 8 22 -13 176 -27 197 -7 9 -9 -12 -6 -68z"/>
<path d="M3269 3173 l-34 -38 40 35 c22 19 42 36 44 38 2 1 0 2 -5 2 -6 0 -26
-17 -45 -37z"/>
<path d="M3891 3158 l-24 -43 -13 40 c-13 38 -13 35 -10 -56 2 -52 8 -104 14
-115 10 -16 11 -12 12 25 l0 43 35 -26 c43 -33 45 -23 5 26 l-31 37 21 41 c29
57 21 80 -9 28z"/>
<path d="M1385 3170 c-8 -13 9 -20 24 -11 10 6 9 10 -3 14 -8 3 -18 2 -21 -3z"/>
<path d="M3962 3163 c-32 -62 -18 -149 25 -159 65 -17 110 112 54 157 -29 24
-67 25 -79 2z m62 -19 c31 -31 12 -114 -27 -114 -23 0 -30 17 -29 68 0 58 25
78 56 46z"/>
<path d="M1344 3154 c-18 -14 -18 -15 4 -4 12 6 22 13 22 15 0 8 -5 6 -26 -11z"/>
<path d="M3202 3154 c10 -10 20 -15 24 -12 3 4 -5 12 -18 18 -22 12 -22 12 -6
-6z"/>
<path d="M1289 3113 c-13 -17 -13 -17 6 -3 11 8 22 16 24 17 2 2 0 3 -6 3 -6
0 -17 -8 -24 -17z"/>
<path d="M1244 3078 l-19 -23 23 19 c21 18 27 26 19 26 -2 0 -12 -10 -23 -22z"/>
<path d="M1074 2929 c-86 -89 -94 -98 -119 -129 -10 -14 25 21 80 78 54 56
105 107 114 112 9 5 11 10 5 10 -6 0 -42 -32 -80 -71z"/>
<path d="M3887 2860 c-4 -14 -7 -41 -8 -60 -1 -74 -12 -75 -49 -6 -19 36 -38
66 -41 66 -10 0 -18 -39 -25 -124 -6 -65 -5 -78 7 -74 10 3 16 27 19 78 l5 73
35 -69 c43 -84 66 -94 75 -32 7 56 -8 184 -18 148z"/>
<path d="M4162 2873 c-20 -8 -52 -79 -52 -116 0 -42 33 -87 64 -87 12 0 31 7
43 15 19 13 22 13 27 -1 10 -25 26 -6 26 31 0 47 27 55 36 9 11 -60 24 -48 24
24 0 86 -9 139 -21 120 -5 -7 -9 -32 -9 -55 0 -36 -3 -43 -20 -43 -17 0 -20 7
-21 43 -1 36 -2 38 -9 17 -4 -14 -8 -46 -9 -72 -1 -37 -6 -50 -22 -58 -75 -40
-118 68 -57 145 13 17 27 25 39 22 11 -3 17 -1 13 4 -6 10 -31 11 -52 2z"/>
<path d="M4396 2836 c-8 -53 2 -156 15 -156 5 0 9 39 9 88 0 101 -14 139 -24
68z"/>
<path d="M3946 2810 c-9 -67 -5 -135 9 -135 14 0 17 69 7 135 l-9 55 -7 -55z"/>
<path d="M880 2705 c-7 -9 -11 -17 -9 -20 3 -2 10 5 17 15 14 24 10 26 -8 5z"/>
<path d="M2703 2608 c-39 -19 -29 -38 13 -26 24 6 45 6 66 -1 44 -15 47 -6 7
18 -38 23 -53 25 -86 9z"/>
<path d="M799 2578 c-7 -13 -18 -33 -26 -45 -12 -17 -12 -23 -1 -29 7 -4 10
-4 6 1 -4 4 4 27 18 51 14 24 23 44 20 44 -3 0 -11 -10 -17 -22z"/>
<path d="M2041 2565 c-19 -9 -32 -16 -30 -18 2 -1 41 -1 87 1 58 3 82 7 79 15
-6 18 -97 19 -136 2z"/>
<path d="M4446 2572 c-8 -13 -37 -145 -33 -149 5 -5 44 91 53 130 6 25 -8 39
-20 19z"/>
<path d="M4316 2544 c-3 -9 -6 -43 -5 -77 l1 -62 13 40 c16 47 19 102 6 109
-5 3 -12 -1 -15 -10z"/>
<path d="M3572 2511 c12 -22 24 -38 26 -36 5 4 -37 75 -44 75 -3 0 6 -18 18
-39z"/>
<path d="M4081 2498 c-16 -49 -19 -170 -4 -175 8 -3 13 11 15 39 3 37 7 43 27
46 28 4 41 -12 41 -50 0 -30 14 -38 23 -13 8 20 -20 125 -42 155 -27 37 -47
37 -60 -2z m49 -29 c11 -26 11 -32 -1 -40 -24 -15 -29 -10 -29 31 0 48 13 52
30 9z"/>
<path d="M3866 2470 c8 -57 31 -160 38 -167 10 -11 26 10 27 35 0 15 4 35 8
46 6 15 10 10 21 -23 32 -98 61 -66 59 66 -1 82 -2 85 -11 43 -24 -113 -22
-112 -44 -45 -25 79 -47 81 -54 5 l-5 -55 -8 37 c-4 21 -14 52 -22 70 l-15 33
6 -45z"/>
<path d="M750 2490 c0 -5 5 -10 11 -10 5 0 7 5 4 10 -3 6 -8 10 -11 10 -2 0
-4 -4 -4 -10z"/>
<path d="M2765 2465 c39 -32 55 -32 25 0 -13 14 -31 25 -39 25 -11 0 -6 -8 14
-25z"/>
<path d="M736 2453 c-6 -14 -5 -15 5 -6 7 7 10 15 7 18 -3 3 -9 -2 -12 -12z"/>
<path d="M2045 2451 c-26 -11 -58 -47 -54 -60 2 -6 21 7 42 29 20 22 36 40 35
39 -2 0 -12 -4 -23 -8z"/>
<path d="M2318 2351 c49 -105 65 -124 39 -46 -13 38 -74 145 -83 145 -1 0 19
-45 44 -99z"/>
<path d="M2845 2419 c-16 -4 -46 -6 -66 -3 -43 7 -126 -27 -171 -69 -48 -45
-31 -47 39 -6 51 29 79 39 113 39 41 0 130 31 130 45 0 6 -7 6 -45 -6z"/>
<path d="M1995 2371 l-50 -6 33 -17 c24 -13 40 -14 65 -7 35 10 78 5 150 -18
70 -22 68 -10 -4 26 -64 32 -88 35 -194 22z"/>
<path d="M4374 2355 c-9 -22 5 -38 22 -24 18 15 18 25 -1 33 -9 3 -18 -1 -21
-9z"/>
<path d="M685 2349 c-4 -6 -5 -12 -2 -15 2 -3 7 2 10 11 7 17 1 20 -8 4z"/>
<path d="M4280 2337 c0 -21 12 -28 27 -16 19 16 16 29 -7 29 -11 0 -20 -6 -20
-13z"/>
<path d="M666 2304 c-4 -9 -4 -19 -1 -22 2 -3 7 3 11 12 4 9 4 19 1 22 -2 3
-7 -3 -11 -12z"/>
<path d="M4546 2245 c-9 -26 -7 -32 5 -12 6 10 9 21 6 23 -2 3 -7 -2 -11 -11z"/>
<path d="M622 2171 c-7 -21 -12 -45 -11 -52 0 -8 7 8 15 35 9 26 13 50 11 52
-2 2 -9 -13 -15 -35z"/>
<path d="M4517 2183 c-4 -3 -7 -11 -7 -17 0 -6 5 -5 12 2 6 6 9 14 7 17 -3 3
-9 2 -12 -2z"/>
<path d="M4482 2119 c-7 -11 -18 -17 -24 -13 -7 5 -8 3 -3 -5 6 -10 13 -8 28
8 12 11 19 23 16 25 -3 3 -10 -4 -17 -15z"/>
<path d="M2393 2081 c1 -29 8 -48 19 -55 23 -14 36 1 14 17 -10 7 -22 29 -26
47 -9 35 -9 34 -7 -9z"/>
<path d="M602 2080 c0 -14 2 -19 5 -12 2 6 2 18 0 25 -3 6 -5 1 -5 -13z"/>
<path d="M4445 2069 c-4 -6 -5 -12 -2 -15 2 -3 7 2 10 11 7 17 1 20 -8 4z"/>
<path d="M2470 2030 c0 -5 7 -7 15 -4 8 4 15 8 15 10 0 2 -7 4 -15 4 -8 0 -15
-4 -15 -10z"/>
<path d="M4409 2023 c-13 -16 -12 -17 4 -4 9 7 17 15 17 17 0 8 -8 3 -21 -13z"/>
<path d="M2610 2020 c0 -17 -102 -40 -181 -40 -47 0 -91 6 -114 16 -20 8 -44
13 -53 11 -15 -3 -14 -5 3 -12 11 -5 47 -31 80 -57 l60 -49 74 5 c83 5 106 20
136 86 11 24 26 41 39 43 14 3 10 5 -11 6 -18 0 -33 -3 -33 -9z m-75 -65 c-33
-15 -129 -18 -160 -5 -13 5 1 6 35 3 30 -2 73 0 95 5 56 14 65 13 30 -3z"/>
<path d="M4350 1963 l-35 -36 32 23 c18 13 34 29 37 37 7 18 5 17 -34 -24z"/>
<path d="M4223 1875 c0 -8 4 -12 9 -9 5 3 6 10 3 15 -9 13 -12 11 -12 -6z"/>
<path d="M4170 1840 c-19 -11 -31 -19 -27 -20 11 0 67 29 67 35 0 7 -1 7 -40
-15z"/>
<path d="M4110 1810 c-9 -6 -10 -10 -3 -10 6 0 15 5 18 10 8 12 4 12 -15 0z"/>
<path d="M3918 1763 c7 -3 16 -2 19 1 4 3 -2 6 -13 5 -11 0 -14 -3 -6 -6z"/>
<path d="M562 1735 c0 -16 2 -22 5 -12 2 9 2 23 0 30 -3 6 -5 -1 -5 -18z"/>
<path d="M3893 1710 c0 -25 2 -35 4 -22 2 12 2 32 0 45 -2 12 -4 2 -4 -23z"/>
<path d="M3882 1550 c0 -19 2 -27 5 -17 2 9 2 25 0 35 -3 9 -5 1 -5 -18z"/>
<path d="M581 1514 c0 -11 3 -14 6 -6 3 7 2 16 -1 19 -3 4 -6 -2 -5 -13z"/>
<path d="M3069 1471 c-138 -47 -320 -129 -334 -151 -9 -14 -5 -13 76 21 41 16
115 46 164 65 183 70 280 114 250 114 -6 0 -76 -22 -156 -49z"/>
<path d="M3861 1439 c-7 -34 -10 -63 -8 -65 2 -3 10 23 17 56 7 33 11 63 8 65
-2 2 -10 -23 -17 -56z"/>
<path d="M3640 1463 c39 -53 53 -160 46 -353 -11 -316 -41 -524 -137 -934 -21
-93 -39 -171 -39 -172 0 -2 6 -4 14 -4 7 0 16 10 19 22 3 13 19 76 36 140 63
243 131 640 131 771 0 33 18 86 52 150 5 9 6 17 3 17 -3 0 -15 -19 -25 -42
l-20 -43 6 70 c12 161 -28 369 -77 395 -29 16 -31 12 -9 -17z"/>
<path d="M601 1444 c0 -11 3 -14 6 -6 3 7 2 16 -1 19 -3 4 -6 -2 -5 -13z"/>
<path d="M2411 1438 c-5 -13 -16 -41 -25 -63 -25 -64 -81 -264 -136 -485 -65
-262 -58 -241 -162 -475 -50 -110 -95 -211 -100 -225 -9 -22 -14 -10 -43 100
-18 69 -47 163 -63 210 -54 149 -125 331 -128 327 -2 -2 25 -100 62 -218 36
-118 79 -266 96 -329 16 -63 35 -121 40 -127 7 -9 2 -33 -16 -80 -14 -36 -24
-69 -21 -71 15 -15 39 26 109 186 69 157 96 203 96 160 0 -19 50 -78 80 -93
44 -23 57 -18 19 8 -43 29 -99 111 -99 146 1 21 5 16 28 -29 34 -69 81 -103
135 -98 20 2 37 3 37 3 0 0 -10 -25 -21 -55 -12 -30 -34 -94 -49 -142 -25 -78
-26 -88 -11 -88 13 0 29 38 70 161 34 105 64 179 87 211 19 28 37 61 40 74 6
24 24 34 24 13 0 -20 42 -70 82 -99 25 -19 65 -71 116 -152 108 -171 134 -208
155 -208 9 0 17 2 17 4 0 2 -29 47 -65 99 -36 52 -65 99 -65 104 0 4 15 15 32
23 17 9 43 31 57 50 l25 35 -29 -26 c-56 -50 -102 -62 -125 -34 -11 13 -8 15
14 15 15 0 38 7 52 17 26 17 64 81 64 108 0 25 13 17 44 -27 17 -23 97 -113
179 -200 118 -126 154 -158 175 -158 26 0 25 1 -17 44 l-44 45 37 123 c20 68
49 181 66 253 29 130 85 484 77 491 -2 3 -12 -33 -21 -78 -52 -244 -110 -497
-141 -608 -18 -69 -35 -133 -37 -144 -2 -14 -28 8 -103 90 -140 151 -205 229
-205 242 0 7 -4 12 -8 12 -18 0 -50 79 -57 140 -9 96 -51 306 -79 396 -13 43
-42 138 -63 209 -49 162 -67 204 -90 211 -10 3 -26 10 -35 15 -29 15 -48 10
-57 -13z m49 -37 c0 -8 -10 -26 -23 -40 -13 -15 -33 -63 -47 -111 -13 -47 -29
-96 -37 -110 -9 -16 -12 -18 -8 -5 4 11 22 81 41 155 45 176 42 169 60 146 8
-11 14 -27 14 -35z m40 26 c0 -1 25 -74 56 -162 68 -195 63 -177 119 -465 33
-167 55 -254 76 -299 35 -77 33 -101 -17 -160 -26 -30 -43 -41 -63 -41 -39 0
-113 62 -166 140 l-45 65 1 180 c2 351 4 434 11 427 8 -8 64 -206 75 -267 7
-38 8 -36 11 26 2 52 -3 82 -29 155 -17 49 -36 95 -42 102 -11 14 -17 222 -6
222 3 0 18 -51 33 -112 24 -101 84 -270 85 -242 2 35 -91 350 -109 369 -20 21
-26 46 -13 58 6 7 23 10 23 4z m-48 -174 c-2 -71 -7 -101 -18 -109 -8 -6 -28
-53 -44 -104 -24 -73 -30 -111 -29 -174 0 -92 13 -79 23 24 7 75 47 230 58
230 5 0 6 -55 2 -122 -3 -68 -9 -211 -13 -318 -9 -211 -16 -244 -71 -330 -27
-42 -37 -50 -62 -50 -62 0 -120 56 -147 141 -11 34 -9 43 23 110 42 90 77 199
112 344 14 61 28 112 30 114 4 5 0 -59 -11 -154 -9 -79 16 -7 35 99 10 56 29
138 43 182 14 44 28 97 32 119 8 47 25 95 34 95 3 0 5 -44 3 -97z"/>
<path d="M1810 1401 c36 -21 435 -74 418 -56 -10 11 -352 65 -408 64 -19 0
-21 -2 -10 -8z"/>
<path d="M610 1395 c0 -5 5 -17 10 -25 5 -8 10 -10 10 -5 0 6 -5 17 -10 25 -5
8 -10 11 -10 5z"/>
<path d="M641 1315 c0 -5 8 -26 19 -45 11 -19 19 -30 19 -25 0 6 -8 26 -19 45
-11 19 -19 31 -19 25z"/>
<path d="M3822 1283 c-15 -48 -8 -55 8 -8 7 20 10 38 8 41 -3 2 -10 -13 -16
-33z"/>
<path d="M1225 1218 c-28 -94 -14 -226 46 -458 45 -169 81 -272 174 -490 110
-259 116 -270 136 -270 16 0 14 8 -12 66 -50 110 -164 393 -197 489 -46 131
-110 392 -124 498 -8 65 -8 111 -1 155 12 75 0 81 -22 10z"/>
<path d="M691 1210 c0 -8 4 -22 9 -30 12 -18 12 -2 0 25 -6 13 -9 15 -9 5z"/>
<path d="M3791 1184 c0 -11 3 -14 6 -6 3 7 2 16 -1 19 -3 4 -6 -2 -5 -13z"/>
<path d="M750 1046 c0 -11 47 -99 64 -121 9 -11 0 12 -20 50 -41 77 -44 82
-44 71z"/>
<path d="M840 880 c6 -11 13 -20 16 -20 2 0 0 9 -6 20 -6 11 -13 20 -16 20 -2
0 0 -9 6 -20z"/>
<path d="M876 827 c3 -10 9 -15 12 -12 3 3 0 11 -7 18 -10 9 -11 8 -5 -6z"/>
<path d="M927 755 c17 -22 48 -56 70 -75 l38 -35 -30 35 c-17 19 -38 40 -47
48 -20 14 -25 37 -6 26 7 -5 8 -3 4 5 -5 7 -11 10 -14 7 -3 -3 -15 2 -26 11
-11 10 -6 0 11 -22z"/>
<path d="M1070 605 c0 -1 15 -14 32 -31 27 -23 29 -24 10 -3 -12 14 -20 28
-17 31 3 2 -2 5 -10 5 -8 0 -15 -1 -15 -2z"/>
<path d="M1222 478 c30 -26 88 -62 88 -55 0 2 -26 21 -57 41 -32 20 -46 27
-31 14z"/>
</g>
</svg>
