<?xml version="1.0" standalone="no"?>
<!DOCTYPE svg PUBLIC "-//W3C//DTD SVG 20010904//EN"
 "http://www.w3.org/TR/2001/REC-SVG-20010904/DTD/svg10.dtd">
<svg version="1.0" xmlns="http://www.w3.org/2000/svg"
 width="450.000000pt" height="450.000000pt" viewBox="0 0 450.000000 450.000000"
 preserveAspectRatio="xMidYMid meet">

<g transform="translate(0.000000,450.000000) scale(0.100000,-0.100000)"
fill="#000000" stroke="none">
<path d="M1123 2724 c-36 -18 -69 -51 -60 -60 3 -4 18 3 32 14 63 50 140 52
195 5 35 -29 53 -24 24 8 -42 48 -130 63 -191 33z"/>
<path d="M1548 2714 c-27 -15 -48 -33 -48 -41 0 -18 7 -17 41 8 64 45 152 45
194 -1 21 -23 35 -26 35 -7 0 24 -70 60 -123 64 -42 3 -61 -1 -99 -23z"/>
<path d="M2563 2422 c-6 -4 -15 -20 -18 -35 -5 -19 -14 -27 -29 -27 -26 0 -46
-18 -46 -40 0 -32 38 -54 102 -58 l60 -5 -4 73 c-3 56 -8 75 -23 86 -22 16
-26 17 -42 6z m41 -48 c3 -9 6 -29 6 -45 0 -27 -3 -29 -39 -29 -47 0 -73 9
-65 21 3 5 14 5 25 -1 25 -14 41 -4 38 23 -2 37 1 47 15 47 8 0 17 -7 20 -16z"/>
<path d="M3580 2322 c0 -11 -11 -24 -25 -30 -28 -13 -33 -39 -10 -48 9 -4 15
-19 15 -40 0 -38 14 -44 30 -13 9 16 17 19 40 14 35 -8 47 8 27 39 -14 21 -14
26 3 51 23 36 17 47 -18 34 -18 -7 -28 -7 -30 0 -6 18 -32 12 -32 -7z"/>
<path d="M2545 2148 c-132 -48 -185 -215 -93 -293 30 -25 37 -27 96 -21 75 7
94 16 145 64 50 49 48 62 -10 64 -93 3 -147 -6 -141 -24 3 -7 30 -10 78 -9 67
2 72 1 60 -14 -22 -27 -66 -45 -109 -45 -31 0 -49 7 -73 29 -28 25 -33 36 -33
74 0 80 60 134 160 144 37 4 55 10 55 19 0 8 -8 14 -17 14 -10 0 -34 2 -53 5
-19 2 -48 -1 -65 -7z"/>
<path d="M3307 2102 c-31 -32 -35 -47 -11 -38 14 5 16 1 10 -25 -15 -76 -29
-208 -23 -223 10 -26 36 -18 58 18 17 29 27 35 69 41 51 7 120 46 144 80 59
87 -22 174 -160 175 -53 0 -63 -3 -87 -28z m156 -18 c46 -16 87 -56 87 -87 0
-26 -66 -74 -119 -87 -29 -7 -54 -11 -56 -8 -2 2 -1 47 2 101 7 109 6 109 86
81z"/>
<path d="M2833 2095 c-89 -38 -108 -210 -28 -247 22 -10 32 -9 63 8 67 35 90
61 101 115 14 65 -4 115 -46 125 -15 3 -35 7 -43 9 -8 2 -30 -2 -47 -10z m97
-45 c24 -24 25 -58 6 -105 -32 -76 -116 -45 -116 42 0 50 26 83 65 83 14 0 34
-9 45 -20z"/>
<path d="M3092 2090 c-56 -34 -87 -127 -61 -183 37 -80 185 -30 205 70 8 41
-20 98 -57 117 -41 20 -47 20 -87 -4z m100 -67 c21 -19 23 -60 4 -85 -16 -22
-64 -40 -86 -33 -25 8 -54 67 -47 97 12 47 87 59 129 21z"/>
<path d="M3273 1678 c-34 -42 -14 -98 21 -59 19 20 18 62 0 68 -6 2 -16 -2
-21 -9z"/>
<path d="M2176 1665 c-3 -9 -6 -24 -6 -33 0 -22 -59 -116 -68 -108 -3 4 -15
37 -27 74 -20 63 -23 67 -50 65 -15 -1 -32 -6 -36 -10 -14 -14 -31 -156 -25
-208 10 -83 66 -97 66 -16 0 20 3 61 7 91 l6 55 17 -50 c9 -27 21 -50 27 -52
6 -2 28 19 49 47 l39 51 6 -28 c4 -15 15 -63 24 -105 9 -43 21 -78 26 -78 20
0 21 33 5 103 -10 40 -20 103 -24 141 -7 67 -23 94 -36 61z"/>
<path d="M2617 1661 c-27 -9 -53 -25 -59 -35 -12 -22 -4 -136 13 -185 9 -27
16 -32 38 -29 23 3 26 8 29 46 3 38 6 42 30 42 39 0 125 -43 149 -74 24 -30
38 -33 47 -11 3 10 -9 30 -32 53 -34 34 -57 47 -115 66 -17 6 -16 9 12 41 33
38 39 66 19 83 -24 19 -82 20 -131 3z m81 -27 c32 -9 27 -28 -18 -64 l-40 -32
0 45 c0 40 7 53 30 56 3 0 15 -2 28 -5z"/>
<path d="M2385 1651 c-56 -16 -105 -91 -105 -161 0 -33 6 -48 29 -71 16 -16
36 -29 45 -29 23 0 90 37 114 63 43 46 56 128 25 166 -20 24 -76 41 -108 32z
m76 -52 c41 -41 8 -149 -46 -149 -51 0 -83 62 -60 117 23 54 70 68 106 32z"/>
<path d="M3140 1623 c-33 -37 -80 -126 -80 -151 0 -29 -19 2 -50 83 -18 50
-37 84 -43 82 -20 -6 -36 -51 -47 -128 -12 -85 -1 -122 34 -117 18 3 22 12 26
58 l5 55 27 -58 c15 -32 33 -57 39 -55 7 2 20 30 31 63 21 67 56 131 87 159
21 19 28 46 12 46 -5 0 -23 -17 -41 -37z"/>
<path d="M3403 1640 c-20 -8 -23 -17 -24 -72 -1 -35 -4 -76 -8 -93 -7 -31 7
-95 20 -95 14 0 37 43 44 83 4 20 10 37 14 37 3 0 13 -21 21 -47 16 -50 36
-66 46 -36 19 57 33 83 77 141 27 35 46 66 43 69 -10 10 -35 -17 -85 -93 -49
-72 -49 -73 -60 -46 -14 36 -33 112 -35 137 -1 23 -21 28 -53 15z"/>
<path d="M3734 1621 c-43 -26 -74 -80 -74 -127 0 -76 49 -106 104 -63 l26 20
-7 -33 c-20 -106 -66 -167 -117 -154 -15 4 -32 18 -38 31 -14 31 -23 31 -44 0
-15 -23 -15 -27 0 -50 19 -28 86 -50 130 -41 42 9 63 31 80 85 23 74 36 315
18 332 -19 17 -50 17 -78 0z m58 -88 c-4 -40 -35 -93 -48 -80 -14 14 -7 93 11
121 16 24 20 26 30 13 6 -8 9 -32 7 -54z"/>
<path d="M3222 1555 c-44 -55 -53 -157 -16 -172 23 -9 63 6 74 27 14 26 3 45
-16 29 -24 -20 -28 -2 -13 58 7 32 13 62 14 67 0 21 -24 15 -43 -9z"/>
<path d="M3981 1309 c-11 -12 -23 -34 -26 -49 -5 -22 -10 -26 -30 -22 -28 5
-75 -36 -75 -66 0 -32 17 -40 132 -66 25 -6 29 -2 43 31 54 128 24 244 -44
172z m48 -63 c0 -17 -6 -47 -13 -66 -12 -33 -15 -35 -52 -31 -54 4 -84 18 -84
37 0 14 7 16 49 10 54 -7 63 1 54 47 -3 15 0 34 7 42 18 22 40 0 39 -39z"/>
<path d="M2643 1281 c-3 -11 -20 -23 -44 -30 -49 -15 -50 -33 -3 -50 26 -9 33
-16 25 -24 -6 -6 -11 -17 -11 -24 0 -10 6 -10 25 3 24 16 27 16 45 -1 29 -27
47 -7 31 33 -7 16 -9 41 -5 56 5 22 3 25 -10 20 -12 -5 -19 0 -23 15 -7 26
-23 27 -30 2z"/>
</g>
</svg>
