<?xml version="1.0" encoding="iso-8859-1"?>
<!-- Uploaded to: SVG Repo, www.svgrepo.com, Generator: SVG Repo Mixer Tools -->
<!DOCTYPE svg PUBLIC "-//W3C//DTD SVG 1.1//EN" "http://www.w3.org/Graphics/SVG/1.1/DTD/svg11.dtd">
<svg fill="#000000" height="800px" width="800px" version="1.1" id="Capa_1" xmlns="http://www.w3.org/2000/svg" xmlns:xlink="http://www.w3.org/1999/xlink" 
	 viewBox="0 0 487.674 487.674" xml:space="preserve">
<g>
	<path d="M454.585,472.674h-50.976v-15.367c0-35.193-9.385-62.355-27.895-80.733c-23.198-23.033-52.226-23.474-54.323-23.474
		c-0.035,0-0.064,0-0.083,0h-37.571v-22.734c0-0.396-0.04-0.783-0.1-1.163c24.058-9.94,39.262-26.521,48.52-40.896
		c14.433-22.41,17.689-43.977,17.819-44.884c0.052-0.356,0.078-0.716,0.078-1.076v-1.606c5.268-1.299,9.851-4.018,13.49-8.047
		c10.618-11.757,10.002-30.306,9.243-37.733c-0.576-5.654-3.134-10.399-7.397-13.723c-4.663-3.635-10.551-4.905-15.336-5.259
		v-24.342c0.005-1.459-0.13-29.181-15.288-55.718c0.879,0.048,1.764,0.077,2.654,0.077c26.466,0,47.998-21.532,47.998-47.998
		S363.887,0,337.421,0c-26.466,0-47.998,21.532-47.998,47.998c0,2.856,0.266,5.65,0.746,8.371
		c-13.438-5.542-28.832-8.356-46.1-8.356c-53.726,0-79.901,28.281-92.397,52.007c-13.311,25.271-14.027,50.274-14.051,51.326
		c-0.001,0.074-0.003,0.148-0.002,0.222c0,0.016,0,0.03,0,0.045v24.352c-4.815,0.336-10.792,1.593-15.514,5.272
		c-4.263,3.322-6.822,8.067-7.399,13.723c-0.757,7.429-1.373,25.977,9.245,37.734c3.679,4.073,8.326,6.804,13.667,8.085v1.567
		c0,0.36,0.026,0.72,0.078,1.076c0.131,0.907,3.387,22.474,17.82,44.884c9.258,14.375,24.462,30.956,48.519,40.896
		c-0.059,0.38-0.099,0.767-0.099,1.163v22.734h-37.518c-1.244-0.011-30.87,0.051-54.46,23.474
		c-18.509,18.377-27.894,45.539-27.894,80.733v15.367H33.089c-4.142,0-7.5,3.357-7.5,7.5c0,4.143,3.358,7.5,7.5,7.5h421.496
		c4.143,0,7.5-3.357,7.5-7.5C462.085,476.031,458.728,472.674,454.585,472.674z M321.362,368.101c0.002,0,0.005,0,0.009,0
		c0.591,0,24.707,0.186,43.775,19.118c15.569,15.457,23.463,39.038,23.463,70.088v15.367H264.82v-53.052l0.578,0.189
		c0.764,0.249,1.548,0.369,2.324,0.369c2.139,0,4.221-0.916,5.67-2.59l7.82-9.029l13.592-8.308c2.627-1.606,4.006-4.655,3.477-7.689
		l-4.271-24.463H321.362z M208.017,378.178c5.425,11.023,15.789,19.19,28.187,21.602l-12.959,4.227l-5.323-6.146
		c-0.506-0.584-1.099-1.086-1.758-1.489l-10.231-6.254L208.017,378.178z M280.298,376.775l2.329,13.341l-10.232,6.254
		c-0.658,0.403-1.252,0.905-1.757,1.489l-5.323,6.146l-13.293-4.335C264.688,397.017,275.157,388.335,280.298,376.775z
		 M244.28,412.924l5.54,1.807v57.943h-11.491v-57.81L244.28,412.924z M356.187,193.081c0.716,0.564,1.477,1.408,1.68,3.401
		c0.892,8.739-0.072,20.2-5.453,26.157c-0.721,0.798-1.509,1.456-2.358,2.009v-33.598
		C352.38,191.32,354.707,191.918,356.187,193.081z M304.423,47.998c0-18.195,14.803-32.998,32.998-32.998
		c18.195,0,32.998,14.803,32.998,32.998s-14.803,32.998-32.998,32.998c-6.779,0-13.086-2.057-18.332-5.576
		c-2.177-2.147-4.44-4.182-6.805-6.078C307.388,63.583,304.423,56.133,304.423,47.998z M164.943,107.011
		c15.378-29.194,41.999-43.997,79.126-43.997c23.645,0,42.961,5.755,57.768,17.159c2.301,2.543,4.877,4.829,7.669,6.833
		c5.421,5.553,10.076,12.055,13.939,19.515c6.392,12.343,9.265,24.86,10.557,33.562c-26.86-13.367-34.327-37.525-34.659-38.644
		c-0.749-2.603-2.843-4.599-5.478-5.223c-2.637-0.624-5.402,0.221-7.238,2.209c-42.6,46.116-111.073,47.155-133.362,46.152
		C154.357,136.206,157.265,121.589,164.943,107.011z M199.335,157.053c36.409-5.625,67.36-19.533,90.26-40.449
		c6.213,11.86,19.556,30.325,45.46,40.316v10.138c-7.064-1.876-18.288-4.062-32.287-4.062c-12.931,0-25.859,1.865-38.427,5.543
		c-2.374,0.695-4.253,2.517-5.021,4.868c-0.157,0.48-2.016,6.318-2.579,14.008c-10.503-2.355-19.641-1.545-26.205-0.112
		c-0.573-7.634-2.414-13.417-2.57-13.896c-0.769-2.352-2.647-4.173-5.022-4.868c-12.567-3.678-25.495-5.543-38.427-5.543
		c-13.744,0-24.814,2.106-31.898,3.959v-7.359C162.234,160.062,179.26,160.154,199.335,157.053z M332.689,181.969
		c-1.754,29.063-8.633,30.524-27.836,30.524c-3.65,0-7.918-0.14-13.838-0.452c-7.837-0.415-13.114-2.744-16.134-7.123
		c-4.463-6.472-3.575-16.826-2.268-23.098c9.911-2.54,20.035-3.825,30.154-3.825C316.301,177.995,326.893,180.323,332.689,181.969z
		 M212.404,204.918c-3.019,4.379-8.296,6.708-16.134,7.123c-5.92,0.313-10.188,0.452-13.837,0.452
		c-19.208,0-26.085-1.462-27.837-30.541c5.757-1.645,16.278-3.957,29.921-3.957c10.119,0,20.242,1.285,30.153,3.825
		C215.98,188.102,216.865,198.449,212.404,204.918z M135.083,222.641c-5.38-5.958-6.345-17.419-5.454-26.158
		c0.203-1.993,0.963-2.838,1.68-3.401c1.518-1.192,3.926-1.793,6.309-2.051v33.729C136.701,224.188,135.854,223.494,135.083,222.641
		z M168.427,280.647c-11.735-18.011-15.267-35.843-15.808-38.914v-21.967c6.651,5.543,16.243,7.727,29.814,7.727
		c3.923,0,8.436-0.145,14.629-0.474c12.651-0.669,21.983-5.261,27.735-13.65c2.191-3.196,3.631-6.69,4.546-10.238
		c4.775-1.646,15.511-4.166,28.641,0.167c0.917,3.49,2.347,6.925,4.504,10.071c5.752,8.389,15.084,12.98,27.735,13.65
		c6.192,0.328,10.705,0.474,14.629,0.474c0.002,0-0.001,0,0.001,0c13.83,0,23.538-2.26,30.201-8.042v22.28
		c-0.548,3.108-4.085,20.922-15.808,38.915c-16.809,25.798-41.946,39.984-74.713,42.169h-1.394
		C210.373,320.631,185.235,306.444,168.427,280.647z M242.409,337.8c0.162,0.011,0.323,0.016,0.485,0.016h1.886
		c0.162,0,0.324-0.005,0.485-0.016c8.5-0.551,16.299-1.832,23.473-3.668v26.296c-0.002,0.064-0.01,0.128-0.01,0.193
		c0,13.729-11.168,24.898-24.896,24.898c-13.727,0-24.895-11.169-24.895-24.898c0-0.004-0.001-0.007-0.001-0.007
		c0-0.007,0.001-0.011,0.001-0.011v-26.472C226.11,335.968,233.91,337.249,242.409,337.8z M99.064,457.307
		c0-88.178,64.527-89.205,67.301-89.206h28.184l-4.271,24.463c-0.53,3.034,0.849,6.083,3.477,7.689l13.591,8.308l7.82,9.029
		c1.45,1.674,3.531,2.59,5.67,2.59c0.776,0,1.56-0.12,2.324-0.369l0.168-0.055v52.918H99.064V457.307z"/>
	<circle cx="190.6" cy="194.012" r="8.952"/>
	<circle cx="297.074" cy="194.012" r="8.952"/>
	<path d="M242.537,242.394h2.6c8.026,0,14.556-6.529,14.556-14.556c0-4.143-3.357-7.5-7.5-7.5c-3.993,0-7.257,3.12-7.487,7.056
		h-1.737c-0.229-3.936-3.494-7.056-7.487-7.056c-4.142,0-7.5,3.357-7.5,7.5C227.981,235.864,234.511,242.394,242.537,242.394z"/>
	<path d="M324.59,451.5h23.055c4.143,0,7.5-3.357,7.5-7.5c0-4.142-3.357-7.5-7.5-7.5H324.59c-4.142,0-7.5,3.358-7.5,7.5
		C317.09,448.143,320.447,451.5,324.59,451.5z"/>
	<path d="M290.331,272.737c2.601-3.224,2.095-7.945-1.13-10.546c-3.225-2.601-7.946-2.096-10.546,1.13
		c-0.08,0.099-9.089,9.939-32.971,9.939c-24.794,0-36.889-10.282-37.493-10.811c-3.061-2.752-7.775-2.52-10.553,0.527
		c-2.791,3.061-2.571,7.805,0.489,10.595c0.658,0.6,16.468,14.689,47.557,14.689C276.91,288.26,289.05,274.326,290.331,272.737z"/>
</g>
</svg>