<?xml version="1.0" encoding="iso-8859-1"?>
<!-- Uploaded to: SVG Repo, www.svgrepo.com, Generator: SVG Repo Mixer Tools -->
<svg height="800px" width="800px" version="1.1" id="Layer_1" xmlns="http://www.w3.org/2000/svg" xmlns:xlink="http://www.w3.org/1999/xlink" 
	 viewBox="0 0 512 512" xml:space="preserve">
<circle style="fill:#FFB44A;" cx="149.102" cy="196.304" r="138.903"/>
<g>
	<circle style="fill:#DFA14F;" cx="75.398" cy="152.967" r="23.254"/>
	<circle style="fill:#DFA14F;" cx="127.888" cy="115.363" r="14.899"/>
</g>
<path style="fill:#D6D6D6;" d="M429.248,335.259c40.07,0,72.553-32.483,72.553-72.553s-32.483-72.553-72.553-72.553
	c-3.738,0-7.409,0.284-10.994,0.829c-0.028-34.461-27.971-62.39-62.439-62.39c-14.504,0-27.842,4.959-38.442,13.256
	c-15.85-20.374-40.597-33.483-68.408-33.483c-46.389,0-84.26,36.465-86.516,82.294c-2.778-0.323-5.597-0.507-8.462-0.507
	c-40.07,0-72.553,32.483-72.553,72.553s32.483,72.553,72.553,72.553H429.248z"/>
<g>
	<path style="fill:#3D3D3D;" d="M98.937,176.736c13.107-12.98,13.21-34.202,0.23-47.309c-12.979-13.106-34.203-13.21-47.309-0.23
		c-6.349,6.288-9.87,14.672-9.914,23.607c-0.044,8.936,3.395,17.353,9.683,23.702c6.532,6.596,15.15,9.898,23.771,9.898
		C83.91,186.403,92.426,183.183,98.937,176.736z M66.122,162.152c-2.454-2.477-3.796-5.763-3.779-9.25
		c0.017-3.486,1.391-6.758,3.869-9.212c2.462-2.439,5.721-3.779,9.184-3.779c0.021,0,0.043,0,0.065,0
		c3.487,0.017,6.758,1.391,9.212,3.869s3.796,5.763,3.779,9.25c-0.017,3.487-1.391,6.758-3.869,9.212
		c-2.462,2.439-5.721,3.779-9.184,3.779c-0.021,0-0.043,0-0.065,0C71.847,166.004,68.575,164.63,66.122,162.152z"/>
	<path style="fill:#3D3D3D;" d="M127.891,140.448c6.386,0,12.773-2.415,17.659-7.253c0,0,0,0,0-0.001
		c9.833-9.738,9.911-25.661,0.172-35.494c-4.717-4.763-11.007-7.405-17.711-7.437c-0.042,0-0.084,0-0.126,0
		c-6.657,0-12.923,2.577-17.657,7.265c-4.764,4.717-7.406,11.007-7.438,17.712c-0.033,6.704,2.548,13.019,7.265,17.783
		C114.956,137.969,121.423,140.448,127.891,140.448z M124.582,112.02c1.191-1.18,2.575-1.36,3.308-1.36c0.007,0,0.015,0,0.021,0
		c0.727,0.003,2.124,0.19,3.317,1.393c1.824,1.841,1.808,4.823-0.032,6.647c-1.842,1.825-4.824,1.808-6.648-0.033
		c-1.191-1.204-1.364-2.603-1.36-3.33C123.193,114.611,123.379,113.214,124.582,112.02z"/>
	<path style="fill:#3D3D3D;" d="M186.645,345.458v108.514c0,5.633,4.566,10.199,10.199,10.199c5.633,0,10.199-4.566,10.199-10.199
		V345.458h77.38v108.514c0,5.633,4.566,10.199,10.199,10.199s10.199-4.566,10.199-10.199V345.458h76.763v109.131
		c0,5.633,4.566,10.199,10.199,10.199s10.199-4.566,10.199-10.199V345.458h27.263c45.629,0,82.752-37.122,82.752-82.752
		s-37.122-82.752-82.752-82.752c-0.546,0-1.09,0.005-1.636,0.016c-5.345-34.818-35.516-61.576-71.796-61.576
		c-13.074,0-25.573,3.402-36.643,9.913c-15.229-16.085-35.245-26.317-57.08-29.256c-28.396-32.973-69.417-51.838-112.994-51.838
		C66.885,47.211,0,114.096,0,196.309s66.885,149.098,149.098,149.098L186.645,345.458z M20.398,196.309
		c0-70.965,57.735-128.7,128.7-128.7c31.456,0,61.371,11.39,84.663,31.765c-41.261,6.494-74.006,38.969-80.462,80.582
		c-45.316,0.369-82.065,37.348-82.065,82.749c0,16.542,4.898,31.952,13.292,44.894C46.21,285.282,20.398,243.755,20.398,196.309z
		 M429.248,325.059H153.987c-34.382,0-62.354-27.971-62.354-62.354s27.971-62.354,62.354-62.354c2.358,0,4.741,0.144,7.285,0.44
		c2.805,0.328,5.618-0.524,7.771-2.35c2.153-1.825,3.454-4.461,3.593-7.28c2.004-40.708,35.532-72.597,76.33-72.597
		c23.751,0,45.751,10.769,60.358,29.546c1.665,2.139,4.111,3.528,6.801,3.86c2.686,0.329,5.4-0.42,7.535-2.091
		c9.268-7.254,20.387-11.089,32.156-11.089c28.782,0,52.216,23.415,52.239,52.197c0.002,2.971,1.3,5.793,3.554,7.73
		c2.253,1.936,5.236,2.792,8.178,2.346c3.116-0.473,6.299-0.714,9.462-0.714c34.382,0,62.354,27.972,62.354,62.354
		S463.63,325.059,429.248,325.059z"/>
	<path style="fill:#3D3D3D;" d="M393.607,291.697H284.558c-5.633,0-10.199,4.566-10.199,10.199s4.566,10.199,10.199,10.199h109.049
		c5.633,0,10.199-4.566,10.199-10.199S399.24,291.697,393.607,291.697z"/>
	<path style="fill:#3D3D3D;" d="M432.446,291.697h-4.397c-5.633,0-10.199,4.566-10.199,10.199s4.566,10.199,10.199,10.199h4.397
		c5.633,0,10.199-4.566,10.199-10.199S438.079,291.697,432.446,291.697z"/>
	<path style="fill:#3D3D3D;" d="M343.501,369.694c-5.633,0-10.199,4.566-10.199,10.199v61.732c0,5.633,4.566,10.199,10.199,10.199
		s10.199-4.566,10.199-10.199v-61.732C353.7,374.26,349.133,369.694,343.501,369.694z"/>
	<path style="fill:#3D3D3D;" d="M245.104,370.311c-5.633,0-10.199,4.566-10.199,10.199v61.733c0,5.633,4.566,10.199,10.199,10.199
		s10.199-4.566,10.199-10.199V380.51C255.303,374.877,250.737,370.311,245.104,370.311z"/>
</g>
</svg>