<?xml version="1.0" standalone="no"?>
<!DOCTYPE svg PUBLIC "-//W3C//DTD SVG 20010904//EN"
 "http://www.w3.org/TR/2001/REC-SVG-20010904/DTD/svg10.dtd">
<svg version="1.0" xmlns="http://www.w3.org/2000/svg"
 width="700.000000pt" height="526.000000pt" viewBox="0 0 700.000000 526.000000"
 preserveAspectRatio="xMidYMid meet">

<g transform="translate(0.000000,526.000000) scale(0.100000,-0.100000)"
fill="#000000" stroke="none">
<path d="M1711 3936 c-15 -18 2 -56 24 -56 13 0 15 -41 15 -284 0 -271 -1
-285 -19 -291 -28 -9 -32 -31 -10 -58 11 -14 19 -41 19 -61 0 -34 2 -36 33
-35 17 1 24 3 14 6 -9 2 -15 9 -12 14 4 5 2 9 -4 9 -5 0 -12 -6 -15 -12 -3 -7
-4 4 -3 25 1 43 -29 39 256 38 107 -1 197 -3 199 -6 3 -3 -28 -6 -69 -7 l-74
-1 55 -7 55 -7 -57 -1 c-33 -1 -58 2 -58 8 0 6 -8 10 -17 9 -11 0 -13 -3 -5
-6 6 -2 12 -9 12 -14 0 -6 -4 -7 -10 -4 -6 4 -10 -5 -10 -19 0 -25 2 -26 70
-26 39 0 70 4 70 9 0 4 -11 6 -25 3 -14 -2 -25 0 -25 5 0 5 14 9 30 8 24 -1
30 2 31 19 1 17 2 18 6 4 2 -10 9 -18 14 -18 5 0 9 -5 9 -11 0 -6 -7 -9 -15
-5 -8 3 -15 1 -15 -4 0 -6 9 -10 20 -10 17 0 20 7 20 45 0 25 5 45 10 45 6 0
10 -20 10 -45 l0 -46 93 3 92 3 0 37 c0 21 3 38 8 38 4 0 47 0 95 0 l88 0 1
-37 2 -38 -10 33 c-5 17 -14 32 -20 32 -6 0 -6 -7 1 -19 17 -32 12 -40 -27
-44 -31 -3 -29 -4 15 -5 l52 -2 0 46 c0 38 3 45 16 40 9 -3 54 -6 100 -6 73 0
84 -2 84 -17 0 -15 -2 -16 -10 -3 -8 13 -10 13 -10 -2 0 -9 5 -18 12 -20 6 -2
8 -10 4 -16 -10 -16 -86 -16 -86 1 0 8 -2 9 -8 1 -4 -7 -16 -14 -27 -17 -11
-2 8 -5 42 -6 34 0 68 -4 77 -7 13 -5 16 2 16 45 0 28 5 51 10 51 6 0 10 -23
10 -50 l0 -50 86 4 c47 3 89 7 92 10 3 4 0 6 -6 6 -7 0 -12 5 -12 11 0 5 5 7
10 4 6 -4 10 6 10 23 0 32 7 43 24 36 7 -3 11 -21 9 -47 -2 -32 0 -36 5 -17 8
25 52 43 52 21 0 -6 -6 -8 -14 -5 -8 3 -17 1 -21 -5 -3 -7 2 -11 14 -11 12 0
21 -7 21 -15 0 -16 22 -19 83 -9 36 6 37 8 37 48 l0 41 115 0 115 0 0 -42 0
-43 89 0 90 0 3 41 3 42 95 -2 c105 -3 138 -11 42 -11 -39 0 -62 -4 -65 -12
-4 -10 -6 -10 -6 0 -1 6 -10 12 -21 12 -16 0 -20 -7 -20 -35 l0 -35 90 0 90 0
0 45 c0 25 3 45 8 45 12 0 38 -20 26 -20 -7 0 -12 -15 -12 -35 l0 -35 97 2
c58 1 75 3 44 5 -29 2 -53 8 -53 13 0 5 -8 11 -17 13 -16 4 -16 5 -1 6 9 0 20
-3 23 -9 9 -15 27 -12 19 3 -6 10 -4 10 7 0 18 -17 29 -16 29 2 0 8 8 15 18
14 10 0 12 -3 5 -6 -18 -7 -16 -23 2 -23 9 0 15 9 15 25 0 22 -4 25 -37 25
-28 0 -34 -3 -23 -10 11 -7 3 -10 -30 -10 -61 0 -82 -14 -44 -28 l29 -10 -37
-1 c-36 -1 -37 -1 -28 30 5 18 11 33 13 35 2 3 89 5 193 5 152 1 189 -2 190
-12 3 -41 6 -53 11 -41 5 13 43 17 43 3 0 -4 21 -7 47 -6 65 3 89 -9 33 -16
l-45 -6 48 -1 47 -2 0 45 c0 25 5 45 10 45 6 0 10 -20 10 -44 l0 -43 48 0 c26
0 35 2 20 4 -36 5 -37 33 -2 33 14 0 23 -4 20 -9 -7 -11 55 -8 74 4 9 5 11 4
6 -3 -4 -7 -1 -12 6 -13 7 0 4 -4 -7 -9 -20 -9 -20 -9 1 -9 16 -1 20 5 21 34
l1 35 -71 -2 -72 -1 65 -7 c72 -7 63 -14 -15 -10 -27 1 -51 6 -53 11 -2 5 -8
9 -14 9 -7 0 -7 -5 1 -13 8 -10 7 -19 -3 -33 -13 -17 -14 -15 -14 19 l0 37 83
0 c46 0 90 3 99 6 13 5 16 -2 16 -40 l0 -46 90 0 c89 0 90 0 90 25 0 14 -5 25
-11 25 -6 0 -3 7 5 16 16 15 88 17 526 15 l86 -1 2 -35 c2 -20 -2 -35 -8 -35
-6 0 -8 5 -5 10 3 6 1 10 -4 10 -6 0 -11 -6 -11 -12 0 -9 -4 -8 -10 2 -6 9
-10 10 -10 3 0 -6 -12 -14 -27 -16 -16 -2 -2 -5 30 -6 l57 -1 0 44 c0 30 5 46
15 50 8 3 15 17 15 30 0 19 -7 27 -25 32 l-26 6 2 283 2 283 24 7 c19 4 24 11
21 33 l-3 27 -1911 3 c-1653 2 -1913 0 -1923 -12z m3753 -336 l1 -265 -1835 0
-1835 0 -3 268 -2 267 1836 -2 1837 -3 1 -265z m-3054 -387 c0 -12 -3 -14 -8
-6 -4 7 -39 13 -82 16 l-75 3 83 2 c72 2 82 0 82 -15z m480 13 c0 -3 -4 -8
-10 -11 -5 -3 -10 -1 -10 4 0 6 5 11 10 11 6 0 10 -2 10 -4z m126 -11 c-8 -8
-17 -15 -20 -15 -3 0 -6 7 -6 15 0 9 9 15 21 15 18 0 19 -2 5 -15z m104 11 c0
-2 -7 -6 -15 -10 -8 -3 -15 -1 -15 4 0 6 7 10 15 10 8 0 15 -2 15 -4z m120
-23 c-1 -26 -1 -27 -12 -8 -6 11 -16 23 -22 27 -6 5 -1 8 12 8 17 0 22 -6 22
-27z m409 10 c0 -11 -3 -13 -6 -5 -6 15 -143 17 -143 1 0 -20 25 -34 58 -33
65 3 68 4 53 13 -11 7 -11 10 0 17 12 7 23 -6 19 -22 -1 -4 4 -10 10 -14 7 -4
-23 -8 -67 -9 l-79 -1 -2 35 -3 35 81 0 c70 0 80 -2 79 -17z m794 10 c-24 -2
-62 -2 -85 0 -24 2 -5 4 42 4 47 0 66 -2 43 -4z m410 0 c-24 -2 -62 -2 -85 0
-24 2 -5 4 42 4 47 0 66 -2 43 -4z m-2530 -35 c9 -8 27 -14 41 -13 14 2 26 -1
26 -6 0 -5 -29 -9 -65 -9 -62 0 -65 1 -65 24 0 20 5 24 24 22 13 -1 31 -9 39
-18z m1397 2 c0 -15 7 -20 28 -20 21 0 24 2 12 10 -11 7 2 10 43 10 48 0 57
-3 57 -17 0 -14 -2 -15 -9 -4 -6 9 -11 10 -15 2 -4 -6 -33 -11 -65 -11 -55 0
-59 2 -63 25 -3 14 -1 25 3 25 5 0 9 -9 9 -20z m633 13 c-7 -2 -19 -2 -25 0
-7 3 -2 5 12 5 14 0 19 -2 13 -5z m124 1 c-3 -3 -12 -4 -19 -1 -8 3 -5 6 6 6
11 1 17 -2 13 -5z m273 -6 c0 -7 -5 -20 -10 -28 -8 -12 -10 -9 -10 13 0 15 5
27 10 27 6 0 10 -6 10 -12z m52 -17 c7 10 11 11 14 2 4 -9 13 -9 30 -2 34 12
41 12 41 -6 0 -11 -13 -15 -54 -15 -52 0 -53 1 -52 28 2 25 2 26 6 3 4 -19 7
-21 15 -10z m-2722 -3 c0 -5 4 -7 9 -3 5 3 12 1 15 -4 3 -5 -10 -9 -29 -9 -32
0 -43 7 -30 20 8 8 35 5 35 -4z m331 -11 c-10 -9 -11 -8 -5 6 3 10 9 15 12 12
3 -3 0 -11 -7 -18z m599 8 c0 -8 -7 -15 -15 -15 -16 0 -20 12 -8 23 11 12 23
8 23 -8z m225 -7 c6 -4 0 -8 -12 -8 -16 0 -21 4 -16 15 3 9 8 12 12 8 3 -4 11
-11 16 -15z m1535 2 c0 -5 -4 -10 -10 -10 -5 0 -10 5 -10 10 0 6 5 10 10 10 6
0 10 -4 10 -10z"/>
<path d="M2097 3784 c-4 -4 -7 -85 -7 -181 l0 -173 243 2 242 3 0 175 0 175
-236 3 c-129 1 -238 -1 -242 -4z m396 -52 c-11 -9 -52 -43 -91 -74 -38 -32
-72 -58 -75 -58 -4 0 -45 34 -92 75 l-86 75 183 0 c175 0 182 -1 161 -18z
m-250 -106 c42 -37 83 -66 90 -63 6 2 56 41 110 86 54 44 100 81 103 81 2 0 4
-61 4 -135 l0 -135 -215 0 -215 0 0 137 0 136 23 -19 c12 -11 57 -51 100 -88z"/>
<path d="M3013 3777 l-33 -11 0 -173 c0 -169 1 -173 21 -173 19 0 20 5 17 65
-3 64 -3 64 22 58 27 -6 26 -6 53 -4 30 2 75 57 82 101 5 30 2 51 -14 83 -31
63 -73 78 -148 54z m100 -54 c25 -29 30 -68 13 -101 -24 -46 -54 -54 -86 -22
-25 25 -28 101 -4 124 21 21 57 20 77 -1z"/>
<path d="M3266 3769 c-60 -47 -86 -163 -57 -252 15 -44 73 -97 107 -97 126 0
177 229 74 332 -44 44 -83 49 -124 17z m101 -51 c49 -53 52 -164 6 -218 -58
-70 -136 -10 -136 105 0 109 74 173 130 113z"/>
<path d="M3522 3783 c-21 -8 -42 -60 -42 -103 0 -33 6 -48 29 -71 16 -16 38
-29 50 -29 47 0 69 -70 33 -103 -10 -10 -35 -17 -55 -17 -33 0 -37 -3 -37 -25
0 -21 5 -25 30 -25 82 0 128 52 117 133 -6 47 -43 87 -81 87 -31 0 -46 18 -46
56 0 38 29 64 72 64 21 0 28 5 28 20 0 17 -6 20 -42 19 -24 0 -49 -3 -56 -6z"/>
<path d="M3700 3755 c0 -23 4 -25 45 -25 l45 0 0 -150 c0 -143 1 -150 20 -150
19 0 20 7 20 150 l0 150 45 0 c41 0 45 2 45 25 l0 25 -110 0 -110 0 0 -25z"/>
<path d="M4164 3761 c-94 -57 -99 -258 -9 -329 119 -94 240 125 154 277 -22
40 -64 71 -96 71 -10 0 -32 -9 -49 -19z m94 -53 c45 -49 54 -125 22 -195 -19
-42 -47 -59 -86 -51 -67 13 -87 179 -29 242 30 32 65 33 93 4z"/>
<path d="M4985 3749 c-65 -58 -81 -179 -35 -270 27 -51 59 -69 125 -69 53 0
56 1 53 23 -3 19 -10 23 -60 27 -63 6 -80 20 -98 80 -14 50 -12 79 9 127 23
50 45 63 105 63 42 0 46 2 46 25 0 24 -3 25 -55 25 -47 0 -59 -4 -90 -31z"/>
<path d="M5170 3595 l0 -185 85 0 c83 0 85 1 85 24 0 22 -4 24 -47 24 -89 0
-83 -4 -83 57 l0 55 60 0 c57 0 60 1 60 25 0 24 -3 25 -60 25 l-60 0 0 55 0
55 65 0 c63 0 65 1 65 25 0 25 -1 25 -85 25 l-85 0 0 -185z"/>
<path d="M4380 3595 c0 -168 1 -175 20 -175 18 0 20 7 20 70 l0 70 65 0 c63 0
65 1 65 25 0 24 -2 25 -65 25 l-65 0 0 55 0 55 65 0 c63 0 65 1 65 25 0 25 -1
25 -85 25 l-85 0 0 -175z"/>
<path d="M4590 3595 c0 -171 0 -175 21 -175 20 0 21 4 16 70 l-5 70 69 0 c67
0 69 1 69 25 0 23 -3 24 -67 27 l-67 3 -1 50 0 50 68 3 c64 3 68 4 65 25 -3
20 -9 22 -85 25 l-83 3 0 -176z"/>
<path d="M4840 3595 c0 -168 1 -175 20 -175 19 0 20 7 20 175 0 168 -1 175
-20 175 -19 0 -20 -7 -20 -175z"/>
<path d="M2278 3173 c7 -3 16 -2 19 1 4 3 -2 6 -13 5 -11 0 -14 -3 -6 -6z"/>
<path d="M5996 3301 c-224 -127 -237 -136 -203 -139 l37 -3 0 -75 c0 -72 -1
-74 -25 -74 l-25 0 -2 -226 -3 -225 -59 -20 c-116 -39 -187 -104 -194 -177 -4
-45 -6 -48 -35 -50 -47 -4 -46 -12 1 -12 31 0 42 -4 42 -15 0 -12 -17 -15 -95
-15 l-95 0 0 -48 0 -48 52 3 c68 4 75 13 10 13 l-52 0 0 35 c0 35 0 35 43 34
l42 -2 -35 -6 c-31 -5 -37 -12 -31 -38 2 -14 81 -14 81 0 0 8 4 7 10 -3 6 -9
10 -10 10 -3 0 19 -20 26 -36 12 -8 -6 -17 -9 -21 -5 -3 3 0 6 8 6 11 0 11 2
-1 10 -13 8 -12 10 3 10 9 0 17 6 17 13 0 8 4 7 10 -3 6 -10 10 -11 10 -2 0 7
13 12 30 12 28 0 30 -3 30 -34 0 -32 -3 -35 -32 -39 -32 -4 -32 -4 5 -5 25 -2
37 -7 37 -17 0 -8 -7 -15 -15 -15 -8 0 -15 -7 -15 -15 0 -9 -9 -15 -22 -15
-21 0 -21 0 -2 15 19 14 18 14 -3 15 -21 0 -23 -5 -23 -50 l0 -50 40 0 c30 0
40 -4 40 -16 0 -13 -14 -15 -92 -13 l-93 2 -3 -47 -3 -46 95 0 c79 0 96 -3 96
-15 0 -11 -11 -15 -40 -15 -39 0 -40 -1 -40 -35 0 -24 5 -35 14 -35 10 0 13 9
11 30 -3 21 0 30 10 30 9 0 15 -10 16 -22 1 -22 1 -22 9 2 8 25 8 25 10 -5 2
-16 3 -59 4 -95 l1 -65 -88 -5 -87 -5 0 38 c0 24 4 36 13 35 21 -5 27 -23 9
-30 -16 -6 -16 -7 0 -7 9 -1 20 4 23 9 3 6 18 10 33 11 24 0 25 1 7 9 -19 8
-19 9 2 9 12 1 24 -5 26 -11 4 -10 8 -10 15 1 5 7 14 11 20 7 6 -3 13 -2 17 4
4 6 -26 10 -84 10 l-91 0 0 -49 0 -49 95 2 c84 1 95 -1 95 -16 0 -12 -8 -18
-22 -19 -15 -1 -17 -3 -7 -6 17 -4 29 -80 24 -153 l-2 -35 -86 -3 c-60 -2 -87
1 -87 9 0 7 17 10 49 7 27 -1 47 0 44 5 -2 4 -24 7 -49 7 -37 0 -44 3 -44 20
0 19 6 20 81 19 44 -1 83 2 86 5 4 3 -35 6 -85 6 l-92 0 0 -45 0 -45 93 0 93
0 1 -80 c0 -64 -3 -80 -14 -76 -7 3 -13 1 -13 -4 0 -6 6 -10 13 -10 8 0 13
-18 14 -55 l2 -55 -40 0 c-35 0 -39 -3 -39 -25 0 -25 23 -35 35 -15 9 15 32
12 39 -5 5 -13 -11 -15 -107 -14 -62 0 -106 3 -99 6 6 2 10 9 6 14 -3 5 5 9
18 9 18 0 20 -2 8 -10 -9 -6 -10 -10 -3 -10 6 0 15 5 18 10 9 14 52 12 58 -2
3 -7 6 -1 6 15 l1 27 -90 0 c-86 0 -90 -1 -91 -22 -1 -13 -1 -26 0 -30 0 -5
-25 -7 -56 -7 -32 1 -48 4 -35 6 12 2 20 9 17 14 -4 5 -2 9 4 9 5 0 12 -6 14
-12 3 -8 6 -7 6 4 1 10 -8 18 -21 21 -20 4 -20 4 4 6 20 1 27 -4 30 -21 3 -21
4 -21 9 4 l6 28 -93 0 -94 0 0 -30 c0 -16 -4 -30 -10 -30 -5 0 -10 14 -10 30
0 20 -5 30 -15 30 -8 0 -15 7 -15 15 0 12 13 15 60 15 l60 0 0 48 c0 47 -1 49
-30 49 -21 0 -30 -5 -30 -16 0 -14 2 -14 10 -1 7 12 10 12 10 1 0 -7 6 -11 15
-7 11 4 15 -1 15 -19 0 -16 -6 -25 -15 -25 -8 0 -15 -4 -15 -10 0 -5 -18 -10
-41 -10 -39 0 -40 1 -37 33 2 26 7 32 26 30 30 -4 28 13 -3 21 -27 7 -34 26
-10 26 19 0 21 85 3 96 -8 5 -9 2 -5 -9 3 -10 2 -17 -3 -17 -6 0 -10 14 -10
30 l0 30 60 0 60 0 0 45 0 45 -60 0 c-47 0 -60 3 -60 15 0 8 7 15 15 15 11 0
15 12 15 51 0 34 -4 48 -11 43 -7 -4 -9 -21 -5 -45 4 -24 2 -39 -4 -39 -6 0
-10 65 -10 180 l0 180 60 0 60 0 0 45 0 45 -57 -2 -58 -2 53 -3 c52 -4 52 -4
52 -39 0 -33 -1 -34 -41 -34 -24 0 -38 4 -34 10 3 6 19 10 36 10 31 0 35 6 18
30 -9 13 -10 12 -5 -2 4 -14 0 -18 -19 -18 -13 0 -30 -7 -39 -15 -8 -8 -17
-15 -20 -15 -2 0 -5 72 -5 160 -1 103 2 160 9 160 5 0 10 -6 10 -12 0 -9 4 -8
10 2 9 13 14 11 32 -10 20 -24 20 -24 14 -2 -6 18 -4 22 13 22 18 0 21 -6 20
-37 -1 -38 -1 -38 -9 -8 -8 30 -8 30 -9 3 -1 -19 -7 -28 -23 -31 -14 -3 -9 -5
15 -6 l37 -1 0 45 0 45 -60 0 -60 0 0 75 0 75 60 0 60 0 0 50 0 50 -56 0 -55
0 7 -45 c4 -30 3 -45 -5 -45 -7 0 -11 33 -11 101 0 62 4 98 10 94 5 -3 8 -24
6 -45 -2 -22 0 -40 5 -40 5 0 9 23 9 50 0 38 -4 50 -15 50 -8 0 -15 7 -15 15
0 12 13 15 60 15 l60 0 0 45 0 45 -57 -1 c-48 -1 -53 -3 -28 -9 17 -4 24 -8
17 -9 -7 0 -10 -5 -7 -11 3 -5 2 -10 -4 -10 -5 0 -11 5 -13 12 -3 9 -6 9 -12
0 -4 -7 -1 -14 8 -17 9 -3 23 -7 31 -10 28 -8 15 -25 -20 -25 -34 0 -35 1 -35
40 l0 40 -250 -3 c-138 -1 -250 2 -250 6 0 5 -4 6 -9 2 -8 -4 -795 -9 -811 -4
-3 0 -47 2 -97 3 l-93 1 0 -46 c0 -39 3 -48 21 -52 40 -11 8 -27 -52 -27 l-59
0 0 -50 0 -50 55 0 c45 0 55 3 56 18 0 13 2 13 9 -5 5 -12 5 -34 0 -50 -7 -24
-8 -25 -9 -5 -2 45 -21 21 -21 -27 0 -41 3 -50 21 -54 24 -7 16 -27 -11 -27
-10 0 -20 -7 -24 -15 -3 -9 0 -15 9 -15 9 0 15 -10 15 -25 0 -23 -4 -25 -45
-25 -44 0 -61 14 -27 23 16 4 16 5 0 6 -10 0 -18 6 -18 12 0 5 4 7 10 4 5 -3
18 -1 27 4 15 9 14 11 -12 12 -30 2 -30 2 5 9 l35 7 -37 2 -38 1 0 -45 0 -45
55 0 55 0 0 34 c0 19 -6 37 -12 39 -8 3 -6 6 5 6 18 1 19 -8 19 -159 -1 -162
-1 -158 -19 -155 -10 2 -30 4 -45 4 -22 1 -28 6 -28 24 0 20 4 23 34 19 22 -3
37 -10 39 -21 3 -9 5 1 6 22 l1 37 -55 0 -55 0 0 -50 0 -50 66 0 c48 0 64 -3
61 -12 -2 -7 -12 -12 -21 -12 -13 2 -16 -8 -16 -47 0 -27 4 -49 9 -49 6 0 9
18 8 40 -2 22 1 40 5 40 4 0 8 -15 8 -32 0 -18 3 -43 6 -55 6 -22 4 -23 -60
-23 l-66 0 0 -47 0 -48 55 0 55 0 0 44 c0 24 2 42 5 39 3 -3 6 -84 8 -182 2
-162 1 -176 -15 -176 -25 0 -26 -87 -2 -92 15 -3 17 -24 18 -171 l1 -167 -282
0 c-263 0 -283 1 -283 18 0 12 -2 14 -8 4 -7 -10 -14 -10 -37 2 l-28 15 44 3
c24 2 85 2 136 0 76 -3 93 -6 96 -20 3 -9 6 2 7 26 1 23 4 47 5 52 1 6 3 23 4
39 1 22 6 29 19 28 25 -1 28 -64 3 -70 -9 -3 1 -5 22 -6 l37 -1 0 50 c0 28 -4
50 -9 50 -6 0 -8 -20 -6 -45 3 -28 1 -45 -6 -45 -6 0 -9 6 -6 14 3 8 1 17 -6
20 -9 5 -9 7 0 12 24 11 -4 43 -32 38 -25 -4 -25 -4 -25 76 l0 80 45 0 45 0 0
45 0 45 -45 0 -45 0 0 75 0 75 45 0 45 0 0 50 0 50 -45 0 -45 0 0 75 0 75 45
0 45 0 0 45 0 45 -45 0 -45 0 0 80 0 80 45 0 45 0 0 45 0 45 -45 0 -45 0 0 75
0 75 45 0 45 0 0 48 c0 47 -1 48 -33 50 -28 2 -33 -1 -35 -23 -1 -16 3 -25 13
-25 8 0 15 -7 15 -16 0 -8 5 -12 10 -9 7 4 7 13 0 26 -6 11 -15 17 -21 14 -5
-4 -9 -1 -9 4 0 6 10 11 23 11 19 0 23 -6 25 -35 2 -31 0 -35 -22 -35 -18 0
-24 4 -20 15 4 8 1 15 -5 15 -6 0 -11 -7 -11 -17 0 -9 -3 -13 -7 -9 -4 3 -9
58 -11 121 l-4 115 46 0 46 0 0 50 0 50 -52 -1 c-29 0 -71 -4 -93 -8 l-40 -9
40 -2 40 -3 -40 -6 c-22 -3 -85 -4 -140 -1 l-100 5 95 5 95 5 -94 5 c-78 4
-95 2 -98 -10 -3 -12 -25 -15 -119 -15 -84 0 -114 3 -114 13 0 7 -12 12 -27
11 l-28 -1 25 -8 c17 -5 -4 -9 -65 -10 -288 -5 -315 -5 -315 7 0 13 -135 22
-172 11 -13 -3 20 -7 72 -9 l95 -3 -80 -3 c-44 -2 -90 -5 -102 -8 l-23 -5 0
-230 0 -230 -90 0 -90 0 0 -47 0 -48 57 2 c32 1 61 2 66 2 4 1 6 11 6 24 -1
16 -2 18 -6 5 -5 -21 -19 -23 -26 -4 -3 8 5 19 21 26 16 8 22 14 14 17 -7 3
-19 -1 -27 -7 -11 -9 -15 -9 -15 -1 0 6 -16 10 -37 10 l-38 -2 35 -7 c19 -4
31 -8 27 -9 -4 0 -3 -10 3 -21 10 -19 8 -20 -32 -20 -28 0 -38 3 -29 9 9 6 10
11 2 15 -6 4 -11 16 -11 27 0 17 8 19 85 19 l85 0 0 -300 0 -300 -141 0 c-105
0 -140 3 -137 12 3 7 20 12 39 12 33 1 34 2 32 41 -1 22 -2 43 -2 48 -1 4 -17
7 -36 7 -24 0 -35 5 -35 15 0 8 6 15 13 15 7 0 8 3 2 8 -6 4 -11 21 -12 38
l-1 31 89 0 c82 1 115 -9 72 -20 -17 -4 -17 -5 0 -6 10 -1 17 -9 17 -21 0 -16
-8 -19 -57 -22 l-58 -3 63 -5 62 -5 0 48 0 47 -95 0 c-78 0 -95 3 -95 15 0 11
12 15 43 17 l42 1 -37 4 c-34 4 -38 7 -37 31 0 24 1 25 9 7 6 -13 9 -15 9 -5
1 10 4 11 9 4 4 -6 14 -13 23 -16 12 -5 16 1 15 28 -1 35 -6 38 -53 34 -15 -1
-23 4 -23 14 0 17 19 19 132 16 l58 -1 0 50 0 51 -95 0 c-81 0 -95 2 -95 16 0
13 8 15 34 12 32 -4 34 -2 40 32 10 58 9 60 -34 60 -29 0 -40 4 -40 15 0 12
17 15 95 15 l95 0 0 45 0 45 -42 -2 -43 -1 38 -4 c28 -3 37 -9 37 -23 0 -10
-8 -21 -18 -23 -16 -4 -16 -5 1 -6 9 0 17 -5 17 -9 0 -5 -27 -10 -61 -11 -44
-1 -59 1 -54 9 4 7 16 9 27 7 21 -6 48 1 48 12 0 3 -27 4 -60 3 -33 -2 -60 -8
-60 -13 0 -4 8 -6 18 -3 14 5 15 4 2 -5 -24 -17 -30 -13 -30 24 0 35 0 35 47
35 25 0 43 3 39 7 -4 4 -27 6 -51 4 -35 -2 -45 1 -45 13 0 12 10 16 39 16 l39
0 -2 50 c-1 49 -1 50 -33 50 -18 0 -33 -4 -33 -9 0 -4 -30 -8 -68 -8 -50 1
-78 -5 -108 -21 l-42 -21 -70 36 c-54 27 -85 37 -140 41 l-70 5 -13 45 c-28
100 -117 197 -220 239 -58 24 -167 23 -237 -1 -97 -33 -203 -156 -227 -263 -6
-32 -6 -33 29 -33 32 0 36 -3 36 -25 0 -25 -10 -30 -54 -25 -17 2 -18 -6 -12
-127 4 -70 9 -149 12 -174 l6 -46 -74 -5 c-101 -6 -181 -44 -251 -117 -58 -61
-102 -144 -113 -211 -6 -37 -12 -44 -43 -57 -20 -7 -46 -19 -58 -25 l-23 -11
0 -854 0 -853 3490 0 3490 0 0 959 c0 675 -3 960 -11 963 -6 2 -17 35 -25 73
-8 38 -25 93 -39 122 -28 63 -103 145 -162 180 l-43 25 0 344 0 344 -30 0 -30
0 0 74 0 75 38 3 c35 3 24 10 -198 137 -129 74 -237 135 -240 136 -3 1 -113
-59 -244 -134z m114 -596 l0 -165 -105 0 -105 0 0 165 0 165 105 0 105 0 0
-165z m230 0 l0 -165 -105 0 -105 0 0 165 0 165 105 0 105 0 0 -165z m230 0
l0 -165 -110 0 -110 0 0 165 0 165 110 0 110 0 0 -165z m-1470 29 c0 -13 -3
-14 -13 -5 -10 8 -14 7 -14 -4 0 -8 6 -15 14 -15 7 0 13 -7 13 -15 0 -8 -6
-15 -12 -15 -15 0 -36 41 -30 58 6 18 42 15 42 -4z m-1590 -24 c0 -16 -4 -30
-8 -30 -7 0 -9 43 -3 58 5 12 11 -4 11 -28z m-310 8 c0 -9 3 -9 12 0 16 16 25
15 25 -4 0 -12 -8 -15 -29 -12 -15 3 -28 1 -28 -3 0 -4 15 -10 33 -12 l32 -4
-37 -1 c-40 -2 -52 7 -42 32 7 19 34 22 34 4z m1000 -823 l0 -795 -325 0 -325
0 0 795 0 795 325 0 325 0 0 -795z m740 0 l0 -795 -325 0 -325 0 0 795 0 795
325 0 325 0 0 -795z m-2390 420 l0 -345 -240 0 -240 0 0 345 0 345 240 0 240
0 0 -345z m540 0 l0 -345 -240 0 -240 0 0 345 0 345 240 0 240 0 0 -345z m353
308 c-7 -2 -21 -2 -30 0 -10 3 -4 5 12 5 17 0 24 -2 18 -5z m-23 -33 c-8 -5
-17 -7 -19 -4 -3 3 1 9 9 14 8 5 17 7 19 4 3 -3 -1 -9 -9 -14z m-1630 -98 c0
-9 -7 -13 -18 -10 -13 4 -18 -1 -20 -18 -2 -26 19 -29 30 -4 5 11 7 9 7 -7 1
-18 -5 -23 -24 -23 -28 0 -35 23 -20 67 5 16 45 12 45 -5z m3240 6 c0 -8 3 -9
8 -3 4 6 19 11 34 13 25 3 27 1 26 -38 l0 -41 -39 3 c-40 2 -49 14 -27 36 8 8
8 12 1 12 -6 0 -13 7 -17 15 -3 8 -1 15 4 15 6 0 10 -6 10 -12z m1080 -153 l0
-165 -105 0 -105 0 0 165 0 165 105 0 105 0 0 -165z m230 0 l0 -166 -107 3
c-60 2 -107 6 -105 11 1 4 2 77 2 162 l0 155 105 0 105 0 0 -165z m230 0 l0
-165 -110 0 -110 0 0 165 0 165 110 0 110 0 0 -165z m-4801 -121 c3 -26 4 -27
11 -9 8 19 9 19 9 -2 1 -19 -4 -23 -27 -23 -26 0 -28 2 -24 35 5 42 25 42 31
-1z m26 26 c3 -5 1 -10 -4 -10 -6 0 -11 5 -11 10 0 6 2 10 4 10 3 0 8 -4 11
-10z m1420 -9 c9 -28 -5 -52 -28 -49 -15 2 -20 11 -21 36 -1 27 3 32 21 32 12
0 24 -8 28 -19z m2182 -17 c-3 -3 -12 -4 -19 -1 -8 3 -5 6 6 6 11 1 17 -2 13
-5z m-2157 -24 c0 -5 -4 -10 -10 -10 -5 0 -10 5 -10 10 0 6 5 10 10 10 6 0 10
-4 10 -10z m2870 -205 l0 -165 -105 0 -105 0 0 165 0 165 105 0 105 0 0 -165z
m230 0 l0 -165 -107 0 -108 0 3 165 3 165 104 0 105 0 0 -165z m230 0 l0 -165
-110 0 -110 0 0 165 0 165 110 0 110 0 0 -165z m-4742 116 c42 1 69 3 60 6
-24 6 -23 23 2 23 26 0 29 -49 3 -51 -17 -1 -17 -2 0 -6 40 -11 11 -18 -68
-17 -47 1 -85 4 -85 7 0 43 3 69 7 55 4 -15 16 -18 81 -17z m32 19 c0 -5 -2
-10 -4 -10 -3 0 -8 5 -11 10 -3 6 -1 10 4 10 6 0 11 -4 11 -10z m1547 -52 c-2
-13 -4 -3 -4 22 0 25 2 35 4 23 2 -13 2 -33 0 -45z m53 52 c0 -13 -11 -13 -30
0 -12 8 -11 10 8 10 12 0 22 -4 22 -10z m2060 -29 c0 -32 -3 -39 -17 -36 -10
2 -25 4 -33 4 -13 1 -13 2 0 11 10 6 11 10 3 10 -7 0 -13 5 -13 10 0 17 38 11
43 -7 3 -10 5 -3 6 15 1 46 11 40 11 -7z m-3727 22 c-7 -2 -19 -2 -25 0 -7 3
-2 5 12 5 14 0 19 -2 13 -5z m-3 -123 c0 -6 -11 -8 -27 -4 -40 10 -41 14 -5
14 18 0 32 -5 32 -10z m1450 -10 c0 -11 -3 -19 -7 -19 -25 4 -53 -3 -53 -12 0
-7 10 -9 24 -5 14 3 28 2 31 -4 4 -6 -8 -10 -28 -10 -29 0 -35 4 -39 25 -5 21
-2 25 13 20 10 -4 27 -1 36 5 16 10 16 10 -2 6 -11 -3 -27 -1 -35 4 -11 7 -5
10 23 10 30 0 37 -4 37 -20z m2286 -9 c-1 -16 -5 -33 -10 -38 -5 -5 -7 -1 -4
8 4 10 -3 19 -23 26 -16 6 -27 7 -24 2 3 -5 -21 -8 -55 -8 -33 1 -60 5 -60 11
0 5 4 7 8 4 4 -2 14 0 22 6 12 8 12 9 -2 4 -10 -3 -20 -1 -23 4 -4 6 29 10 83
10 l88 0 0 -29z m-26 -30 c0 -4 -34 -8 -75 -7 -41 0 -75 4 -75 8 0 4 34 8 75
8 41 0 75 -4 75 -9z m-2050 -67 c13 -5 13 -6 0 -14 -12 -8 -10 -10 7 -10 16 0
21 4 17 15 -4 8 -1 15 5 15 6 0 11 -16 11 -35 0 -35 0 -35 -45 -35 -33 0 -45
4 -45 15 0 8 7 15 15 15 8 0 15 5 15 10 0 6 -7 10 -15 10 -8 0 -15 4 -15 8 0
10 28 13 50 6z m-900 -176 c0 -93 -2 -168 -4 -168 -2 0 -14 16 -26 36 -41 65
-54 68 -260 74 l-185 5 -3 99 c-1 55 -1 104 1 110 3 7 82 11 241 11 l236 0 0
-167z m540 -160 l0 -328 -167 0 -168 0 -72 110 -73 110 0 213 c0 118 2 216 4
218 2 2 110 4 240 4 l236 0 0 -327z m3020 87 l0 -165 -105 0 -105 0 0 165 0
165 105 0 105 0 0 -165z m230 0 l0 -165 -105 0 -105 0 0 165 0 165 105 0 105
0 0 -165z m230 0 l0 -166 -107 3 -108 3 -3 163 -2 162 110 0 110 0 0 -165z
m-4813 129 c-3 -3 -12 -4 -19 -1 -8 3 -5 6 6 6 11 1 17 -2 13 -5z m32 -37 l-1
-32 -8 30 c-4 17 -8 22 -9 13 -1 -11 -6 -15 -16 -12 -8 4 -15 1 -15 -5 0 -6 7
-11 15 -11 8 0 15 -5 15 -10 0 -7 -6 -7 -20 0 -24 13 -28 55 -5 46 9 -3 18 1
21 9 10 24 24 6 23 -28z m1391 14 c0 -27 25 -51 32 -31 2 4 9 2 16 -6 11 -12
7 -14 -22 -12 -32 3 -35 6 -38 41 -2 20 0 37 4 37 5 0 8 -13 8 -29z m60 17 c0
-5 -6 -8 -12 -9 -10 0 -10 -2 0 -6 6 -2 12 -12 12 -21 -1 -15 -2 -15 -11 1 -7
13 -14 15 -23 8 -8 -7 -12 -4 -14 13 -1 20 3 24 23 22 14 0 25 -4 25 -8z
m2170 8 c0 -3 -4 -8 -10 -11 -5 -3 -10 -1 -10 4 0 6 5 11 10 11 6 0 10 -2 10
-4z m-3003 -198 c11 -13 82 -105 157 -206 137 -182 138 -183 131 -225 -14 -82
6 -77 -285 -77 -222 0 -261 2 -274 16 -14 13 -16 50 -16 246 0 201 2 234 17
250 14 15 32 18 133 18 108 0 118 -2 137 -22z m829 -71 c-1 -21 -26 -38 -26
-18 0 6 5 11 12 11 6 0 9 3 5 6 -3 3 -16 -1 -29 -10 -20 -14 -18 -21 5 -17 4
0 7 -3 7 -9 0 -19 -38 -10 -43 11 -9 34 2 48 37 47 26 -1 33 -5 32 -21z m274
-12 c0 -19 -3 -35 -8 -35 -4 0 -7 16 -8 35 0 19 3 35 8 35 4 0 8 -16 8 -35z
m1590 0 l0 -35 -55 0 c-48 0 -55 3 -55 20 0 10 8 24 18 30 16 11 16 11 0 6
-10 -3 -18 -1 -18 4 0 6 25 10 55 10 l55 0 0 -35z m-3640 -115 c0 -14 -7 -20
-24 -20 -32 0 -50 -24 -42 -55 4 -16 13 -25 26 -25 60 0 82 -104 30 -141 -16
-12 -35 -16 -52 -12 -37 7 -37 33 0 33 61 0 74 61 18 84 -60 25 -75 88 -31
131 30 31 75 34 75 5z m-582 -117 l3 -123 -176 0 -175 0 0 125 0 125 173 -2
172 -3 3 -122z m239 112 c68 -48 13 -190 -62 -161 -12 4 -15 -4 -15 -39 0 -37
-3 -45 -19 -45 -17 0 -18 9 -17 122 2 110 4 122 21 129 32 12 69 10 92 -6z
m180 -7 c32 -36 43 -63 43 -108 0 -45 -11 -72 -43 -107 -70 -77 -170 58 -127
171 24 64 88 86 127 44z m361 13 c6 0 12 -8 12 -16 0 -10 -10 -15 -30 -15
l-30 0 0 -105 c0 -87 -3 -105 -15 -105 -12 0 -15 18 -15 105 l0 105 -35 0
c-31 0 -46 15 -31 31 4 3 105 4 144 0z m3349 -21 c-5 -31 -17 -36 -17 -7 0 15
4 27 10 27 5 0 9 -9 7 -20z m391 -207 c-15 -2 -42 -2 -60 0 -18 2 -6 4 27 4
33 0 48 -2 33 -4z m105 0 c-13 -2 -23 -9 -23 -14 0 -5 -4 -9 -8 -9 -5 0 -9 7
-9 15 0 10 10 15 31 14 24 -1 26 -3 9 -6z m-3253 -174 c19 -34 -12 -59 -71
-59 -55 0 -86 28 -68 62 8 14 22 18 69 18 50 0 61 -3 70 -21z m-1870 -169 c16
-31 12 -78 -10 -100 -34 -34 -40 -24 -40 60 0 77 1 80 20 70 11 -6 24 -19 30
-30z m2838 -2 c24 -93 23 -98 -14 -98 -35 0 -74 37 -74 70 0 25 38 70 59 70
13 0 22 -12 29 -42z m-612 -249 l1 -39 -109 0 c-108 0 -109 0 -106 23 3 21 8
22 101 25 91 3 97 4 97 24 0 38 15 8 16 -33z m424 6 c0 -59 -14 -59 -17 0 -1
25 3 45 8 45 5 0 9 -20 9 -45z m420 0 l0 -45 -105 0 -105 0 0 45 0 45 105 0
105 0 0 -45z m420 0 l0 -45 -105 0 -105 0 0 45 0 45 105 0 105 0 0 -45z m428
-2 l3 -43 -110 0 -111 0 0 45 0 46 108 -3 107 -3 3 -42z m422 2 l0 -45 -107 0
-108 0 2 42 c1 24 2 44 2 46 1 1 48 2 106 2 l105 0 0 -45z m420 0 l0 -45 -105
0 -105 0 0 45 0 45 105 0 105 0 0 -45z m420 0 l0 -45 -105 0 -105 0 0 45 0 45
105 0 105 0 0 -45z m420 0 l0 -45 -105 0 -105 0 0 45 0 45 105 0 105 0 0 -45z
m428 -2 l3 -43 -110 0 -111 0 0 38 c0 21 3 42 7 46 4 4 52 5 107 4 l101 -3 3
-42z m322 2 l0 -45 -55 0 -55 0 0 45 0 45 55 0 55 0 0 -45z m-6232 -12 l3 -33
-55 0 -56 0 0 36 0 35 53 -3 c51 -3 52 -4 55 -35z m842 -3 l0 -30 -105 0 -105
0 0 30 0 30 105 0 105 0 0 -30z m420 0 l0 -30 -105 0 -105 0 0 30 0 30 105 0
105 0 0 -30z m420 -5 l0 -25 -105 0 -105 0 0 25 0 25 105 0 105 0 0 -25z"/>
<path d="M4142 1833 c2 -66 7 -98 16 -101 9 -3 12 21 12 97 0 84 -3 101 -15
101 -13 0 -15 -15 -13 -97z"/>
<path d="M4320 1829 c0 -76 3 -100 13 -97 8 3 13 35 15 101 2 82 0 97 -13 97
-12 0 -15 -17 -15 -101z"/>
<path d="M5050 2478 c0 -11 28 -10 35 1 3 6 -4 9 -15 8 -11 -1 -20 -5 -20 -9z"/>
<path d="M5035 2450 c3 -5 8 -10 11 -10 2 0 4 5 4 10 0 6 -5 10 -11 10 -5 0
-7 -4 -4 -10z"/>
<path d="M5060 2456 c0 -2 7 -6 15 -10 8 -3 15 -1 15 4 0 6 -7 10 -15 10 -8 0
-15 -2 -15 -4z"/>
<path d="M3185 2239 c-4 -6 -5 -12 -2 -15 2 -3 7 2 10 11 7 17 1 20 -8 4z"/>
<path d="M1750 2082 c0 -4 17 -6 38 -4 64 6 69 10 15 11 -29 0 -53 -3 -53 -7z"/>
<path d="M3440 1838 c0 -4 9 -8 20 -8 11 0 20 4 20 9 0 6 -9 9 -20 8 -11 -1
-20 -5 -20 -9z"/>
<path d="M5073 1490 c-1 -11 2 -20 8 -20 5 0 9 9 9 20 0 11 -4 20 -8 20 -4 0
-8 -9 -9 -20z"/>
<path d="M5052 1480 c0 -14 2 -19 5 -12 2 6 2 18 0 25 -3 6 -5 1 -5 -13z"/>
<path d="M5017 1483 c-4 -3 -7 -11 -7 -17 0 -6 5 -5 12 2 6 6 9 14 7 17 -3 3
-9 2 -12 -2z"/>
<path d="M582 1350 c4 -10 108 -100 114 -100 10 0 124 93 124 100 0 5 -54 7
-120 7 -66 -1 -119 -4 -118 -7z"/>
<path d="M550 1245 l0 -96 151 3 151 3 2 93 c1 50 0 92 -2 92 -2 0 -35 -27
-74 -60 -40 -33 -75 -60 -80 -60 -4 0 -39 27 -78 60 l-70 61 0 -96z"/>
<path d="M1052 1338 c-14 -14 -16 -67 -3 -86 14 -23 53 -10 64 21 16 48 -30
96 -61 65z"/>
<path d="M1220 1332 c-44 -36 -36 -153 12 -171 31 -11 46 -4 63 30 27 52 10
137 -30 153 -22 8 -20 9 -45 -12z"/>
<path d="M1766 3205 c-3 -8 -1 -15 4 -15 6 0 10 7 10 15 0 8 -2 15 -4 15 -2 0
-6 -7 -10 -15z"/>
<path d="M1790 3195 c0 -14 2 -25 4 -25 2 0 6 11 8 25 3 14 1 25 -3 25 -5 0
-9 -11 -9 -25z"/>
<path d="M1830 3185 l0 -35 90 0 90 0 0 35 0 35 -90 0 -90 0 0 -35z m40 6 c14
-27 13 -36 -4 -22 -11 9 -15 9 -19 -1 -3 -7 -6 -1 -6 15 -1 31 14 36 29 8z
m130 -8 c0 -22 -2 -25 -10 -13 -9 13 -10 13 -10 0 0 -13 -2 -13 -9 0 -6 8 -8
17 -5 21 2 4 -4 10 -13 12 -10 3 -3 5 15 6 29 1 32 -2 32 -26z m-90 -13 c0 -5
-5 -10 -11 -10 -5 0 -7 5 -4 10 3 6 8 10 11 10 2 0 4 -4 4 -10z m40 0 c12 -8
11 -10 -7 -10 -13 0 -23 5 -23 10 0 13 11 13 30 0z"/>
<path d="M2450 3185 c0 -34 1 -35 38 -34 36 2 36 2 7 8 -23 4 -31 12 -33 31
-2 24 -2 24 10 5 14 -21 62 -27 87 -11 10 6 12 6 7 -2 -4 -7 -1 -12 8 -12 20
0 20 2 -3 28 -14 17 -30 22 -70 22 l-51 0 0 -35z"/>
<path d="M2650 3185 c0 -27 4 -35 18 -34 10 0 12 3 5 6 -7 2 -13 17 -12 31 0
26 1 26 9 5 10 -24 25 -30 35 -13 8 13 -19 40 -39 40 -12 0 -16 -10 -16 -35z"/>
<path d="M2718 3213 c6 -2 18 -2 25 0 6 3 1 5 -13 5 -14 0 -19 -2 -12 -5z"/>
<path d="M2778 3213 c7 -3 16 -2 19 1 4 3 -2 6 -13 5 -11 0 -14 -3 -6 -6z"/>
<path d="M3270 3185 c0 -39 5 -41 46 -20 l29 15 -33 0 c-45 0 -37 24 9 28 22
2 29 0 21 -6 -11 -7 -8 -11 10 -17 12 -4 26 -8 31 -10 4 -1 10 -4 15 -5 4 -1
-9 -6 -28 -10 -30 -6 -26 -8 28 -9 l62 -1 -1 38 c0 20 -3 31 -6 25 -2 -7 -14
-13 -26 -12 -21 0 -21 1 -2 9 13 6 -9 9 -67 9 l-88 1 0 -35z m177 -10 c0 -8
-9 -15 -19 -15 -10 0 -18 5 -18 11 0 5 4 8 9 4 5 -3 12 -1 16 5 9 14 12 13 12
-5z"/>
<path d="M3953 3213 c9 -2 25 -2 35 0 9 3 1 5 -18 5 -19 0 -27 -2 -17 -5z"/>
<path d="M4100 3185 l0 -35 88 0 89 0 1 38 c1 24 -2 32 -7 23 -6 -9 -10 -10
-16 -2 -8 14 -115 12 -115 -1 0 -4 5 -8 10 -8 6 0 10 -4 10 -9 0 -5 -9 -7 -20
-4 -11 3 -20 0 -20 -5 0 -7 22 -10 60 -9 33 1 60 5 60 10 0 4 6 7 13 7 8 0 14
-7 14 -15 0 -12 -16 -15 -80 -15 l-79 0 4 30 c3 17 1 30 -4 30 -4 0 -8 -16 -8
-35z"/>
<path d="M4932 3200 c3 -23 8 -25 53 -26 l50 -2 -50 8 -50 7 58 1 c32 1 57 -2
57 -8 0 -5 9 -10 20 -10 21 0 27 15 10 25 -5 3 -10 1 -10 -6 0 -7 -8 -2 -19 9
-21 25 -101 32 -101 10 0 -9 -4 -8 -11 2 -8 12 -9 10 -7 -10z"/>
<path d="M5098 3191 c4 -28 2 -30 -34 -34 l-39 -4 43 -1 c42 -2 42 -2 42 33 0
19 -4 35 -8 35 -5 0 -7 -13 -4 -29z"/>
<path d="M5130 3185 l0 -35 95 0 c84 0 95 2 94 18 0 10 -3 12 -6 5 -2 -7 -14
-13 -25 -13 -11 0 -18 5 -15 13 2 6 9 11 15 10 6 -2 16 6 22 17 6 12 7 20 1
20 -5 0 -12 -6 -14 -12 -4 -10 -6 -10 -6 0 -1 8 -19 12 -56 12 -37 0 -55 -4
-55 -12 0 -10 -3 -9 -9 1 -7 11 -9 11 -14 0 -4 -10 -6 -10 -6 -1 -2 29 -21 9
-21 -23z m66 7 c-5 -16 -1 -18 29 -17 19 0 35 -3 35 -7 0 -4 -27 -8 -60 -8
-47 0 -60 3 -60 15 0 9 9 15 25 15 14 0 25 5 25 10 0 6 3 10 6 10 3 0 3 -8 0
-18z"/>
<path d="M5158 3173 c7 -3 16 -2 19 1 4 3 -2 6 -13 5 -11 0 -14 -3 -6 -6z"/>
<path d="M5340 3188 c0 -36 2 -38 30 -38 19 0 30 5 30 14 0 10 8 13 25 10 26
-4 30 2 19 30 -8 20 -84 23 -84 4 0 -9 -4 -8 -10 2 -7 11 -10 5 -10 -22z m50
-18 c0 -5 -10 -10 -22 -9 -22 0 -22 1 -3 9 11 5 21 9 23 9 1 1 2 -3 2 -9z"/>
<path d="M5461 3204 c0 -11 3 -14 6 -6 3 7 2 16 -1 19 -3 4 -6 -2 -5 -13z"/>
<path d="M2735 3188 c25 -15 58 -21 51 -9 -4 5 0 12 6 14 7 3 -7 6 -32 6 -39
0 -42 -1 -25 -11z"/>
<path d="M3098 3153 c7 -3 16 -2 19 1 4 3 -2 6 -13 5 -11 0 -14 -3 -6 -6z"/>
<path d="M4618 3153 c6 -2 18 -2 25 0 6 3 1 5 -13 5 -14 0 -19 -2 -12 -5z"/>
<path d="M4938 3153 c12 -2 32 -2 45 0 12 2 2 4 -23 4 -25 0 -35 -2 -22 -4z"/>
<path d="M1741 3083 l-1 -53 90 0 90 0 0 50 0 50 -40 0 c-22 0 -40 -5 -40 -11
0 -6 14 -9 33 -7 30 3 32 1 35 -29 2 -20 -1 -33 -8 -33 -6 0 -8 5 -5 10 3 6 2
10 -4 10 -5 0 -11 -5 -13 -11 -5 -16 -128 -17 -128 -2 0 7 7 10 15 7 8 -4 15
-1 15 5 0 6 -6 11 -14 11 -8 0 -17 12 -19 28 -2 15 -5 3 -6 -25z"/>
<path d="M1760 3118 c0 -11 41 -10 60 2 11 7 5 9 -22 8 -21 -1 -38 -5 -38 -10z"/>
<path d="M1940 3080 l0 -50 95 0 c61 0 95 4 95 11 0 6 -9 8 -20 4 -15 -5 -18
-3 -14 9 4 10 1 16 -7 16 -11 0 -11 3 1 11 12 8 11 9 -6 4 -12 -3 -40 -1 -63
4 -31 7 -41 6 -38 -2 2 -7 25 -13 50 -15 26 -2 47 -8 47 -13 0 -6 -20 -9 -47
-7 -39 2 -50 7 -60 28 -12 24 -13 24 -13 3 0 -12 6 -23 13 -26 6 -2 9 -8 5
-12 -13 -13 -28 6 -28 36 0 19 5 29 15 29 8 0 15 5 15 10 0 6 -9 10 -20 10
-17 0 -20 -7 -20 -50z"/>
<path d="M1990 3118 c0 -4 21 -6 46 -5 25 2 48 -1 50 -5 3 -4 11 -5 18 -2 10
4 12 -2 8 -22 -3 -15 -1 -24 4 -21 5 3 11 19 12 35 l2 29 -70 0 c-38 -1 -70
-5 -70 -9z"/>
<path d="M2152 3083 l-2 -53 89 0 88 0 0 53 c0 44 -1 47 -6 17 -4 -23 -9 -31
-14 -22 -11 17 -27 15 -27 -3 0 -8 10 -16 23 -16 12 -1 0 -5 -28 -9 -28 -4
-55 -3 -62 2 -7 6 -19 5 -32 -1 -18 -10 -20 -8 -24 36 l-3 48 -2 -52z"/>
<path d="M2170 3118 c0 -4 9 -8 20 -8 11 0 20 4 20 9 0 6 -9 9 -20 8 -11 -1
-20 -5 -20 -9z"/>
<path d="M2230 3120 c20 -13 83 -13 75 0 -3 6 -25 10 -48 10 -31 0 -38 -3 -27
-10z"/>
<path d="M2354 3078 l1 -48 93 0 92 0 0 49 0 50 -94 -1 -94 -1 2 -49z m169 33
c4 -1 7 -14 7 -30 0 -29 0 -29 -60 -30 -34 0 -70 -3 -80 -6 -11 -4 -20 -3 -21
2 -6 63 -6 65 23 61 15 -3 28 -2 28 2 0 5 65 5 103 1z"/>
<path d="M2484 3089 c-7 -11 12 -29 31 -29 6 1 1 6 -10 12 -19 11 -19 11 0 19
16 6 17 8 3 8 -9 1 -20 -4 -24 -10z"/>
<path d="M2420 3080 c0 -5 5 -10 11 -10 5 0 7 5 4 10 -3 6 -8 10 -11 10 -2 0
-4 -4 -4 -10z"/>
<path d="M2380 3059 c0 -5 5 -7 10 -4 6 3 10 8 10 11 0 2 -4 4 -10 4 -5 0 -10
-5 -10 -11z"/>
<path d="M2560 3080 l0 -50 96 0 c65 0 93 3 89 11 -4 6 -34 10 -68 9 -110 -3
-108 -3 -105 30 2 22 7 30 23 31 69 2 83 19 17 19 l-52 0 0 -50z"/>
<path d="M2670 3122 c0 -5 9 -12 20 -15 11 -3 20 -1 20 4 0 5 5 9 10 9 6 0 10
-9 10 -20 0 -13 -5 -18 -14 -14 -8 3 -23 1 -33 -5 -15 -9 -13 -10 15 -11 44 0
46 1 47 30 0 22 -5 25 -37 28 -21 2 -38 -1 -38 -6z"/>
<path d="M2770 3080 l0 -50 89 0 89 0 4 50 3 50 -92 0 -93 0 0 -50z m52 -9
c17 -6 29 -9 26 -5 -10 9 30 44 52 44 20 0 44 -33 37 -53 -2 -7 -31 -11 -78
-12 l-75 0 0 35 c-1 19 1 27 3 18 2 -9 18 -21 35 -27z"/>
<path d="M2910 3070 c0 -5 5 -10 11 -10 5 0 7 5 4 10 -3 6 -8 10 -11 10 -2 0
-4 -4 -4 -10z"/>
<path d="M2970 3080 l0 -50 95 0 95 0 0 50 0 50 -36 0 c-21 0 -42 -6 -48 -15
-7 -10 -19 -12 -36 -8 l-25 7 30 7 c24 5 20 7 -22 8 l-53 1 0 -50z m180 -24
c0 -2 -7 -7 -16 -10 -8 -3 -12 -2 -9 4 6 10 25 14 25 6z"/>
<path d="M3180 3079 l0 -49 89 0 c54 0 91 4 93 11 2 5 2 28 0 50 l-4 40 -89
-2 -89 -1 0 -49z m137 31 c30 0 32 -2 30 -30 -2 -24 -7 -30 -24 -30 -16 0 -23
6 -23 20 0 25 -37 42 -62 28 -10 -5 -18 -20 -18 -33 0 -16 -6 -25 -16 -25 -11
0 -14 8 -12 33 3 34 31 49 73 41 11 -2 34 -4 52 -4z"/>
<path d="M3310 3090 c0 -5 5 -10 11 -10 5 0 7 5 4 10 -3 6 -8 10 -11 10 -2 0
-4 -4 -4 -10z"/>
<path d="M3390 3078 l0 -48 90 0 90 0 0 50 0 50 -41 0 c-28 0 -39 -4 -36 -12
2 -7 11 -12 21 -10 9 2 16 -4 16 -12 0 -10 -6 -13 -15 -10 -8 4 -15 1 -15 -5
0 -19 32 -12 37 9 3 11 10 20 15 20 6 0 7 -7 4 -16 -3 -9 -6 -24 -6 -34 0 -15
-7 -17 -41 -13 -23 3 -50 12 -60 21 -22 19 -26 47 -6 39 17 -7 44 9 34 20 -5
4 -12 1 -17 -7 -6 -9 -10 -10 -10 -3 0 6 -13 11 -30 11 -29 -1 -30 -3 -30 -50z
m37 2 c6 -16 8 -30 3 -30 -4 0 -10 8 -14 18 -3 9 -9 23 -12 30 -3 6 -2 12 3
12 5 0 14 -13 20 -30z"/>
<path d="M3592 3080 l0 -50 94 0 94 0 0 50 0 51 -80 -2 c-62 -2 -80 -6 -83
-18 -4 -13 -5 -13 -6 2 0 9 -5 17 -10 17 -6 0 -10 -22 -9 -50z m139 30 c36 0
39 -2 39 -29 0 -29 0 -29 -71 -33 -38 -2 -78 0 -87 4 -10 4 1 7 28 8 39 2 41
3 16 9 -17 3 -29 9 -28 14 1 4 2 12 2 17 0 6 5 10 11 10 5 0 7 -4 4 -10 -4 -6
7 -9 27 -9 23 1 26 3 11 6 -13 2 -23 9 -23 15 0 5 7 7 16 4 9 -3 33 -6 55 -6z"/>
<path d="M3720 3079 c0 -5 9 -9 20 -9 11 0 20 2 20 4 0 2 -9 6 -20 9 -11 3
-20 1 -20 -4z"/>
<path d="M3800 3080 l0 -50 90 0 90 0 -1 38 c-1 35 -2 36 -8 7 l-6 -29 -75 1
-75 0 0 34 c0 34 0 34 45 32 83 -4 90 -5 84 -14 -3 -5 0 -9 6 -9 6 0 10 8 8
18 -3 14 -16 17 -81 19 l-77 3 0 -50z"/>
<path d="M4011 3083 l-1 -53 90 0 90 0 0 50 c0 28 -4 50 -9 50 -5 0 -8 -18 -7
-41 l1 -41 -57 -2 c-57 -1 -57 -1 -54 27 3 20 0 27 -10 23 -8 -3 -11 0 -8 9 4
10 19 13 56 10 27 -3 54 -7 59 -10 5 -3 6 1 3 9 -5 12 -21 16 -68 16 -57 0
-62 -2 -62 -22 0 -13 4 -26 10 -30 5 -3 2 -14 -9 -25 -15 -14 -18 -15 -13 -2
3 9 3 31 -2 50 -7 32 -8 30 -9 -18z"/>
<path d="M4210 3114 c0 -8 5 -12 10 -9 6 3 10 10 10 16 0 5 -4 9 -10 9 -5 0
-10 -7 -10 -16z"/>
<path d="M4240 3120 c0 -5 7 -10 16 -10 8 0 12 5 9 10 -3 6 -10 10 -16 10 -5
0 -9 -4 -9 -10z"/>
<path d="M4291 3119 c8 -4 31 -7 51 -5 28 3 38 0 38 -11 0 -8 -4 -12 -9 -9 -5
4 -11 2 -13 -4 -2 -6 -14 -12 -27 -15 -12 -2 -29 -9 -36 -15 -7 -6 -29 -11
-49 -12 -20 -1 -36 -5 -36 -10 0 -4 43 -8 95 -8 l95 0 0 50 0 50 -61 -1 c-37
-1 -56 -5 -48 -10z m99 -60 c0 -5 -17 -9 -37 -9 l-38 1 30 13 c31 14 45 12 45
-5z"/>
<path d="M4421 3083 l-1 -53 96 0 c62 0 93 4 89 10 -4 6 -12 10 -18 9 -7 -1
-35 -1 -64 0 -40 1 -53 5 -56 19 -4 13 -5 12 -6 -5 -1 -16 -6 -21 -16 -17 -8
4 -15 13 -15 21 0 8 5 11 10 8 6 -3 10 -1 10 4 0 6 -4 11 -9 11 -5 0 -12 10
-14 23 -2 12 -5 -2 -6 -30z"/>
<path d="M4440 3120 c0 -5 29 -8 65 -7 36 1 65 5 65 8 0 4 -29 7 -65 8 -36 0
-65 -4 -65 -9z"/>
<path d="M4580 3120 c0 -5 4 -10 9 -10 4 0 7 -12 5 -27 -4 -28 -4 -28 5 -3 4
14 6 31 3 38 -5 14 -22 16 -22 2z"/>
<path d="M4632 3083 l-2 -53 90 0 90 0 -2 53 -2 52 -3 -46 c-4 -41 -7 -46 -24
-42 -12 3 -19 14 -19 29 0 13 -4 24 -10 24 -5 0 -10 -12 -10 -27 0 -27 -2 -28
-50 -28 -27 0 -50 3 -50 8 0 4 6 7 14 7 7 0 19 7 26 15 10 12 10 15 -4 15 -9
0 -16 -4 -16 -10 0 -25 -19 -6 -23 23 -3 22 -4 15 -5 -20z"/>
<path d="M4657 3113 c4 -9 10 -10 24 -2 11 5 29 7 39 4 12 -4 20 -2 20 5 0 7
-17 10 -44 9 -31 -2 -43 -6 -39 -16z"/>
<path d="M4750 3121 c0 -5 9 -11 20 -14 13 -3 20 0 20 9 0 8 -9 14 -20 14 -11
0 -20 -4 -20 -9z"/>
<path d="M4832 3078 l1 -48 93 0 94 0 0 50 0 50 -60 -1 c-35 -1 -57 -6 -54
-11 4 -6 19 -8 34 -6 21 3 31 -1 40 -16 6 -13 9 -14 6 -4 -3 10 -1 20 4 23 11
7 12 4 14 -37 2 -33 -1 -34 -27 -10 -18 15 -20 15 -14 0 5 -14 -3 -17 -51 -20
-31 -2 -61 -1 -66 4 -6 5 -3 8 6 8 9 0 20 5 24 12 5 7 3 8 -6 3 -7 -4 -16 -2
-21 6 -14 22 -10 33 6 19 9 -7 18 -10 22 -6 3 3 1 6 -5 6 -7 0 -12 4 -12 10 0
5 7 7 15 4 8 -4 15 -1 15 4 0 6 -13 10 -30 10 -29 -1 -30 -2 -28 -50z"/>
<path d="M5040 3078 l0 -48 90 0 90 0 -2 53 -1 52 -7 -45 c-4 -25 -8 -38 -8
-29 -1 11 -18 21 -46 28 -55 14 -56 14 -56 1 0 -6 6 -10 13 -9 6 1 19 0 27 -3
8 -4 24 -9 34 -12 30 -10 15 -15 -57 -19 l-67 -4 0 33 c0 27 4 34 20 34 11 0
20 4 20 10 0 5 -11 9 -25 8 -23 -2 -25 -6 -25 -50z"/>
<path d="M5104 3123 c3 -4 19 -8 36 -10 16 -1 34 -4 41 -5 6 -2 13 2 15 8 3 6
-15 11 -47 11 -28 1 -48 -1 -45 -4z"/>
<path d="M5246 3114 c-3 -8 0 -11 10 -7 8 3 14 -1 14 -8 0 -10 3 -10 8 -3 4 6
21 16 37 21 28 10 28 10 -17 10 -29 0 -49 -6 -52 -13z"/>
<path d="M5347 3117 c-3 -9 6 -11 36 -8 34 3 39 1 34 -14 -4 -9 -7 -23 -7 -31
0 -9 -10 -14 -27 -13 -17 1 -21 3 -10 6 9 2 17 10 17 18 0 10 -5 11 -25 2 -14
-7 -25 -15 -25 -19 0 -5 -18 -8 -39 -8 -33 0 -40 4 -44 23 -3 16 -5 13 -6 -10
l-1 -33 90 0 90 0 0 50 0 50 -39 0 c-22 0 -41 -5 -44 -13z"/>
<path d="M5450 3080 l0 -50 35 0 35 0 -2 53 c-1 47 -2 48 -5 12 -5 -43 -20
-60 -40 -43 -16 13 -13 58 4 58 9 0 12 -9 7 -27 -4 -22 -3 -25 5 -13 6 8 11
25 11 38 0 17 -6 22 -25 22 -23 0 -25 -3 -25 -50z"/>
<path d="M3825 3102 c-3 -3 -5 -14 -5 -24 0 -12 7 -18 23 -17 16 1 18 2 5 6
-32 8 -21 30 13 25 20 -3 29 -9 25 -18 -3 -9 2 -14 14 -14 18 0 37 17 28 26
-8 7 -97 22 -103 16z"/>
<path d="M2218 3093 c17 -3 22 -9 17 -21 -5 -13 -3 -14 6 -5 16 16 3 33 -24
32 -21 -2 -21 -2 1 -6z"/>
<path d="M2590 3080 c0 -15 7 -20 26 -20 14 0 23 4 19 10 -3 5 -13 6 -22 3
-12 -5 -15 -2 -10 10 3 9 2 17 -3 17 -6 0 -10 -9 -10 -20z"/>
<path d="M2628 3093 c7 -3 16 -2 19 1 4 3 -2 6 -13 5 -11 0 -14 -3 -6 -6z"/>
<path d="M4219 3089 c-12 -8 -12 -10 1 -19 17 -11 32 -8 37 7 5 15 -21 23 -38
12z"/>
<path d="M4572 3075 c0 -16 2 -22 5 -12 2 9 2 23 0 30 -3 6 -5 -1 -5 -18z"/>
<path d="M5062 3080 c0 -14 2 -19 5 -12 2 6 2 18 0 25 -3 6 -5 1 -5 -13z"/>
<path d="M5081 3084 c0 -11 3 -14 6 -6 3 7 2 16 -1 19 -3 4 -6 -2 -5 -13z"/>
<path d="M5300 3085 c-10 -12 -10 -15 4 -15 9 0 16 7 16 15 0 8 -2 15 -4 15
-2 0 -9 -7 -16 -15z"/>
<path d="M1861 3074 c0 -11 3 -14 6 -6 3 7 2 16 -1 19 -3 4 -6 -2 -5 -13z"/>
<path d="M4120 3080 c-12 -8 -9 -10 13 -10 15 0 27 -5 27 -12 0 -6 2 -9 5 -6
9 8 -6 38 -19 38 -6 0 -18 -5 -26 -10z"/>
<path d="M4770 3075 c0 -8 5 -15 10 -15 6 0 10 7 10 15 0 8 -4 15 -10 15 -5 0
-10 -7 -10 -15z"/>
<path d="M4905 3080 c-3 -5 1 -10 9 -10 9 0 16 5 16 10 0 6 -4 10 -9 10 -6 0
-13 -4 -16 -10z"/>
<path d="M3945 3070 c-3 -5 -1 -10 4 -10 6 0 11 5 11 10 0 6 -2 10 -4 10 -3 0
-8 -4 -11 -10z"/>
<path d="M1798 3063 c6 -2 18 -2 25 0 6 3 1 5 -13 5 -14 0 -19 -2 -12 -5z"/>
<path d="M1740 2960 c0 -49 0 -50 30 -47 40 5 42 8 34 56 -6 37 -9 41 -35 41
-28 0 -29 -2 -29 -50z m50 29 c0 -5 -4 -9 -10 -9 -5 0 -10 -5 -10 -11 0 -5 5
-7 10 -4 6 3 10 -3 10 -13 0 -11 -9 -22 -19 -25 -17 -4 -20 0 -19 32 0 29 4
37 19 38 11 1 19 -2 19 -8z"/>
<path d="M1830 3002 c0 -4 20 -6 45 -4 28 3 45 0 45 -7 0 -6 -19 -11 -45 -11
-44 0 -45 0 -45 -34 l0 -34 62 3 c34 2 64 8 66 14 2 6 8 11 14 11 6 0 8 -7 4
-15 -4 -10 1 -15 15 -15 17 0 20 5 17 38 -3 35 -5 37 -43 44 l-40 6 43 -2 c23
-1 42 2 42 6 0 5 -40 8 -90 8 -49 0 -90 -3 -90 -8z m158 -31 c18 -11 -16 -20
-88 -22 l-55 -2 55 -7 55 -7 -57 -1 c-51 -2 -58 0 -58 17 0 16 8 21 43 24 79
7 92 7 105 -2z"/>
<path d="M1928 2963 c7 -3 16 -2 19 1 4 3 -2 6 -13 5 -11 0 -14 -3 -6 -6z"/>
<path d="M2030 2985 c0 -16 6 -25 16 -25 13 0 14 3 5 14 -8 10 -9 16 -1 21 5
3 10 1 10 -6 0 -10 3 -10 12 -1 15 15 102 16 93 2 -3 -5 -24 -10 -45 -10 -29
0 -42 -5 -50 -19 -9 -17 -6 -20 18 -24 21 -3 19 -4 -11 -6 -23 0 -36 3 -32 9
3 6 1 10 -5 10 -6 0 -10 -8 -8 -17 4 -23 76 -29 85 -8 3 8 10 15 15 15 6 0 7
-7 4 -16 -5 -13 0 -15 36 -10 24 3 44 5 46 5 1 1 2 21 2 46 l0 45 -95 0 c-95
0 -95 0 -95 -25z m179 -24 l-1 -36 -8 30 -8 30 -1 -27 c-1 -22 -6 -28 -23 -27
-22 0 -22 1 -3 9 24 10 15 12 -42 10 -25 -1 -43 3 -43 9 0 6 17 11 39 11 21 0
44 6 50 13 22 27 41 16 40 -22z"/>
<path d="M2240 2960 l0 -50 45 0 c25 0 45 5 45 10 0 6 -18 10 -39 10 -34 0
-38 3 -34 20 5 18 14 20 79 20 43 0 74 -4 74 -10 0 -5 -26 -10 -57 -11 -40 0
-52 -3 -38 -8 11 -5 24 -6 29 -3 5 3 7 -2 3 -11 -5 -12 -1 -17 13 -17 22 0 27
16 8 23 -7 3 -2 6 12 6 35 2 45 11 45 44 l1 27 -93 0 -93 0 0 -50z m60 30 c11
-7 7 -10 -18 -10 -20 0 -31 4 -27 10 8 13 26 13 45 0z m110 0 c0 -13 -60 -13
-80 0 -11 7 -2 10 33 10 26 0 47 -4 47 -10z"/>
<path d="M2450 2960 c0 -47 2 -50 25 -50 16 0 25 6 25 15 0 11 12 15 52 15 28
0 49 -3 45 -6 -3 -3 -22 -6 -41 -6 -20 0 -36 -4 -36 -8 0 -5 20 -8 45 -8 34 1
45 5 46 17 0 12 3 11 9 -4 6 -15 9 -6 9 33 l1 52 -90 0 -90 0 0 -50z m80 31
c0 -5 9 -11 20 -14 11 -3 18 0 17 7 -1 6 10 12 26 14 15 2 27 -1 27 -7 0 -6
-9 -11 -20 -11 -11 0 -20 -4 -20 -9 0 -5 9 -7 20 -4 11 3 20 0 20 -6 0 -7 -28
-11 -80 -11 -79 0 -80 0 -80 25 0 22 4 25 35 25 19 0 35 -4 35 -9z m-43 -57
c-3 -3 -12 -4 -19 -1 -8 3 -5 6 6 6 11 1 17 -2 13 -5z"/>
<path d="M2650 2962 l0 -48 55 0 c30 0 55 3 55 7 0 4 -14 7 -30 7 -17 -1 -33
1 -36 4 -3 3 13 6 35 6 23 1 41 -5 44 -12 3 -7 19 -13 36 -14 31 -1 31 0 31
49 l0 49 -95 0 -95 0 0 -48z m35 18 c-19 -21 -17 -24 9 -14 9 3 16 12 16 19 0
9 17 12 56 11 l57 -1 4 -36 c3 -31 0 -35 -17 -34 -21 1 -41 15 -22 15 7 0 12
4 12 8 0 4 -15 6 -34 4 -18 -2 -37 1 -40 7 -5 7 9 11 41 12 36 0 43 3 28 9
-33 14 -54 11 -75 -10 -11 -11 -24 -20 -30 -20 -5 0 -10 -4 -10 -10 0 -5 -4
-10 -8 -10 -5 0 -8 10 -6 23 1 12 3 28 3 35 1 6 8 12 18 12 14 0 14 -2 -2 -20z"/>
<path d="M2860 2961 l0 -50 38 6 c50 8 57 17 9 11 l-38 -4 3 35 c3 35 4 36 50
39 38 2 47 0 51 -15 4 -17 5 -17 6 0 1 21 21 23 21 2 0 -8 5 -15 11 -15 5 0 8
4 4 9 -3 5 -1 12 4 15 5 4 12 -8 14 -26 4 -33 4 -33 5 5 l2 37 -90 0 -90 0 0
-49z"/>
<path d="M3069 2983 c5 -24 6 -25 9 -7 2 16 10 21 28 20 25 -1 28 -21 3 -21
-8 0 -14 -7 -14 -15 -1 -8 -5 -14 -11 -13 -5 1 -11 -7 -11 -18 -2 -18 4 -19
88 -17 l89 2 0 48 0 48 -94 0 -93 0 6 -27z m168 -18 c-4 -8 -11 -15 -17 -15
-6 0 -6 7 2 20 14 22 24 19 15 -5z"/>
<path d="M3270 2960 l0 -50 50 0 c38 0 50 4 50 15 0 11 11 14 40 13 24 -1 36
-4 28 -9 -7 -4 -9 -11 -6 -14 15 -15 28 9 28 51 l0 44 -95 0 -95 0 0 -50z m62
29 c2 -5 21 -12 43 -13 22 -2 28 -1 13 1 -44 7 -33 23 16 23 40 0 44 -2 44
-25 0 -22 -5 -25 -39 -25 -22 0 -47 4 -57 9 -9 6 -29 12 -44 16 -16 3 -28 10
-28 15 0 13 47 13 52 -1z"/>
<path d="M3480 2961 c0 -45 2 -48 25 -48 13 0 22 3 19 8 -3 5 -11 9 -17 9 -7
0 -13 8 -13 18 0 15 8 19 34 20 19 1 43 4 53 7 13 4 19 1 19 -9 0 -12 -12 -16
-47 -17 -27 -1 -40 -3 -30 -6 9 -2 17 -11 17 -19 0 -19 19 -18 26 1 4 9 20 15
43 16 20 1 28 3 19 6 -26 7 -24 49 2 49 16 0 20 -7 20 -33 0 -18 -4 -33 -10
-33 -5 0 -10 -4 -10 -10 0 -5 7 -10 15 -10 11 0 15 12 15 50 l0 50 -90 0 -90
0 0 -49z m105 29 c-26 -11 -95 -13 -95 -2 0 5 26 9 58 10 41 1 51 -1 37 -8z"/>
<path d="M3689 2973 l5 -38 6 30 c5 30 5 30 83 34 72 2 77 1 77 -18 0 -23 -48
-37 -100 -29 -17 3 -30 1 -30 -4 0 -4 21 -8 48 -8 32 0 42 -3 32 -9 -8 -6 -18
-7 -22 -5 -4 3 -8 1 -8 -3 0 -5 20 -9 45 -9 l45 1 0 47 0 48 -93 0 -93 0 5
-37z m171 -33 c0 -5 -7 -10 -16 -10 -8 0 -12 5 -9 10 3 6 10 10 16 10 5 0 9
-4 9 -10z"/>
<path d="M3890 2960 c0 -28 5 -50 10 -50 6 0 10 6 8 13 -4 15 1 17 52 17 22 0
40 -3 40 -8 0 -4 -19 -6 -42 -4 -24 3 -40 1 -36 -3 4 -4 40 -8 81 -10 l74 -2
2 48 1 49 -95 0 -95 0 0 -50z m30 36 c0 -3 -4 -8 -10 -11 -5 -3 -10 -1 -10 4
0 6 5 11 10 11 6 0 10 -2 10 -4z m82 -22 c-18 -24 -75 -34 -87 -14 -3 6 1 10
9 10 9 0 13 6 10 14 -4 11 5 14 40 14 l46 0 -18 -24z m61 -4 c-4 -14 -14 -20
-34 -20 -16 0 -29 5 -29 10 0 6 9 10 20 10 11 0 20 5 20 10 0 6 6 10 14 10 9
0 12 -7 9 -20z m-6 -36 c-3 -3 -12 -4 -19 -1 -8 3 -5 6 6 6 11 1 17 -2 13 -5z"/>
<path d="M4100 2960 c0 -27 5 -50 10 -50 6 0 8 11 6 25 -4 20 -1 25 15 25 10
0 19 5 19 11 0 6 -7 9 -15 6 -17 -7 -30 9 -15 18 5 3 23 -1 39 -10 17 -8 41
-15 55 -15 14 0 28 -4 31 -10 4 -6 -16 -11 -52 -11 -54 -2 -55 -2 -18 -8 58
-9 84 -3 82 20 -1 15 -9 19 -39 19 -21 0 -38 5 -38 10 0 6 20 9 45 8 44 -1 45
-2 45 -35 0 -29 -3 -33 -25 -33 -14 0 -25 -4 -25 -8 0 -5 14 -9 30 -9 29 0 30
2 30 49 l0 48 -90 0 -90 0 0 -50z"/>
<path d="M4310 2962 l0 -49 90 -1 90 -2 0 50 0 50 -90 0 -90 0 0 -48z m170 4
c0 -32 0 -32 -60 -38 -8 -1 -34 0 -57 0 -36 2 -43 5 -43 22 0 17 7 20 43 22
l42 1 -42 4 c-73 7 -47 21 37 21 l80 0 0 -32z"/>
<path d="M4438 2973 c7 -3 16 -2 19 1 4 3 -2 6 -13 5 -11 0 -14 -3 -6 -6z"/>
<path d="M4385 2950 l-60 -7 63 -1 c36 -1 62 2 62 8 0 6 -1 9 -2 8 -2 -1 -30
-4 -63 -8z"/>
<path d="M4510 2961 l0 -48 93 1 92 1 0 29 c0 16 -6 31 -13 34 -9 3 -11 -3 -6
-22 4 -18 2 -26 -7 -26 -9 0 -14 11 -14 30 0 24 4 30 23 30 12 0 22 5 22 10 0
6 -38 10 -95 10 l-95 0 0 -49z m134 17 c10 -47 5 -53 -40 -53 -53 0 -68 11
-17 13 20 1 41 6 47 12 8 8 -1 9 -31 4 -45 -7 -64 11 -20 19 12 2 5 4 -16 4
-22 0 -33 -3 -25 -8 7 -4 9 -11 5 -16 -10 -10 -27 16 -21 32 3 7 28 13 59 14
49 1 55 -1 59 -21z"/>
<path d="M4720 2963 l0 -48 90 -2 90 -3 0 50 0 50 -90 0 -90 0 0 -47z m110 30
c36 -4 41 -7 25 -14 -19 -7 -19 -8 2 -8 13 -1 23 6 26 17 2 9 4 0 4 -20 0 -29
-4 -38 -18 -38 -9 0 -24 -3 -33 -6 -9 -3 -16 -1 -16 5 0 6 3 10 8 10 28 -5 30
5 2 10 -19 4 -44 4 -55 2 -16 -4 -15 -6 10 -12 27 -6 26 -7 -12 -8 -42 -1 -43
0 -43 32 0 29 3 33 28 34 15 1 47 -1 72 -4z"/>
<path d="M4742 2960 c0 -14 2 -19 5 -12 2 6 2 18 0 25 -3 6 -5 1 -5 -13z"/>
<path d="M4760 2972 c0 -4 16 -6 35 -4 19 2 35 6 35 8 0 2 -16 4 -35 4 -19 0
-35 -4 -35 -8z"/>
<path d="M4930 2996 c0 -8 -3 -21 -6 -30 -3 -9 -1 -16 5 -16 6 0 11 11 11 25
0 25 1 25 79 25 69 0 79 -2 77 -17 -1 -18 -14 -33 -30 -33 -5 0 -3 6 3 14 9
11 5 15 -20 20 -17 3 -47 6 -65 6 -32 0 -33 -2 -30 -31 3 -26 1 -30 -16 -26
-12 4 -18 1 -15 -6 2 -7 21 -12 43 -13 45 0 61 5 44 16 -6 4 4 7 22 7 18 0 25
-2 16 -4 -32 -8 -19 -21 22 -21 l40 -1 0 50 0 49 -90 0 c-71 0 -90 -3 -90 -14z
m118 -33 c2 -9 -10 -13 -45 -12 -26 0 -42 3 -34 6 11 5 11 7 0 14 -9 6 1 9 30
7 25 -2 46 -9 49 -15z m49 -29 c-3 -3 -12 -4 -19 -1 -8 3 -5 6 6 6 11 1 17 -2
13 -5z"/>
<path d="M5130 2960 c0 -38 4 -50 15 -50 8 0 15 5 15 10 0 6 -4 10 -8 10 -4 0
-8 9 -9 21 -1 14 3 19 12 15 15 -5 65 15 65 27 0 4 20 6 45 5 25 0 48 2 52 5
3 4 -37 7 -90 7 l-97 0 0 -50z m60 29 c0 -5 -11 -9 -25 -9 -33 0 -33 15 0 16
14 1 25 -2 25 -7z"/>
<path d="M5340 2963 l0 -48 80 -1 80 -2 -1 37 c-2 29 -3 31 -6 9 -5 -30 -20
-35 -95 -30 -37 3 -48 8 -48 21 0 13 12 17 59 19 50 3 60 0 64 -15 4 -14 5
-13 6 5 1 21 -3 22 -64 22 -39 0 -65 4 -65 11 0 6 28 10 78 8 l77 -2 6 -46 6
-46 1 53 2 52 -90 0 -90 0 0 -47z"/>
<path d="M3800 2980 c0 -12 37 -14 44 -2 2 4 -6 9 -20 10 -13 1 -24 -3 -24 -8z"/>
<path d="M5291 2976 c-10 -12 -8 -13 8 -9 12 3 21 9 21 14 0 14 -16 11 -29 -5z"/>
<path d="M2898 2973 c12 -2 32 -2 45 0 12 2 2 4 -23 4 -25 0 -35 -2 -22 -4z"/>
<path d="M3625 2970 c-3 -5 -1 -10 4 -10 6 0 11 5 11 10 0 6 -2 10 -4 10 -3 0
-8 -4 -11 -10z"/>
<path d="M3710 2947 c0 -20 4 -37 10 -37 5 0 7 14 3 33 -8 45 -13 47 -13 4z"/>
<path d="M3730 2976 c0 -2 7 -6 15 -10 8 -3 15 -1 15 4 0 6 -7 10 -15 10 -8 0
-15 -2 -15 -4z"/>
<path d="M2940 2949 l-65 -6 70 -3 c40 -2 56 -5 38 -7 -49 -6 -40 -20 12 -19
25 1 45 2 45 4 0 1 -8 10 -17 20 -15 14 -29 16 -83 11z"/>
<path d="M5167 2948 c-7 -5 1 -8 18 -9 24 -1 25 -3 8 -6 -49 -9 -19 -21 50
-20 66 2 72 4 75 25 2 12 -2 22 -8 22 -7 0 -10 -6 -7 -14 4 -10 -4 -15 -29
-18 -19 -2 -34 -1 -34 3 0 4 12 9 28 11 15 2 1 6 -31 8 -33 3 -64 2 -70 -2z"/>
<path d="M5400 2950 l-45 -7 53 -1 c33 -1 51 2 47 8 -3 6 -7 9 -8 8 -1 0 -22
-4 -47 -8z"/>
<path d="M2403 2933 c-17 -6 -16 -23 1 -23 8 0 16 7 20 15 6 15 1 17 -21 8z"/>
<path d="M3385 2921 c-3 -6 3 -9 14 -8 11 0 17 5 15 9 -7 11 -22 10 -29 -1z"/>
<path d="M3580 2922 c0 -4 10 -9 22 -9 18 -2 20 0 8 7 -18 12 -30 13 -30 2z"/>
<path d="M3740 2922 c0 -5 7 -9 15 -9 8 0 15 4 15 9 0 4 -7 8 -15 8 -8 0 -15
-4 -15 -8z"/>
<path d="M4134 2922 c2 -4 21 -9 41 -10 23 -2 34 1 30 8 -3 5 -22 10 -41 10
-19 0 -33 -4 -30 -8z"/>
<path d="M1740 2838 l0 -48 90 0 90 0 0 50 c0 50 0 50 -32 50 -18 0 -40 -5
-48 -11 -11 -7 -5 -9 25 -7 40 3 40 3 43 -34 l3 -38 -65 0 c-54 0 -64 3 -60
15 4 9 0 15 -10 15 -10 0 -13 -5 -9 -17 4 -11 3 -14 -5 -9 -7 4 -12 23 -12 42
0 20 4 33 10 29 5 -3 7 -12 3 -20 -4 -12 4 -15 35 -15 23 0 43 4 46 9 4 5 -12
7 -36 4 -29 -4 -39 -3 -34 5 4 7 13 12 21 12 8 0 16 4 19 9 3 5 -12 8 -34 7
l-40 -1 0 -47z"/>
<path d="M1940 2838 l0 -48 95 0 95 0 0 50 c0 28 -4 50 -10 50 -5 0 -9 -19 -7
-42 2 -42 2 -42 -35 -45 -28 -3 -38 1 -38 11 0 8 10 17 23 19 12 2 1 5 -25 6
-28 0 -48 -3 -48 -10 0 -5 4 -8 9 -5 5 3 12 -1 15 -9 4 -12 0 -15 -22 -11 -15
2 -30 5 -34 5 -15 2 -8 59 7 65 12 4 14 0 10 -22 -5 -23 -4 -24 4 -6 12 27 38
37 59 24 15 -10 14 -10 -3 -6 -11 3 -27 1 -35 -4 -11 -7 -2 -10 33 -10 48 0
48 0 29 21 -16 16 -30 20 -71 18 l-51 -3 0 -48z"/>
<path d="M2070 2885 c0 -3 7 -14 16 -23 15 -14 16 -14 13 3 -4 17 -29 35 -29
20z"/>
<path d="M2150 2840 l0 -50 90 0 90 0 0 50 0 50 -42 -1 c-29 -2 -34 -3 -16 -6
14 -2 32 -11 39 -19 11 -13 6 -15 -34 -12 -33 2 -46 7 -42 16 2 6 0 12 -5 12
-6 0 -10 -19 -10 -42 0 -49 -8 -47 -12 3 -2 36 -12 49 -40 49 -15 0 -18 -9
-18 -50z m34 26 c8 3 11 -5 8 -29 -6 -51 -32 -45 -31 7 0 23 3 36 5 29 3 -7
11 -10 18 -7z m136 -46 c0 -17 -7 -20 -45 -20 -38 0 -45 3 -45 20 0 17 7 20
45 20 38 0 45 -3 45 -20z"/>
<path d="M2377 2870 c-9 -11 -17 -34 -17 -50 l0 -30 90 0 90 0 -1 53 c0 44 -2
48 -10 27 -6 -13 -15 -28 -22 -32 -8 -5 -5 -8 8 -8 20 -1 20 -1 1 -15 -12 -9
-39 -14 -70 -13 -47 1 -48 2 -11 5 59 6 68 23 13 23 -38 0 -47 4 -51 20 -4 15
-1 21 11 19 9 -1 40 0 67 1 45 2 47 3 22 10 -17 5 -39 5 -53 0 -15 -6 -24 -6
-24 0 0 17 -25 11 -43 -10z m9 -59 c-9 -12 -12 -11 -14 3 -2 9 -1 25 3 34 6
15 8 15 15 -3 4 -12 3 -26 -4 -34z"/>
<path d="M2560 2840 l0 -50 96 0 95 0 -3 47 c-2 29 -8 48 -17 51 -10 3 -11 0
-5 -9 21 -33 6 -49 -48 -49 -20 0 -40 -5 -44 -11 -4 -8 9 -10 45 -8 28 2 51 1
51 -3 0 -5 -33 -8 -74 -8 l-74 0 -4 35 c-3 27 0 35 12 35 8 0 22 5 30 10 11 7
5 10 -22 10 l-38 0 0 -50z"/>
<path d="M2640 2886 c0 -2 7 -6 15 -10 8 -3 15 -1 15 4 0 6 -7 10 -15 10 -8 0
-15 -2 -15 -4z"/>
<path d="M2695 2880 c3 -5 8 -10 11 -10 2 0 4 5 4 10 0 6 -5 10 -11 10 -5 0
-7 -4 -4 -10z"/>
<path d="M2770 2839 l0 -49 90 0 90 0 0 50 c0 43 -3 50 -20 50 -12 0 -20 -7
-21 -17 0 -15 -2 -15 -9 2 -7 16 -9 14 -9 -15 0 -29 1 -32 10 -17 6 9 14 15
20 12 5 -3 6 1 3 9 -3 9 -1 16 5 16 6 0 11 -17 11 -40 0 -33 -3 -40 -19 -40
-11 0 -22 6 -24 13 -4 10 -6 10 -6 0 -1 -20 -111 -18 -111 2 0 8 5 15 10 15 6
0 10 -3 10 -8 0 -4 18 -7 40 -7 22 0 40 3 40 7 0 5 -15 8 -34 8 -19 0 -41 3
-50 6 -18 7 -21 30 -6 39 6 4 10 3 9 -2 -5 -26 4 -33 41 -33 35 0 40 3 40 24
0 21 -4 23 -55 24 l-55 0 0 -49z m100 30 c0 -4 -16 -7 -35 -7 -19 0 -33 4 -30
9 6 9 65 7 65 -2z"/>
<path d="M2973 2873 c-8 -21 6 -29 27 -15 24 15 33 15 25 1 -8 -13 23 -38 48
-39 9 0 17 5 17 10 0 6 7 10 16 10 13 0 14 -3 5 -14 -9 -11 -9 -15 1 -18 7 -3
-15 -6 -49 -7 -34 -1 -64 3 -68 9 -10 16 -25 12 -19 -5 5 -12 25 -15 95 -15
l89 0 0 51 0 50 -91 -2 c-66 -2 -92 -6 -96 -16z m177 -3 c0 -5 -8 -11 -17 -11
-16 -1 -16 -2 -2 -6 11 -2 16 -13 15 -29 -1 -25 -21 -28 -21 -3 0 8 -4 19 -8
26 -4 7 0 16 10 22 23 13 23 13 23 1z"/>
<path d="M3180 2840 l0 -50 96 0 c84 0 95 2 90 16 -3 9 -6 31 -6 50 l0 34 -90
0 -90 0 0 -50z m168 5 c3 -34 -11 -48 -21 -22 -4 9 -8 8 -16 -3 -5 -8 -14 -11
-18 -6 -4 4 -1 13 8 19 8 7 18 20 22 30 10 28 23 20 25 -18z"/>
<path d="M3388 2840 l-3 -50 93 0 92 0 0 48 c0 48 0 48 -36 50 -28 2 -41 -3
-62 -26 -15 -16 -33 -27 -39 -25 -7 3 -13 0 -13 -5 0 -6 6 -13 13 -16 6 -3 3
-5 -8 -3 -23 3 -34 37 -12 37 15 0 32 29 22 38 -3 3 -5 -1 -5 -8 0 -11 -3 -11
-12 -2 -21 21 -26 14 -30 -38z m152 11 c0 -16 -7 -34 -15 -41 -10 -9 -15 -9
-15 -1 0 6 5 11 10 11 6 0 10 5 10 11 0 5 -5 7 -10 4 -16 -10 -41 20 -27 34
22 22 47 13 47 -18z m16 -49 c-11 -10 -14 3 -7 38 l6 35 3 -33 c2 -19 1 -36
-2 -40z m-66 18 c0 -5 -7 -10 -15 -10 -8 0 -15 5 -15 10 0 6 7 10 15 10 8 0
15 -4 15 -10z"/>
<path d="M3510 2860 c0 -5 5 -10 11 -10 5 0 7 5 4 10 -3 6 -8 10 -11 10 -2 0
-4 -4 -4 -10z"/>
<path d="M3450 2879 c0 -5 5 -7 10 -4 6 3 10 8 10 11 0 2 -4 4 -10 4 -5 0 -10
-5 -10 -11z"/>
<path d="M3595 2847 c2 -23 4 -45 4 -49 1 -5 42 -8 91 -8 l90 0 -1 53 c-1 28
-3 44 -6 35 -5 -20 -43 -33 -73 -25 -11 3 -23 1 -26 -5 -4 -6 11 -9 43 -7 38
3 49 1 50 -11 1 -12 -9 -14 -48 -12 -33 3 -49 0 -49 -8 0 -6 -11 -10 -27 -8
-20 2 -28 9 -28 23 0 11 -3 22 -7 25 -4 3 -3 12 2 20 6 8 10 10 10 5 0 -7 15
-9 35 -7 51 6 43 17 -14 19 l-49 1 3 -41z m138 -44 c-7 -2 -19 -2 -25 0 -7 3
-2 5 12 5 14 0 19 -2 13 -5z"/>
<path d="M3700 2873 c0 -14 2 -15 9 -4 5 7 14 10 20 7 6 -4 11 -2 11 3 0 6 -9
11 -20 11 -12 0 -20 -7 -20 -17z"/>
<path d="M3800 2838 l0 -48 93 0 92 0 2 50 c2 31 -2 50 -8 50 -6 0 -9 -7 -6
-15 4 -8 2 -17 -2 -19 -5 -3 -6 -16 -4 -30 4 -20 1 -23 -21 -23 -14 0 -26 3
-26 8 0 5 8 9 18 9 14 0 15 2 2 10 -8 5 -17 5 -20 0 -3 -4 -25 1 -49 12 -36
16 -45 17 -52 6 -12 -18 -11 -1 0 21 7 13 6 18 -5 18 -10 0 -14 -13 -14 -49z
m55 -6 c-3 -4 9 -12 27 -18 l33 -12 -41 -1 c-28 -1 -46 5 -55 16 -12 15 -12
16 5 10 13 -5 17 -3 13 7 -4 10 -1 13 9 9 8 -3 12 -8 9 -11z"/>
<path d="M3840 2881 c0 -5 7 -11 14 -14 10 -4 13 -1 9 9 -6 15 -23 19 -23 5z"/>
<path d="M3926 2874 c-3 -9 -6 -18 -6 -20 0 -8 29 -4 35 6 4 6 -1 7 -12 3 -16
-6 -16 -5 -4 10 7 9 9 17 3 17 -5 0 -13 -7 -16 -16z"/>
<path d="M4010 2840 l0 -50 90 0 90 0 0 50 c0 28 -4 50 -10 50 -5 0 -7 -14 -3
-32 5 -27 3 -31 -8 -20 -7 6 -31 11 -53 10 l-41 -1 45 -6 c30 -4 46 -11 48
-22 2 -13 -9 -16 -73 -16 l-75 0 0 34 c0 20 4 32 10 28 6 -3 7 1 4 9 -12 32
-24 15 -24 -34z"/>
<path d="M4050 2881 c0 -16 28 -20 40 -5 8 9 9 14 2 14 -6 0 -13 -6 -15 -12
-4 -10 -6 -10 -6 0 -1 14 -21 17 -21 3z"/>
<path d="M4115 2880 c3 -5 13 -10 21 -10 8 0 14 5 14 10 0 6 -9 10 -21 10 -11
0 -17 -4 -14 -10z"/>
<path d="M4219 2885 c-1 0 -3 -21 -5 -47 l-3 -48 95 0 94 0 0 50 0 50 -45 0
c-25 0 -45 -4 -45 -10 0 -5 17 -10 38 -10 38 0 38 0 34 -35 -4 -32 -22 -51
-22 -23 0 9 -3 9 -12 0 -7 -7 -36 -12 -65 -12 -48 0 -53 2 -53 23 0 20 4 22
48 20 26 0 34 1 17 3 -64 9 -80 15 -65 24 7 4 19 6 26 3 6 -2 15 1 19 7 4 7
-4 10 -24 8 -17 -1 -32 -2 -32 -3z"/>
<path d="M4291 2874 c0 -11 3 -14 6 -6 3 7 2 16 -1 19 -3 4 -6 -2 -5 -13z"/>
<path d="M4420 2840 l0 -50 94 0 94 0 -2 45 c-2 41 -16 78 -16 42 0 -9 -6 -16
-12 -14 -8 1 -12 -7 -11 -20 2 -19 -1 -21 -39 -15 -31 4 -44 1 -53 -12 -19
-25 -46 -10 -43 25 1 16 6 29 10 29 4 0 8 5 8 10 0 6 -7 10 -15 10 -11 0 -15
-12 -15 -50z m173 3 c-3 -7 -9 -10 -14 -7 -14 8 -11 21 5 21 8 0 12 -6 9 -14z
m2 -33 c-3 -5 -10 -10 -16 -10 -5 0 -9 5 -9 10 0 6 7 10 16 10 8 0 12 -4 9
-10z m-52 -7 c-13 -2 -33 -2 -45 0 -13 2 -3 4 22 4 25 0 35 -2 23 -4z"/>
<path d="M4470 2880 c0 -5 7 -7 15 -4 9 4 15 0 15 -7 0 -11 3 -11 10 1 9 13
10 13 10 0 0 -12 2 -13 9 -1 5 7 13 11 19 7 6 -3 13 -2 17 4 4 6 -13 10 -44
10 -28 0 -51 -4 -51 -10z"/>
<path d="M4630 2840 l0 -50 90 0 90 0 -2 53 -2 52 -3 -47 -4 -47 -80 0 -79 0
0 39 c0 29 4 40 15 40 8 0 15 -3 15 -7 0 -5 11 -8 25 -8 14 0 25 3 25 7 0 4 6
5 13 2 7 -2 24 0 38 5 18 7 4 9 -58 10 l-83 0 0 -49z"/>
<path d="M4830 2841 l0 -51 95 0 95 0 0 50 c0 28 -4 50 -9 50 -14 0 -19 -23
-10 -47 8 -22 -11 -50 -24 -36 -12 11 -8 25 5 17 8 -5 9 -2 5 10 -4 10 -7 20
-7 22 0 2 -5 4 -11 4 -5 0 -8 -4 -5 -9 8 -12 -103 -19 -115 -6 -13 13 -11 28
2 19 7 -4 10 -1 7 6 -2 8 -10 16 -16 18 -8 2 -12 -12 -12 -47z m88 -22 c25 1
42 -3 42 -9 0 -17 -98 -9 -113 9 -10 12 -9 13 8 6 11 -4 39 -7 63 -6z"/>
<path d="M4880 2880 c0 -5 5 -10 10 -10 6 0 10 5 10 10 0 6 -4 10 -10 10 -5 0
-10 -4 -10 -10z"/>
<path d="M5040 2840 l0 -50 90 0 90 0 0 52 c0 28 -3 49 -6 46 -3 -3 -5 -24 -6
-47 l0 -41 -79 0 c-44 0 -79 4 -79 10 0 5 7 7 15 4 8 -4 15 -1 15 5 0 6 -7 11
-16 11 -12 0 -15 7 -12 30 3 17 1 30 -4 30 -4 0 -8 -22 -8 -50z"/>
<path d="M5066 2874 c-9 -23 -7 -34 4 -34 6 0 10 7 10 15 0 8 5 15 10 15 6 0
10 5 10 10 0 16 -27 11 -34 -6z"/>
<path d="M5130 2875 c0 -8 -4 -15 -10 -15 -5 0 -10 -7 -10 -15 0 -8 -4 -15
-10 -15 -5 0 -10 -4 -10 -8 0 -5 25 -10 55 -11 65 -2 75 16 13 22 l-43 4 43 1
c38 2 42 5 42 27 0 16 -6 25 -16 25 -13 0 -14 -3 -5 -14 9 -11 6 -13 -14 -13
-20 0 -23 2 -14 13 9 11 8 14 -5 14 -9 0 -16 -7 -16 -15z"/>
<path d="M5252 2840 l0 -50 89 0 89 0 0 50 c0 43 -3 50 -20 50 -11 0 -20 -5
-20 -11 0 -5 5 -7 11 -3 8 4 9 0 4 -15 -4 -12 -2 -21 4 -21 6 0 11 -4 11 -8 0
-8 -92 -6 -138 4 -18 4 -20 7 -10 18 8 9 17 11 23 5 5 -5 26 -9 47 -9 33 0 38
3 37 23 -1 16 -2 18 -6 5 -2 -10 -11 -18 -18 -18 -10 0 -12 6 -8 18 7 16 6 16
-11 0 -22 -22 -35 -23 -42 -3 -6 14 -8 13 -20 -2 -13 -17 -14 -17 -8 0 3 9 1
17 -4 17 -6 0 -11 -22 -10 -50z m164 -33 c5 -4 -25 -7 -66 -5 -40 2 -75 8 -77
13 -4 12 131 4 143 -8z"/>
<path d="M5300 2880 c0 -5 5 -10 10 -10 6 0 10 5 10 10 0 6 -4 10 -10 10 -5 0
-10 -4 -10 -10z"/>
<path d="M5454 2840 l0 -50 33 0 c33 0 33 0 33 50 0 50 0 50 -33 50 -32 0 -32
0 -33 -50z m56 0 c0 -42 -17 -53 -39 -27 -8 10 -7 17 1 25 9 9 9 12 -1 12 -11
0 -11 3 -1 15 23 28 40 18 40 -25z"/>
<path d="M5491 2824 c0 -11 3 -14 6 -6 3 7 2 16 -1 19 -3 4 -6 -2 -5 -13z"/>
<path d="M4938 2873 c7 -3 16 -2 19 1 4 3 -2 6 -13 5 -11 0 -14 -3 -6 -6z"/>
<path d="M1880 2841 c0 -12 5 -21 10 -21 6 0 10 6 10 14 0 8 -4 18 -10 21 -5
3 -10 -3 -10 -14z"/>
<path d="M2594 2849 c-3 -5 6 -9 20 -9 31 0 34 6 6 13 -11 3 -23 1 -26 -4z"/>
<path d="M4037 2853 c-6 -13 -2 -33 7 -35 5 -2 11 7 12 20 4 20 -10 31 -19 15z"/>
<path d="M4335 2850 c-3 -5 3 -10 15 -10 12 0 18 5 15 10 -3 6 -10 10 -15 10
-5 0 -12 -4 -15 -10z"/>
<path d="M3634 2837 c-8 -21 2 -35 16 -21 5 5 6 15 0 24 -8 12 -10 12 -16 -3z"/>
<path d="M4488 2843 c6 -2 18 -2 25 0 6 3 1 5 -13 5 -14 0 -19 -2 -12 -5z"/>
<path d="M4673 2843 c9 -2 25 -2 35 0 9 3 1 5 -18 5 -19 0 -27 -2 -17 -5z"/>
<path d="M4752 2833 c5 -24 27 -28 25 -4 -1 12 -7 21 -15 21 -7 0 -12 -8 -10
-17z"/>
<path d="M2090 2830 c0 -5 5 -10 10 -10 6 0 10 5 10 10 0 6 -4 10 -10 10 -5 0
-10 -4 -10 -10z"/>
<path d="M2999 2825 c40 -18 41 -18 41 -4 0 5 -4 8 -9 4 -5 -3 -12 -1 -16 5
-3 5 -16 10 -28 10 -18 -1 -15 -4 12 -15z"/>
<path d="M4448 2833 c7 -3 16 -2 19 1 4 3 -2 6 -13 5 -11 0 -14 -3 -6 -6z"/>
<path d="M1810 2820 c0 -5 5 -10 10 -10 6 0 10 5 10 10 0 6 -4 10 -10 10 -5 0
-10 -4 -10 -10z"/>
<path d="M2595 2820 c-3 -5 1 -10 10 -10 9 0 13 5 10 10 -3 6 -8 10 -10 10 -2
0 -7 -4 -10 -10z"/>
<path d="M4280 2820 l-45 -7 53 -1 c29 -1 52 2 52 8 0 6 -3 9 -7 8 -5 0 -28
-4 -53 -8z"/>
<path d="M4668 2813 c6 -2 18 -2 25 0 6 3 1 5 -13 5 -14 0 -19 -2 -12 -5z"/>
<path d="M3270 2738 c0 -25 3 -29 10 -18 5 8 10 10 10 5 0 -6 -6 -17 -12 -24
-10 -11 -10 -13 0 -7 6 4 12 3 12 -3 0 -5 -6 -12 -12 -14 -21 -9 16 -11 129
-8 l52 1 -1 50 0 50 -94 0 -94 0 0 -32z m167 -14 c-3 -3 -12 -4 -19 -1 -8 3
-5 6 6 6 11 1 17 -2 13 -5z m-7 -29 c0 -5 5 -3 10 5 8 13 10 12 10 -2 0 -13
-8 -18 -30 -18 -17 0 -30 5 -30 13 0 8 -4 7 -10 -3 -5 -8 -10 -10 -10 -4 0 6
3 13 6 16 9 10 54 4 54 -7z"/>
<path d="M1740 2715 l0 -45 38 1 c36 1 36 2 7 8 -25 5 -30 11 -32 39 -1 17 2
32 7 32 4 0 7 -12 6 -28 -1 -22 2 -27 23 -29 17 -1 20 1 10 8 -10 6 -10 9 -2
9 7 0 12 11 11 25 -2 21 -7 25 -35 25 -32 0 -33 -1 -33 -45z m55 26 c3 -5 1
-12 -5 -16 -5 -3 -10 1 -10 9 0 18 6 21 15 7z"/>
<path d="M1830 2715 l0 -45 48 2 47 1 -40 6 c-31 5 -41 11 -43 28 -3 21 1 22
79 25 55 2 84 7 87 16 3 9 -19 12 -87 12 l-91 0 0 -45z m133 28 c-24 -2 -62
-2 -85 0 -24 2 -5 4 42 4 47 0 66 -2 43 -4z"/>
<path d="M2288 2753 c29 -2 74 -2 100 0 26 2 2 3 -53 3 -55 0 -76 -1 -47 -3z"/>
<path d="M2478 2753 c17 -2 47 -2 65 0 17 2 3 4 -33 4 -36 0 -50 -2 -32 -4z"/>
<path d="M2693 2753 c26 -2 67 -2 90 0 23 2 2 3 -48 3 -49 0 -68 -1 -42 -3z"/>
<path d="M5130 2715 l0 -45 95 0 94 0 -1 45 -1 45 -93 0 -94 0 0 -45z m34 20
c-4 -8 -10 -15 -15 -15 -5 0 -9 7 -9 15 0 8 7 15 15 15 9 0 12 -6 9 -15z m146
7 c0 -5 -26 -7 -57 -5 -84 6 -88 11 -10 12 37 1 67 -3 67 -7z m-126 -26 c-3
-8 0 -17 6 -21 6 -3 10 -3 9 2 -4 24 5 29 46 28 25 -1 48 -5 52 -8 3 -4 1 -7
-5 -7 -7 0 -12 -5 -12 -11 0 -5 4 -8 9 -4 5 3 12 1 16 -5 4 -6 -24 -10 -79
-10 -70 0 -86 3 -86 15 0 8 5 15 11 15 5 0 7 -5 3 -12 -4 -7 -3 -8 4 -4 7 4
12 14 12 22 0 8 4 14 10 14 5 0 7 -6 4 -14z"/>
<path d="M5210 2699 c0 -5 5 -7 10 -4 6 3 10 8 10 11 0 2 -4 4 -10 4 -5 0 -10
-5 -10 -11z"/>
<path d="M5250 2699 c0 -5 5 -7 10 -4 6 3 10 8 10 11 0 2 -4 4 -10 4 -5 0 -10
-5 -10 -11z"/>
<path d="M5340 2715 l0 -45 90 0 90 0 0 45 0 45 -90 0 -90 0 0 -45z m170 0 l0
-35 -78 0 -78 0 -2 35 -3 35 81 0 80 0 0 -35z"/>
<path d="M5400 2730 l45 -7 -44 -1 c-34 -2 -42 -5 -33 -14 13 -13 76 -22 68
-9 -3 5 1 12 10 15 29 11 3 26 -44 24 l-47 -1 45 -7z"/>
<path d="M5491 2724 c0 -11 3 -14 6 -6 3 7 2 16 -1 19 -3 4 -6 -2 -5 -13z"/>
<path d="M1880 2713 c14 -3 30 -9 35 -13 6 -5 19 -2 29 6 18 13 15 14 -35 13
-30 -1 -43 -4 -29 -6z"/>
<path d="M1980 2689 c0 -6 -6 -9 -13 -6 -8 3 -20 1 -28 -4 -10 -6 -3 -9 23 -9
29 0 36 3 32 15 -7 18 -14 20 -14 4z"/>
<path d="M1740 2588 l5 -53 3 48 3 47 80 0 c43 0 79 -4 79 -9 0 -4 -11 -7 -25
-6 -14 2 -25 -1 -25 -6 0 -5 11 -9 25 -9 18 0 25 -5 25 -20 0 -21 -10 -23
-102 -20 -30 1 -48 -3 -48 -10 0 -7 26 -10 80 -9 l80 2 0 48 0 49 -92 0 -93 0
5 -52z"/>
<path d="M1940 2593 c0 -46 1 -48 30 -50 18 -1 28 2 25 7 -4 6 -15 10 -26 10
-12 0 -19 7 -19 20 0 15 7 20 25 20 18 0 25 5 25 20 0 16 -7 20 -30 20 -29 0
-30 -1 -30 -47z m43 20 c-7 -2 -19 -2 -25 0 -7 3 -2 5 12 5 14 0 19 -2 13 -5z"/>
<path d="M3180 2591 l0 -48 89 -2 c53 -1 92 2 96 9 3 5 -2 10 -12 10 -12 0
-14 3 -6 8 7 4 14 22 18 40 l5 32 -57 -1 c-42 0 -52 -3 -38 -9 14 -6 4 -8 -35
-8 -49 1 -51 1 -20 8 l35 7 -37 2 -38 1 0 -49z m68 2 c-68 -6 -59 -20 12 -20
53 0 82 -7 69 -16 -2 -2 -33 -1 -69 2 -51 5 -66 10 -68 24 -3 15 4 17 50 15
l53 -2 -47 -3z"/>
<path d="M5040 2593 l0 -48 90 -3 90 -4 0 51 0 51 -90 0 -90 0 0 -47z m170 0
l0 -38 -80 3 -80 4 0 34 0 34 80 0 80 0 0 -37z"/>
<path d="M5064 2608 c-3 -4 4 -8 15 -8 12 0 21 4 21 8 0 5 -7 9 -15 9 -9 0
-18 -4 -21 -9z"/>
<path d="M5110 2608 c0 -5 20 -8 45 -8 25 0 45 5 45 10 0 6 -20 9 -45 8 -25
-2 -45 -6 -45 -10z"/>
<path d="M5085 2580 c45 -11 115 -11 115 0 0 6 -30 10 -72 9 -55 -1 -66 -3
-43 -9z"/>
<path d="M5250 2590 l0 -50 90 0 90 0 0 50 0 50 -90 0 -90 0 0 -50z m73 33
c-13 -2 -33 -2 -45 0 -13 2 -3 4 22 4 25 0 35 -2 23 -4z m60 0 c-7 -2 -19 -2
-25 0 -7 3 -2 5 12 5 14 0 19 -2 13 -5z m37 -3 c0 -5 -4 -10 -10 -10 -5 0 -10
5 -10 10 0 6 5 10 10 10 6 0 10 -4 10 -10z m0 -40 c0 -16 -10 -19 -80 -22 -75
-3 -80 -2 -80 18 0 11 2 23 4 25 2 2 38 3 80 1 66 -3 76 -6 76 -22z"/>
<path d="M5275 2580 c-4 -6 12 -10 39 -10 25 0 46 5 46 10 0 6 -18 10 -39 10
-22 0 -43 -4 -46 -10z"/>
<path d="M5450 2590 c0 -47 2 -50 25 -50 14 0 25 5 25 10 0 6 -9 10 -20 10
-11 0 -20 5 -20 11 0 5 5 7 10 4 6 -3 10 -2 10 4 0 5 -6 12 -12 14 -7 3 -3 6
10 6 12 1 22 6 22 12 0 6 -9 9 -20 6 -11 -3 -18 -1 -14 4 3 5 14 9 24 9 15 0
20 -9 23 -47 l3 -48 2 53 2 52 -35 0 -35 0 0 -50z"/>
<path d="M1800 2610 l-45 -7 48 -1 c26 -1 47 3 47 8 0 6 -1 9 -2 8 -2 0 -23
-4 -48 -8z"/>
<path d="M1770 2580 c20 -13 130 -13 130 0 0 6 -31 10 -72 10 -51 0 -68 -3
-58 -10z"/>
<path d="M1980 2580 c0 -5 5 -10 10 -10 6 0 10 5 10 10 0 6 -4 10 -10 10 -5 0
-10 -4 -10 -10z"/>
<path d="M1830 2470 l0 -50 83 0 83 0 2 35 c2 27 -1 35 -14 35 -12 0 -14 -4
-6 -12 5 -8 6 -22 1 -33 -5 -14 -8 -16 -8 -4 -1 12 -14 16 -53 17 -49 2 -52 1
-34 -13 21 -16 15 -18 -21 -9 -13 4 -23 14 -23 25 0 14 9 19 43 22 l42 4 -42
1 c-75 3 -46 21 40 25 l82 3 -87 2 -88 2 0 -50z m100 -30 c0 -5 -5 -10 -11
-10 -5 0 -7 5 -4 10 3 6 8 10 11 10 2 0 4 -4 4 -10z"/>
<path d="M3270 2470 l0 -50 95 0 95 0 0 50 0 50 -95 0 -95 0 0 -50z m110 30
c0 -5 6 -10 14 -10 9 0 12 -7 10 -17 -4 -15 -14 -17 -64 -15 -54 3 -60 6 -60
26 0 20 6 23 50 25 30 1 50 -2 50 -9z m50 -31 c0 -11 -4 -18 -10 -14 -5 3 -7
12 -3 20 7 21 13 19 13 -6z m-80 -29 c0 -5 -16 -10 -36 -10 -21 0 -33 4 -29
10 3 6 19 10 36 10 16 0 29 -4 29 -10z m35 0 c3 -5 -1 -10 -10 -10 -9 0 -13 5
-10 10 3 6 8 10 10 10 2 0 7 -4 10 -10z m60 0 c-3 -5 -16 -10 -28 -9 -20 1
-20 2 3 9 14 4 26 8 28 9 2 1 0 -3 -3 -9z"/>
<path d="M5131 2470 l-2 -50 96 0 95 0 0 27 c0 14 -3 23 -7 19 -5 -4 -8 -13
-8 -19 0 -7 -19 -13 -42 -15 -28 -2 -43 1 -43 8 0 7 7 10 15 6 8 -3 15 -1 15
4 0 5 -15 8 -32 7 -18 -2 -41 0 -50 5 -13 6 -18 5 -18 -7 0 -9 4 -14 9 -10 5
3 12 1 16 -5 3 -5 -3 -10 -14 -10 -17 0 -21 6 -21 30 0 21 4 28 14 24 7 -3 16
2 19 10 8 20 107 23 107 4 0 -9 3 -8 10 2 5 8 12 12 15 8 3 -3 -2 -14 -12 -24
-17 -17 -17 -18 0 -11 10 4 21 7 23 7 2 0 4 8 4 19 0 17 -9 19 -93 20 l-93 2
-3 -51z m39 36 c0 -3 -4 -8 -10 -11 -5 -3 -10 -1 -10 4 0 6 5 11 10 11 6 0 10
-2 10 -4z m40 -66 c0 -5 -5 -10 -11 -10 -5 0 -7 5 -4 10 3 6 8 10 11 10 2 0 4
-4 4 -10z"/>
<path d="M5340 2470 l0 -50 90 0 90 0 0 50 0 50 -90 0 -90 0 0 -50z m140 3 c0
-18 -2 -33 -4 -33 -2 0 -11 -3 -20 -6 -9 -3 -16 -1 -16 5 0 6 8 11 18 12 10 0
12 3 5 6 -7 2 -13 11 -13 19 0 8 -10 14 -22 14 -21 -1 -22 -2 -5 -14 25 -19
11 -46 -24 -46 -19 0 -29 5 -29 15 0 8 -4 15 -9 15 -5 0 -8 11 -8 25 0 25 1
26 63 24 l64 -2 0 -34z m30 -3 c0 -22 -4 -40 -8 -40 -5 0 -9 18 -10 40 -1 22
3 40 8 40 6 0 10 -18 10 -40z"/>
<path d="M5380 2452 c0 -4 9 -8 20 -8 11 0 20 4 20 8 0 4 -9 8 -20 8 -11 0
-20 -4 -20 -8z"/>
<path d="M5191 2484 c0 -11 3 -14 6 -6 3 7 2 16 -1 19 -3 4 -6 -2 -5 -13z"/>
<path d="M1940 2348 c0 -47 1 -48 30 -48 17 0 30 4 30 9 0 4 -11 6 -23 4 -21
-4 -24 -1 -25 31 -1 31 2 35 26 38 26 3 26 4 -5 9 l-33 6 0 -49z"/>
<path d="M5475 2390 l-30 -8 33 -1 c17 0 32 4 32 9 0 6 -1 9 -2 9 -2 -1 -16
-5 -33 -9z"/>
<path d="M3180 2345 l0 -45 93 0 92 0 0 45 0 45 -50 -2 -50 -1 45 -7 c25 -4
35 -8 23 -8 -13 -1 -23 -6 -23 -11 0 -5 8 -7 19 -4 14 4 19 -1 19 -19 0 -24
-3 -25 -79 -26 l-79 -2 0 34 c0 33 2 35 38 39 l37 4 -42 1 -43 2 0 -45z"/>
<path d="M5005 2345 c0 -25 3 -45 7 -45 5 0 8 20 8 45 0 25 -3 45 -7 45 -5 0
-8 -20 -8 -45z"/>
<path d="M5040 2345 l0 -45 93 0 93 0 -4 36 c-3 26 -8 34 -19 30 -8 -3 -20 -6
-26 -7 -7 -1 -1 -5 13 -9 19 -6 12 -8 -32 -9 -46 -1 -57 2 -61 17 -4 16 -5 16
-6 0 0 -10 -9 -18 -18 -19 -15 0 -15 -2 2 -8 11 -5 46 -6 78 -4 35 2 57 0 57
-7 0 -6 -32 -10 -80 -10 l-80 0 0 34 c0 33 2 35 38 39 l37 4 -42 1 -43 2 0
-45z"/>
<path d="M5153 2383 c15 -2 37 -2 50 0 12 2 0 4 -28 4 -27 0 -38 -2 -22 -4z"/>
<path d="M5250 2345 l0 -45 90 0 90 0 0 45 0 45 -37 -1 c-37 -2 -37 -2 -8 -8
25 -5 31 -11 33 -38 2 -19 -1 -33 -7 -33 -6 0 -11 7 -11 15 0 12 -14 15 -62
16 -35 1 -66 1 -70 0 -5 0 -8 8 -8 18 0 15 8 21 33 24 31 4 31 4 -5 5 l-38 2
0 -45z m110 -25 c0 -5 -20 -10 -44 -10 -25 0 -48 5 -51 10 -4 6 13 10 44 10
28 0 51 -4 51 -10z"/>
<path d="M1783 2363 c9 -2 23 -2 30 0 6 3 -1 5 -18 5 -16 0 -22 -2 -12 -5z"/>
<path d="M1835 2360 c3 -5 8 -10 11 -10 2 0 4 5 4 10 0 6 -5 10 -11 10 -5 0
-7 -4 -4 -10z"/>
<path d="M1977 2350 c3 -11 9 -20 14 -20 5 0 9 9 9 20 0 11 -6 20 -14 20 -9 0
-12 -7 -9 -20z"/>
<path d="M3200 2362 c0 -10 76 -9 86 1 4 4 -14 7 -39 7 -26 0 -47 -4 -47 -8z"/>
<path d="M5128 2363 c7 -3 16 -2 19 1 4 3 -2 6 -13 5 -11 0 -14 -3 -6 -6z"/>
<path d="M5271 2366 c12 -10 99 -16 99 -7 0 7 -22 11 -52 11 -28 0 -49 -2 -47
-4z"/>
<path d="M5380 2360 c0 -5 5 -10 10 -10 6 0 10 5 10 10 0 6 -4 10 -10 10 -5 0
-10 -4 -10 -10z"/>
<path d="M5450 2350 c0 -11 5 -20 10 -20 6 0 10 9 10 20 0 11 -4 20 -10 20 -5
0 -10 -9 -10 -20z"/>
<path d="M5497 2350 c-3 -11 -1 -20 4 -20 5 0 9 9 9 20 0 11 -2 20 -4 20 -2 0
-6 -9 -9 -20z"/>
<path d="M3223 2333 c15 -2 37 -2 50 0 12 2 0 4 -28 4 -27 0 -38 -2 -22 -4z"/>
<path d="M3308 2333 c7 -3 16 -2 19 1 4 3 -2 6 -13 5 -11 0 -14 -3 -6 -6z"/>
<path d="M3318 2263 c30 -2 50 -8 47 -14 -4 -5 -1 -9 4 -9 6 0 11 5 11 10 0
17 18 11 23 -7 4 -17 5 -17 6 0 1 18 41 25 41 6 0 -5 -4 -7 -10 -4 -5 3 -10 1
-10 -4 0 -6 4 -11 8 -11 13 0 11 -34 -2 -42 -7 -5 -4 -8 7 -8 14 0 17 9 17 45
l0 45 -97 -2 c-59 -1 -77 -3 -45 -5z"/>
<path d="M3480 2218 c0 -28 3 -48 7 -45 9 10 11 97 1 97 -4 0 -8 -23 -8 -52z"/>
<path d="M5130 2225 c0 -49 -3 -47 90 -47 11 0 38 0 60 1 l40 1 0 45 0 45 -95
0 -95 0 0 -45z m60 24 c0 -5 -3 -8 -7 -8 -18 3 -33 -2 -33 -10 0 -14 41 0 47
15 3 8 13 14 22 13 10 0 11 -2 4 -6 -7 -2 -13 -11 -13 -19 0 -8 -6 -14 -12
-15 -10 0 -10 -2 0 -6 24 -10 11 -23 -23 -23 -32 0 -35 3 -35 28 0 16 2 31 5
33 8 9 45 8 45 -2z m85 -10 c-5 -15 -4 -19 4 -15 6 4 11 2 11 -4 0 -7 -6 -10
-12 -7 -7 2 -12 12 -12 21 1 9 -2 16 -7 16 -11 0 -11 -21 0 -39 5 -8 16 -11
30 -6 12 4 21 2 21 -4 0 -6 -20 -11 -45 -11 -39 0 -45 3 -45 20 0 27 20 49 43
50 14 0 17 -5 12 -21z m35 -7 c0 -15 -2 -15 -10 -2 -13 20 -13 33 0 25 6 -3
10 -14 10 -23z"/>
<path d="M5155 2210 c-3 -5 1 -10 9 -10 9 0 16 5 16 10 0 6 -4 10 -9 10 -6 0
-13 -4 -16 -10z"/>
<path d="M5231 2214 c0 -11 3 -14 6 -6 3 7 2 16 -1 19 -3 4 -6 -2 -5 -13z"/>
<path d="M3270 2215 l0 -35 78 2 77 2 -72 5 c-46 4 -70 10 -65 16 8 11 62 17
62 6 0 -4 10 -7 23 -8 12 0 16 1 9 4 -6 3 -10 9 -6 14 3 5 2 9 -3 8 -4 -1 -28
-1 -53 1 -35 1 -41 3 -25 10 19 8 19 9 -2 9 -20 1 -23 -4 -23 -34z"/>
<path d="M5027 2234 c-8 -8 3 -34 14 -34 5 0 9 9 9 20 0 19 -11 26 -23 14z"/>
<path d="M1973 2215 c0 -18 19 -15 25 3 2 7 -3 12 -10 12 -8 0 -15 -7 -15 -15z"/>
<path d="M5000 2214 c0 -8 5 -12 10 -9 6 4 8 11 5 16 -9 14 -15 11 -15 -7z"/>
<path d="M1870 2210 c0 -5 7 -10 16 -10 8 0 12 5 9 10 -3 6 -10 10 -16 10 -5
0 -9 -4 -9 -10z"/>
<path d="M5480 2210 c0 -6 7 -10 15 -10 8 0 15 2 15 4 0 2 -7 6 -15 10 -8 3
-15 1 -15 -4z"/>
<path d="M1978 2183 c7 -3 16 -2 19 1 4 3 -2 6 -13 5 -11 0 -14 -3 -6 -6z"/>
<path d="M5008 2183 c7 -3 16 -2 19 1 4 3 -2 6 -13 5 -11 0 -14 -3 -6 -6z"/>
<path d="M1940 2100 c0 -50 0 -50 33 -49 17 0 25 3 17 6 -26 11 -40 31 -40 58
0 20 4 26 18 23 10 -2 16 -11 14 -21 -2 -9 2 -17 8 -17 5 0 10 11 10 25 0 21
-5 25 -30 25 -29 0 -30 -1 -30 -50z"/>
<path d="M3180 2101 l0 -49 93 -1 93 -2 -4 35 c-4 31 -8 35 -36 39 l-31 4 33
1 c17 1 32 7 32 12 0 6 -37 10 -90 10 l-90 0 0 -49z m75 29 c15 -7 10 -9 -22
-9 -24 -1 -43 4 -43 9 0 12 37 12 65 0z m90 -31 c3 -4 -27 -8 -66 -8 -39 0
-74 -3 -77 -6 -3 -3 30 -5 73 -5 100 0 92 -11 -9 -13 -73 -2 -76 -1 -76 21 0
22 3 23 75 21 42 -1 78 -5 80 -10z"/>
<path d="M5005 2100 c0 -27 3 -50 8 -50 4 0 7 23 7 50 0 28 -3 50 -8 50 -4 0
-7 -22 -7 -50z"/>
<path d="M5040 2100 l0 -50 90 0 90 0 0 50 0 50 -90 0 -90 0 0 -50z m63 33
c-7 -2 -13 -20 -13 -39 0 -21 -4 -33 -10 -29 -6 4 -8 11 -5 16 4 5 2 9 -4 9
-5 0 -12 -8 -14 -17 -3 -10 -5 -4 -6 14 -1 26 2 31 16 26 12 -5 15 -2 10 10
-5 13 -1 17 16 16 12 0 16 -3 10 -6z m70 -10 c-7 -2 -19 -2 -25 0 -7 3 -2 5
12 5 14 0 19 -2 13 -5z m35 -25 c-2 -33 -2 -33 -55 -33 -52 0 -53 0 -52 30 0
28 1 28 9 8 8 -19 16 -23 52 -21 l43 1 -42 4 c-54 5 -56 23 -3 23 22 0 40 5
40 10 0 6 2 10 5 10 3 0 5 -15 3 -32z"/>
<path d="M5250 2100 l0 -50 90 0 90 0 0 50 0 50 -55 0 c-53 0 -74 -13 -37 -23
9 -3 0 -5 -20 -6 -39 -1 -52 14 -20 22 9 3 2 5 -15 6 -33 1 -33 1 -33 -49z
m130 30 c0 -5 -2 -10 -4 -10 -3 0 -8 5 -11 10 -3 6 -1 10 4 10 6 0 11 -4 11
-10z m40 -46 c0 -19 -4 -22 -27 -19 -16 2 -48 5 -73 6 l-45 2 50 7 50 7 -45 1
c-26 1 -51 -3 -58 -10 -9 -9 -12 -7 -12 10 0 22 3 23 80 21 76 -2 80 -3 80
-25z"/>
<path d="M3437 2088 c6 -11 43 -10 43 1 0 5 -11 8 -24 7 -13 0 -22 -4 -19 -8z"/>
<path d="M1883 2023 l-53 -4 0 -45 0 -44 85 0 c47 0 85 4 85 8 0 4 -36 6 -80
4 -50 -2 -80 0 -80 7 0 5 19 12 43 14 l42 4 -42 1 c-36 2 -43 5 -43 22 0 17 7
20 50 20 28 0 50 5 50 10 0 6 -1 9 -2 8 -2 -1 -27 -3 -55 -5z"/>
<path d="M1973 2023 c-12 -2 -25 -13 -28 -24 -5 -15 -10 -17 -25 -9 -24 13
-30 13 -30 0 0 -5 9 -10 20 -10 11 0 20 -4 20 -10 0 -5 16 -10 35 -10 19 0 35
4 35 8 0 5 -14 6 -31 4 -29 -4 -30 -3 -20 17 12 22 31 29 31 11 0 -5 -5 -10
-12 -10 -6 0 -9 -3 -5 -6 9 -10 32 10 33 29 1 9 1 16 0 16 0 -1 -11 -4 -23 -6z"/>
<path d="M3360 2020 l-95 -6 79 -2 c68 -2 77 -4 66 -17 -9 -11 -9 -15 -1 -15
6 0 14 7 17 15 4 8 11 15 16 15 6 0 6 -6 -1 -14 -9 -11 -9 -15 1 -18 7 -3 -1
-5 -19 -6 -22 0 -33 4 -35 15 -3 15 -5 14 -22 -3 -20 -19 -19 -19 32 -22 73
-4 65 -18 -10 -20 -66 -1 -101 5 -94 16 2 4 -2 16 -10 27 -13 17 -14 16 -14
-18 l0 -37 95 0 95 0 0 50 c0 28 -1 49 -2 48 -2 -1 -46 -5 -98 -8z"/>
<path d="M5213 2022 l-83 -3 0 -44 0 -45 95 0 94 0 -2 47 c-1 25 -6 47 -12 48
-5 0 -47 -1 -92 -3z m22 -22 c-3 -6 -21 -8 -38 -6 -18 3 -26 3 -19 0 6 -3 12
-10 12 -15 0 -6 -4 -7 -10 -4 -5 3 -10 1 -10 -4 0 -6 6 -11 14 -11 8 0 22 -3
32 -7 13 -5 16 -3 11 9 -3 9 0 19 8 22 9 3 12 0 9 -8 -3 -8 0 -17 7 -22 9 -5
10 -2 6 9 -3 10 -2 17 3 17 6 0 10 -4 10 -10 0 -5 9 -10 21 -10 11 0 17 -4 14
-10 -3 -5 -42 -10 -86 -10 -46 0 -79 4 -79 10 0 6 5 10 10 10 6 0 10 10 9 23
0 21 -1 21 -9 2 -8 -19 -9 -19 -9 3 -1 20 4 22 50 22 31 0 48 -4 44 -10z m35
0 c0 -5 5 -10 11 -10 5 0 7 5 4 10 -3 6 1 10 11 10 13 0 14 -3 5 -13 -6 -8 -8
-17 -4 -20 12 -12 -12 -7 -29 7 -20 15 -23 26 -8 26 6 0 10 -4 10 -10z"/>
<path d="M1855 1990 c4 -6 11 -8 16 -5 14 9 11 15 -7 15 -8 0 -12 -5 -9 -10z"/>
<path d="M5008 1993 c6 -2 18 -2 25 0 6 3 1 5 -13 5 -14 0 -19 -2 -12 -5z"/>
<path d="M1940 1856 c0 -41 2 -44 29 -48 28 -4 30 -3 24 26 -8 41 -13 46 -13
13 0 -17 -5 -27 -15 -27 -11 0 -14 9 -11 33 2 21 9 32 19 32 9 0 19 4 23 8 4
4 -7 7 -24 7 -31 0 -32 -1 -32 -44z"/>
<path d="M3180 1853 l0 -48 92 3 93 3 0 45 0 44 -92 0 -93 0 0 -47z m45 27 c3
-5 -3 -10 -14 -10 -12 0 -21 5 -21 10 0 6 6 10 14 10 8 0 18 -4 21 -10z m125
-10 c0 -11 -4 -20 -10 -20 -5 0 -10 7 -10 15 0 11 -10 13 -46 9 -26 -3 -44 -1
-40 4 3 5 28 10 56 11 44 1 50 -1 50 -19z m-108 -38 c15 -1 28 4 32 13 3 8 16
14 28 14 17 -1 18 -2 6 -6 -10 -2 -18 -11 -18 -19 0 -10 -13 -14 -50 -14 -45
0 -50 2 -50 23 1 19 2 20 13 7 7 -9 24 -17 39 -18z m78 -2 c0 -5 -2 -10 -4
-10 -3 0 -8 5 -11 10 -3 6 -1 10 4 10 6 0 11 -4 11 -10z m30 0 c0 -5 -2 -10
-4 -10 -3 0 -8 5 -11 10 -3 6 -1 10 4 10 6 0 11 -4 11 -10z"/>
<path d="M5005 1855 c0 -25 3 -45 8 -45 4 0 7 20 7 45 0 25 -3 45 -7 45 -5 0
-8 -20 -8 -45z"/>
<path d="M5040 1851 c0 -42 3 -49 18 -46 9 2 50 4 90 4 l72 1 0 45 0 45 -90 0
-90 0 0 -49z m36 31 c7 -4 14 -18 17 -32 4 -22 4 -21 6 7 l1 31 55 -1 55 -1 0
-33 c0 -33 0 -33 -47 -31 -44 1 -45 2 -10 5 23 3 35 8 31 15 -4 6 0 14 7 19 9
6 -3 9 -33 9 -45 0 -48 -2 -48 -25 0 -21 -5 -25 -30 -25 -28 0 -30 3 -30 35 0
35 5 41 26 27z m79 -32 c3 -5 -3 -10 -14 -10 -12 0 -21 5 -21 10 0 6 6 10 14
10 8 0 18 -4 21 -10z"/>
<path d="M5060 1840 c0 -5 5 -10 11 -10 5 0 7 5 4 10 -3 6 -8 10 -11 10 -2 0
-4 -4 -4 -10z"/>
<path d="M5250 1855 c0 -40 2 -45 23 -44 16 1 18 2 5 6 -11 3 -18 13 -17 26 1
17 2 18 6 5 3 -14 15 -18 54 -18 33 0 49 4 49 13 0 7 11 14 25 15 14 1 25 -3
25 -8 0 -6 -10 -10 -22 -11 -22 -1 -22 -1 2 -9 24 -7 23 -7 -10 -12 l-35 -5
38 -1 37 -2 0 45 0 45 -90 0 -90 0 0 -45z m170 24 c0 -5 -36 -9 -80 -9 -44 0
-80 3 -80 8 0 4 36 8 80 8 44 1 80 -2 80 -7z m-60 -29 c0 -5 -6 -10 -14 -10
-8 0 -18 5 -21 10 -3 6 3 10 14 10 12 0 21 -4 21 -10z"/>
<path d="M1780 1863 c53 -7 64 -25 13 -20 -24 2 -43 0 -43 -4 0 -5 8 -9 18 -9
14 0 15 -2 2 -10 -13 -8 -12 -10 3 -10 9 0 17 5 17 10 0 6 14 10 30 10 19 0
30 5 30 14 0 8 6 17 13 19 6 3 -17 5 -53 5 -36 -1 -49 -3 -30 -5z"/>
<path d="M5313 1813 c9 -2 23 -2 30 0 6 3 -1 5 -18 5 -16 0 -22 -2 -12 -5z"/>
<path d="M5463 1813 c9 -2 25 -2 35 0 9 3 1 5 -18 5 -19 0 -27 -2 -17 -5z"/>
<path d="M1830 1730 l0 -50 86 0 c64 0 85 3 82 12 -3 8 -24 13 -54 14 -33 1
-43 -1 -29 -7 14 -5 4 -7 -30 -7 -43 0 -46 1 -20 8 l30 8 -27 1 c-24 1 -28 5
-28 31 0 25 4 30 25 30 16 0 25 -6 25 -15 0 -18 -17 -20 -22 -3 -3 9 -6 9 -12
0 -10 -16 18 -26 51 -17 21 5 24 8 13 15 -8 5 -11 13 -6 17 4 4 14 0 21 -10
11 -15 15 -16 27 -4 7 8 20 16 28 20 8 3 -24 6 -72 6 l-88 1 0 -50z m157 -36
c-3 -3 -12 -4 -19 -1 -8 3 -5 6 6 6 11 1 17 -2 13 -5z"/>
<path d="M3270 1730 l0 -51 95 2 95 1 0 49 0 49 -95 0 -95 0 0 -50z m95 30
c-3 -5 -1 -10 5 -10 6 0 8 -4 5 -10 -3 -5 -1 -10 4 -10 6 0 11 -7 11 -15 0
-21 -30 -19 -31 3 -1 16 -2 16 -6 0 -3 -12 -14 -18 -33 -18 -22 0 -29 6 -34
25 -9 36 0 45 45 45 24 0 38 -4 34 -10z m83 -35 c-1 -22 -3 -31 -6 -21 -3 15
-6 16 -13 5 -7 -11 -11 -10 -23 6 -9 11 -14 25 -11 32 2 6 -1 14 -8 16 -7 2 5
4 25 4 36 -1 37 -2 36 -42z"/>
<path d="M3410 1746 c0 -9 5 -16 10 -16 6 0 10 4 10 9 0 6 -4 13 -10 16 -5 3
-10 -1 -10 -9z"/>
<path d="M3480 1730 c0 -27 4 -50 8 -50 5 0 8 22 8 50 -1 65 -16 65 -16 0z"/>
<path d="M5000 1773 c1 -17 26 -40 45 -40 11 0 28 7 38 15 10 9 17 10 17 4 0
-6 -4 -14 -10 -17 -5 -3 -10 -12 -10 -18 0 -7 4 -6 10 3 8 13 10 13 10 -1 0
-12 -11 -18 -40 -21 -30 -3 -39 0 -36 9 3 7 1 13 -3 13 -8 0 -21 -23 -21 -36
0 -2 25 -4 55 -4 l55 0 0 50 0 50 -55 0 c-30 0 -55 -3 -55 -7z m50 -18 c0 -5
5 -3 10 5 8 13 10 13 10 -2 0 -19 -30 -21 -48 -2 -9 10 -7 12 8 11 11 -1 20
-6 20 -12z"/>
<path d="M5130 1730 l0 -50 95 0 95 0 -1 50 -2 50 -93 0 -94 0 0 -50z m130 25
c0 -8 -8 -15 -17 -15 -15 0 -16 2 -3 10 13 8 12 10 -3 10 -11 0 -17 -5 -14
-12 2 -8 21 -13 43 -13 32 0 39 -3 39 -19 0 -17 -7 -20 -57 -20 -32 -1 -58 3
-58 9 0 6 -4 4 -9 -4 -11 -17 -41 -7 -41 14 0 9 5 13 10 10 6 -3 10 -1 10 4 0
6 -4 11 -10 11 -5 0 -10 5 -10 11 0 5 5 7 10 4 6 -3 10 -3 10 2 0 4 23 9 50
11 39 2 50 -1 50 -13z m38 3 c-2 -5 -8 -9 -13 -9 -5 0 -11 4 -13 9 -1 5 4 9
13 9 9 0 14 -4 13 -9z"/>
<path d="M5166 1735 c4 -8 8 -15 10 -15 2 0 4 7 4 15 0 8 -4 15 -10 15 -5 0
-7 -7 -4 -15z"/>
<path d="M5197 1719 c9 -8 107 -19 98 -11 -3 3 -28 9 -55 12 -28 4 -47 3 -43
-1z"/>
<path d="M1985 1750 c3 -5 1 -10 -5 -10 -6 0 -8 -4 -5 -10 10 -16 21 -11 22
10 1 11 -3 20 -8 20 -6 0 -7 -4 -4 -10z"/>
<path d="M5471 1724 c0 -11 3 -14 6 -6 3 7 2 16 -1 19 -3 4 -6 -2 -5 -13z"/>
<path d="M5501 1724 c0 -11 3 -14 6 -6 3 7 2 16 -1 19 -3 4 -6 -2 -5 -13z"/>
<path d="M1938 1723 c7 -3 16 -2 19 1 4 3 -2 6 -13 5 -11 0 -14 -3 -6 -6z"/>
<path d="M5436 1718 c3 -4 9 -8 15 -8 5 0 9 4 9 8 0 5 -7 9 -15 9 -8 0 -12 -4
-9 -9z"/>
<path d="M3180 1608 l0 -48 98 2 c94 1 95 2 32 8 l-65 7 58 1 57 2 0 38 0 37
-90 0 -90 0 0 -47z m170 22 c0 -6 -33 -10 -80 -10 -47 0 -80 4 -80 10 0 6 33
10 80 10 47 0 80 -4 80 -10z m0 -29 c0 -4 -33 -6 -72 -4 -67 4 -71 3 -53 -11
20 -15 19 -16 -5 -12 -14 1 -26 10 -28 19 -3 15 8 17 77 17 45 0 81 -4 81 -9z"/>
<path d="M3390 1608 l0 -48 58 1 c43 1 51 3 32 9 -24 8 -24 8 -2 9 18 1 22 7
22 35 l0 34 -55 4 -55 3 0 -47z m30 28 c0 -3 -4 -8 -10 -11 -5 -3 -10 -1 -10
4 0 6 5 11 10 11 6 0 10 -2 10 -4z m70 -4 c0 -4 -13 -7 -30 -7 -16 -1 -30 3
-30 7 0 4 14 8 30 8 17 0 30 -3 30 -8z m0 -30 c0 -4 -12 -7 -27 -7 -37 2 -51
-7 -27 -16 16 -6 15 -7 -7 -6 -16 1 -26 7 -26 19 -2 15 6 18 43 18 24 0 44 -4
44 -8z"/>
<path d="M5040 1608 l0 -48 98 1 c53 1 87 4 75 6 -14 3 -20 9 -17 18 5 11 -4
14 -40 12 -47 -2 -60 -12 -28 -20 9 -3 -4 -5 -30 -6 -42 -1 -48 2 -48 19 0 15
7 20 28 21 24 0 24 1 7 8 -11 5 -23 7 -27 4 -5 -2 -8 1 -8 6 0 7 30 11 79 11
l80 0 4 -32 c3 -30 4 -30 5 7 l2 40 -90 0 -90 0 0 -47z m137 -34 c-3 -3 -12
-4 -19 -1 -8 3 -5 6 6 6 11 1 17 -2 13 -5z"/>
<path d="M5250 1608 l0 -48 90 0 90 0 0 48 0 47 -90 0 -90 0 0 -47z m170 22
c0 -5 -10 -11 -22 -11 l-23 -2 23 -4 c26 -5 31 -25 5 -21 -10 2 -17 -3 -15 -9
1 -8 -8 -13 -20 -12 -13 0 -17 3 -10 6 25 10 11 18 -38 21 -50 3 -71 -13 -27
-21 19 -4 18 -4 -5 -6 -22 -1 -28 4 -28 19 0 17 7 20 58 22 l57 2 -57 3 c-87
6 -70 23 22 23 47 0 80 -4 80 -10z"/>
<path d="M5450 1650 c0 -5 7 -10 16 -10 8 0 12 5 9 10 -3 6 -10 10 -16 10 -5
0 -9 -4 -9 -10z"/>
<path d="M5450 1620 c0 -6 14 -10 30 -10 39 0 39 14 0 17 -17 1 -30 -2 -30 -7z"/>
<path d="M5133 1613 c15 -2 37 -2 50 0 12 2 0 4 -28 4 -27 0 -38 -2 -22 -4z"/>
<path d="M5456 1593 c-18 -18 -4 -33 32 -32 30 2 32 3 9 6 -15 2 -25 8 -22 13
7 11 -10 22 -19 13z"/>
<path d="M3355 1521 l90 -6 3 -32 4 -33 -89 2 c-73 1 -80 2 -43 8 l45 7 -45 3
c-42 2 -43 3 -15 10 l30 8 -28 1 c-16 0 -26 5 -22 11 3 6 1 10 -4 10 -6 0 -11
-16 -11 -35 l0 -35 95 0 95 0 -2 45 -1 45 -96 -2 -96 -2 90 -5z"/>
<path d="M5130 1485 l0 -45 94 0 94 0 0 45 -1 45 -94 0 -93 0 0 -45z m175 -1
l0 -34 -82 0 -83 0 0 35 0 34 83 0 82 0 0 -35z"/>
<path d="M5161 1474 c0 -11 3 -14 6 -6 3 7 2 16 -1 19 -3 4 -6 -2 -5 -13z"/>
<path d="M3370 1500 c-13 -8 -12 -10 3 -10 9 0 17 5 17 10 0 12 -1 12 -20 0z"/>
<path d="M5475 1500 c-3 -6 1 -7 9 -4 18 7 21 14 7 14 -6 0 -13 -4 -16 -10z"/>
<path d="M5470 1472 c0 -4 9 -8 20 -8 11 0 20 4 20 8 0 4 -9 8 -20 8 -11 0
-20 -4 -20 -8z"/>
<path d="M3180 1360 l0 -50 93 0 94 0 -3 38 c-2 20 -3 43 -3 50 -1 9 -26 12
-91 12 l-90 0 0 -50z m111 23 c1 -17 2 -17 6 0 7 29 23 19 25 -15 l1 -33 4 33
c6 46 23 40 23 -9 l0 -40 -52 5 c-56 7 -76 15 -37 17 22 1 21 2 -6 10 -16 5
-38 7 -47 5 -16 -4 -18 9 -9 42 1 1 21 2 46 2 36 0 45 -4 46 -17z m-61 -52 c0
-6 -9 -9 -20 -8 -11 1 -20 5 -20 9 0 4 9 8 20 8 11 0 20 -4 20 -9z"/>
<path d="M3250 1380 c-12 -8 -11 -10 8 -10 12 0 22 5 22 10 0 13 -11 13 -30 0z"/>
<path d="M3390 1360 l0 -50 53 0 52 0 3 50 3 50 -55 0 -56 0 0 -50z m98 8 c-2
-17 -9 -33 -16 -34 -7 -1 -8 0 -2 3 15 7 12 23 -5 23 -8 0 -15 -9 -15 -21 0
-11 -4 -17 -10 -14 -5 3 -10 15 -10 26 0 10 5 19 10 19 6 0 10 4 10 9 0 5 -9
7 -19 4 -15 -4 -18 -12 -16 -34 3 -17 0 -27 -5 -24 -6 4 -10 22 -10 41 0 34 0
34 46 34 45 0 45 0 42 -32z"/>
<path d="M5040 1360 l0 -50 80 0 c44 0 80 3 80 8 0 10 -41 35 -48 28 -3 -3 1
-6 9 -7 8 0 3 -5 -10 -10 -32 -13 -61 -3 -55 19 3 10 0 8 -8 -4 -11 -18 -15
-20 -25 -8 -21 22 -16 64 6 64 11 0 22 -8 24 -17 4 -17 5 -17 6 0 1 14 11 17
56 17 34 0 55 -4 55 -11 0 -7 -10 -9 -25 -5 -36 9 -75 -3 -74 -23 0 -10 2 -11
6 -3 3 7 23 12 50 12 32 0 44 -4 40 -12 -2 -7 -1 -22 4 -33 5 -14 8 -4 8 33
l1 52 -90 0 -90 0 0 -50z"/>
<path d="M5250 1380 c0 -30 14 -41 23 -17 4 10 6 10 6 0 1 -7 11 -13 24 -13
20 1 20 2 5 11 -10 5 -18 17 -18 24 0 12 15 15 63 15 59 0 62 -1 63 -25 2 -19
-3 -25 -20 -26 -21 0 -21 0 2 -9 12 -5 22 -12 22 -14 0 -7 -32 4 -47 17 -9 7
-13 5 -13 -7 0 -11 -4 -14 -12 -9 -19 11 -39 13 -32 2 3 -5 0 -9 -5 -9 -6 0
-11 5 -11 11 0 5 -4 8 -9 5 -5 -4 -12 0 -14 6 -4 10 -6 10 -6 0 -1 -7 -5 -10
-11 -7 -5 3 -10 0 -10 -8 0 -11 19 -15 90 -16 l90 -2 0 51 0 50 -90 0 -90 0 0
-30z m30 10 c0 -5 -5 -10 -11 -10 -5 0 -7 5 -4 10 3 6 8 10 11 10 2 0 4 -4 4
-10z"/>
<path d="M5460 1400 c9 -6 10 -10 3 -10 -10 0 -11 -13 -4 -72 1 -5 9 -8 19 -8
15 1 15 2 -2 15 -11 8 -14 15 -8 15 7 0 12 13 12 30 0 17 5 30 10 30 6 0 10
-20 10 -45 0 -25 3 -45 8 -45 4 0 7 23 7 50 l0 50 -35 0 c-26 0 -31 -3 -20
-10z"/>
<path d="M5345 1379 c-15 -6 -11 -8 18 -8 20 -1 37 1 37 3 0 9 -37 12 -55 5z"/>
<path d="M5060 1359 c0 -5 5 -7 10 -4 6 3 10 8 10 11 0 2 -4 4 -10 4 -5 0 -10
-5 -10 -11z"/>
<path d="M3270 1262 c0 -26 2 -27 45 -24 25 2 42 8 39 13 -3 6 -14 7 -25 4
-10 -4 -27 -2 -36 4 -14 8 -8 10 29 11 28 0 48 -5 51 -12 4 -8 6 -7 6 3 1 21
-19 29 -70 29 -36 0 -39 -2 -39 -28z"/>
<path d="M3395 1281 c-3 -6 -3 -16 1 -22 5 -8 10 -6 16 5 10 18 38 22 38 5 0
-6 -8 -8 -17 -5 -15 5 -15 4 1 -9 11 -8 14 -15 8 -15 -7 0 -12 -8 -12 -17 0
-15 2 -16 10 -3 8 13 10 12 10 -2 0 -16 -11 -18 -87 -18 -58 0 -83 3 -73 10 8
5 11 12 8 15 -10 10 -28 -4 -28 -21 0 -11 19 -14 96 -14 l95 0 -3 48 c-3 43
-5 47 -30 50 -14 2 -29 -2 -33 -7z"/>
<path d="M3480 1240 c0 -27 3 -50 8 -50 4 0 7 22 7 50 0 27 -3 50 -7 50 -5 0
-8 -22 -8 -50z"/>
<path d="M5130 1240 l0 -50 95 0 95 0 0 49 0 48 -62 2 c-68 1 -81 -4 -91 -32
-5 -13 0 -25 15 -38 l23 -18 -31 -1 c-28 0 -31 2 -31 35 0 19 4 35 9 35 4 0 8
5 8 10 0 6 -7 10 -15 10 -11 0 -15 -12 -15 -50z m91 10 c5 0 8 5 7 12 -2 7 12
12 38 12 41 1 42 1 41 -35 l-1 -36 -50 0 -51 0 40 7 40 7 -41 2 c-23 0 -47 8
-54 16 -10 12 -10 15 1 16 12 0 12 1 0 6 -11 5 -11 7 0 14 9 6 15 3 17 -6 2
-8 8 -15 13 -15z"/>
<path d="M5255 1251 c3 -5 -7 -12 -22 -14 -23 -3 -21 -4 9 -6 29 -1 36 2 32
14 -4 8 -10 15 -16 15 -5 0 -7 -4 -3 -9z"/>
<path d="M5340 1241 l0 -51 93 2 92 2 -87 3 -88 4 0 40 c0 29 3 38 12 33 16
-10 58 -11 58 -2 0 4 -1 8 -2 8 -2 1 -20 3 -40 6 l-38 6 0 -51z"/>
<path d="M5430 1275 c0 -6 14 -11 30 -10 17 0 29 4 27 10 -5 14 -57 14 -57 0z"/>
<path d="M3182 1240 c0 -14 2 -19 5 -12 2 6 2 18 0 25 -3 6 -5 1 -5 -13z"/>
<path d="M5006 1243 c-9 -23 1 -28 18 -10 13 13 13 16 2 20 -8 3 -17 -1 -20
-10z"/>
<path d="M5450 1249 c-8 -5 -32 -9 -52 -9 -26 0 -38 -4 -38 -14 0 -11 14 -14
60 -13 57 2 86 16 38 18 -22 1 -22 1 2 8 14 4 20 10 14 13 -5 4 -16 3 -24 -3z"/>
<path d="M5499 1258 c-6 -21 -5 -39 2 -44 5 -3 9 6 9 20 0 21 -7 36 -11 24z"/>
<path d="M5050 1234 c0 -7 -6 -15 -12 -17 -10 -4 -10 -6 0 -6 12 -1 42 22 42
32 0 2 -7 4 -15 4 -8 0 -15 -6 -15 -13z"/>
<path d="M3370 1225 c0 -8 5 -15 10 -15 6 0 10 7 10 15 0 8 -4 15 -10 15 -5 0
-10 -7 -10 -15z"/>
<path d="M3400 1225 c0 -8 5 -15 10 -15 6 0 10 7 10 15 0 8 -4 15 -10 15 -5 0
-10 -7 -10 -15z"/>
<path d="M3325 1220 c-3 -5 1 -10 10 -10 9 0 13 5 10 10 -3 6 -8 10 -10 10 -2
0 -7 -4 -10 -10z"/>
<path d="M3180 1135 c0 -14 5 -25 11 -25 5 0 7 5 4 10 -4 6 13 10 44 10 30 0
51 -5 54 -12 4 -10 6 -10 6 0 1 6 13 12 29 11 24 0 25 -1 7 -9 -19 -8 -19 -9
3 -9 13 -1 22 5 22 14 0 12 -17 15 -87 17 l-88 2 95 6 95 6 -97 2 -98 2 0 -25z"/>
<path d="M3390 1135 c0 -16 6 -25 15 -25 8 0 15 8 15 18 0 14 -2 15 -10 2 -8
-13 -10 -12 -10 3 0 14 8 17 48 16 44 -2 45 -2 12 -8 -27 -5 -31 -8 -17 -13 9
-4 24 -4 34 -1 11 4 14 3 9 -5 -4 -7 -2 -12 3 -12 6 0 11 11 11 25 0 24 -3 25
-55 25 -52 0 -55 -1 -55 -25z"/>
<path d="M2975 1120 c3 -5 8 -10 11 -10 2 0 4 5 4 10 0 6 -5 10 -11 10 -5 0
-7 -4 -4 -10z"/>
<path d="M3006 1121 c9 -9 114 -8 114 2 0 4 -27 7 -60 6 -33 -1 -58 -5 -54 -8z"/>
</g>
</svg>
