<svg id="svg" version="1.1" xmlns="http://www.w3.org/2000/svg" xmlns:xlink="http://www.w3.org/1999/xlink" width="400" height="400" viewBox="0, 0, 400,400"><g id="svgg"><path id="path0" d="M108.832 56.632 C 97.878 59.584,89.608 69.277,86.758 82.506 C 85.433 88.655,85.227 93.542,84.563 134.570 C 84.100 163.130,83.780 174.730,83.373 177.712 C 82.399 184.847,78.725 194.505,66.200 222.852 C 55.113 247.944,53.393 251.904,51.183 257.422 C 45.479 271.661,44.449 278.857,47.489 283.243 C 52.201 290.043,71.356 289.847,89.400 282.814 C 94.257 280.922,103.935 276.144,103.696 275.757 C 103.491 275.425,105.890 274.371,106.445 274.549 C 106.660 274.618,106.705 274.544,106.545 274.384 C 106.130 273.969,107.723 272.946,108.264 273.280 C 108.512 273.433,108.611 273.390,108.484 273.185 C 108.357 272.980,108.612 272.589,109.051 272.315 C 109.705 271.906,109.795 271.910,109.554 272.334 C 109.323 272.741,109.369 272.751,109.767 272.382 C 110.172 272.008,110.593 272.363,111.853 274.140 C 121.974 288.420,141.029 305.312,153.573 311.124 C 154.607 311.603,155.339 312.108,155.201 312.247 C 155.062 312.386,155.215 312.500,155.542 312.500 C 155.869 312.500,157.788 313.269,159.806 314.210 C 166.950 317.538,177.643 321.022,179.345 320.577 C 179.749 320.472,179.981 320.545,179.860 320.740 C 179.740 320.934,180.047 321.108,180.543 321.126 C 181.039 321.144,181.797 321.215,182.227 321.283 C 205.103 324.908,221.791 323.039,239.914 314.821 C 242.638 313.585,244.967 312.646,245.090 312.733 C 245.212 312.820,245.225 312.774,245.118 312.631 C 245.010 312.488,246.021 311.765,247.364 311.026 C 261.233 303.383,276.387 289.950,286.021 276.758 C 289.621 271.829,289.683 271.768,290.583 272.330 C 291.008 272.595,291.266 272.958,291.157 273.135 C 291.047 273.312,291.102 273.432,291.280 273.401 C 292.112 273.256,292.599 273.479,292.346 273.888 C 292.173 274.168,292.238 274.233,292.517 274.061 C 293.072 273.718,294.638 274.751,294.236 275.195 C 294.076 275.372,294.149 275.399,294.398 275.257 C 294.944 274.945,296.163 275.353,295.910 275.762 C 295.812 275.922,298.142 277.214,301.088 278.634 C 325.637 290.466,347.646 291.743,352.866 281.638 C 356.035 275.505,353.862 268.578,336.324 228.906 C 322.711 198.111,318.805 188.303,316.821 179.930 C 316.089 176.839,315.697 168.451,315.450 150.586 C 314.670 94.065,314.409 87.842,312.487 80.185 C 308.641 64.861,299.407 56.508,285.696 55.950 C 276.563 55.579,272.402 57.174,257.444 66.783 C 241.759 76.858,230.649 81.198,214.258 83.653 C 209.540 84.360,191.353 84.363,186.328 83.658 C 169.556 81.305,158.692 76.943,140.691 65.336 C 126.679 56.300,118.427 54.046,108.832 56.632 M166.242 105.424 C 168.764 106.962,169.483 110.919,167.834 114.177 C 167.330 115.173,167.053 115.903,167.219 115.801 C 168.065 115.278,174.862 118.640,184.032 124.117 C 197.605 132.224,202.053 132.131,216.797 123.433 C 225.615 118.230,230.580 115.672,232.099 115.546 L 233.092 115.464 232.175 113.494 C 230.694 110.314,231.151 107.780,233.571 105.743 C 236.252 103.487,238.894 104.536,242.516 109.293 C 246.853 114.991,251.563 118.288,258.448 120.446 C 262.285 121.649,268.206 122.799,268.997 122.495 C 269.313 122.374,269.483 122.419,269.374 122.595 C 269.265 122.771,270.179 123.105,271.404 123.337 C 272.630 123.568,274.160 123.979,274.805 124.249 C 275.449 124.518,276.100 124.754,276.250 124.772 C 276.400 124.790,276.752 125.060,277.031 125.372 C 277.470 125.861,277.446 125.868,276.855 125.422 C 275.885 124.687,276.007 125.125,277.020 126.014 C 277.487 126.423,277.740 126.538,277.583 126.270 C 277.079 125.407,277.742 125.741,280.010 127.493 C 306.477 147.937,299.949 196.467,268.680 211.717 C 267.030 212.522,265.819 213.335,265.988 213.524 C 266.647 214.260,269.462 221.431,270.109 224.023 C 273.239 236.565,260.196 245.594,251.648 236.803 C 247.238 232.268,247.294 225.266,251.812 216.309 L 252.748 214.453 250.839 214.453 C 238.431 214.453,224.956 206.951,219.733 197.134 C 212.278 183.125,207.847 179.117,199.805 179.107 C 192.423 179.097,186.993 183.595,181.250 194.474 C 168.985 217.711,137.538 221.386,118.295 201.832 C 99.641 182.875,98.082 150.094,114.983 132.164 C 117.752 129.227,123.974 124.158,123.226 125.450 C 123.058 125.740,123.345 125.603,123.863 125.146 C 125.056 124.093,126.528 123.629,131.661 122.687 C 140.535 121.059,145.020 119.535,149.609 116.586 C 151.881 115.127,153.677 113.392,159.267 107.261 C 161.711 104.580,163.909 104.002,166.242 105.424 M127.637 134.260 C 128.120 134.353,128.911 134.353,129.395 134.260 C 129.878 134.167,129.482 134.091,128.516 134.091 C 127.549 134.091,127.153 134.167,127.637 134.260 M270.416 134.265 C 271.009 134.354,271.888 134.352,272.369 134.259 C 272.849 134.167,272.363 134.093,271.289 134.096 C 270.215 134.099,269.822 134.175,270.416 134.265 M167.677 166.992 C 167.681 167.852,167.761 168.157,167.854 167.671 C 167.948 167.185,167.944 166.482,167.847 166.109 C 167.749 165.735,167.672 166.133,167.677 166.992 M246.582 187.769 C 246.958 187.868,247.573 187.868,247.949 187.769 C 248.325 187.671,248.018 187.591,247.266 187.591 C 246.514 187.591,246.206 187.671,246.582 187.769 M203.563 200.562 C 209.394 201.798,220.980 210.241,221.139 213.370 C 221.414 218.812,217.323 219.665,212.076 215.260 C 203.233 207.834,196.100 208.003,186.896 215.855 C 183.616 218.653,181.622 218.808,179.501 216.429 C 177.437 214.114,178.562 211.859,184.111 207.182 C 191.361 201.072,196.968 199.164,203.563 200.562 M206.836 241.856 C 216.749 244.321,229.047 254.199,227.898 258.775 C 226.968 262.481,223.332 262.652,219.347 259.176 C 206.237 247.743,193.446 247.119,180.901 257.300 C 174.903 262.168,174.561 262.320,172.258 261.129 C 168.951 259.419,169.608 256.219,174.200 251.672 C 183.601 242.365,195.041 238.924,206.836 241.856 M146.197 347.546 C 146.791 347.636,147.669 347.633,148.150 347.541 C 148.630 347.448,148.145 347.374,147.070 347.377 C 145.996 347.380,145.603 347.456,146.197 347.546 M251.275 347.546 C 251.869 347.636,252.748 347.633,253.228 347.541 C 253.708 347.448,253.223 347.374,252.148 347.377 C 251.074 347.380,250.681 347.456,251.275 347.546 " stroke="none" fill="#3ca2d9" fill-rule="evenodd"></path><path id="path1" d="M0.000 200.000 L 0.000 400.000 200.000 400.000 L 400.000 400.000 400.000 200.000 L 400.000 0.000 200.000 0.000 L 0.000 0.000 0.000 200.000 M113.281 48.864 C 111.455 49.003,109.258 49.226,108.398 49.359 L 106.836 49.600 108.189 49.181 C 110.051 48.605,114.013 48.188,115.430 48.420 C 116.144 48.537,115.304 48.711,113.281 48.864 M290.480 48.744 C 291.221 48.898,288.524 49.031,284.488 49.039 C 272.956 49.065,268.849 50.659,250.031 62.412 C 237.667 70.134,223.835 75.173,211.246 76.541 C 206.912 77.012,193.106 77.101,192.836 76.660 C 192.737 76.499,196.726 76.360,201.699 76.351 C 220.841 76.316,232.704 72.504,253.838 59.597 C 270.477 49.434,280.089 46.587,290.480 48.744 M124.291 49.033 C 131.484 50.532,137.138 53.104,145.661 58.756 C 155.893 65.541,160.772 68.113,169.837 71.501 C 170.542 71.765,171.044 72.054,170.954 72.145 C 169.990 73.109,156.635 66.425,147.236 60.275 C 135.064 52.310,128.878 49.704,120.117 48.849 C 117.169 48.561,117.118 48.541,119.213 48.491 C 120.434 48.461,122.719 48.705,124.291 49.033 M301.953 52.626 C 305.522 54.659,308.973 57.518,311.176 60.264 C 313.598 63.284,314.638 64.841,312.695 62.540 C 306.898 55.672,301.634 52.051,294.735 50.183 C 293.334 49.804,292.188 49.350,292.188 49.174 C 292.188 48.719,299.851 51.428,301.953 52.626 M103.472 50.916 C 91.621 55.425,83.344 65.491,79.653 79.883 C 79.047 82.246,78.543 83.812,78.533 83.363 C 78.411 77.750,84.354 65.459,90.172 59.292 C 94.265 54.953,103.089 49.582,106.055 49.624 C 106.484 49.630,105.322 50.211,103.472 50.916 M124.722 56.817 C 129.244 58.135,132.386 59.758,140.203 64.812 C 161.071 78.304,173.039 82.620,193.515 84.037 C 215.785 85.577,235.401 80.514,254.883 68.195 C 265.517 61.470,270.374 58.661,273.159 57.624 C 289.768 51.438,305.736 59.156,311.522 76.167 C 314.082 83.695,314.681 89.729,315.012 111.328 C 315.639 152.308,316.068 172.066,316.405 175.391 C 317.270 183.950,320.518 192.739,334.379 224.023 C 356.240 273.365,357.761 279.217,350.258 285.118 C 340.866 292.507,311.024 286.702,291.527 273.694 L 289.500 272.341 286.394 276.503 C 275.679 290.859,264.032 301.347,248.821 310.335 L 245.241 312.451 246.937 312.879 C 261.776 316.628,270.362 326.936,267.192 337.199 C 266.474 339.524,264.677 342.596,263.461 343.576 C 263.096 343.871,265.413 344.125,271.612 344.470 C 290.095 345.499,292.563 347.786,276.953 349.419 C 255.721 351.640,147.027 351.747,124.414 349.569 C 105.995 347.795,109.283 345.663,132.527 344.309 L 136.733 344.064 135.503 342.663 C 128.876 335.116,131.792 323.673,141.933 317.428 C 144.465 315.869,151.249 312.891,152.269 312.891 C 155.034 312.891,154.805 312.062,151.536 310.227 C 135.936 301.474,122.632 289.241,110.341 272.350 C 110.297 272.289,108.859 273.109,107.146 274.171 C 83.349 288.930,54.320 293.166,47.125 282.928 C 43.141 277.259,45.668 268.629,62.199 231.452 C 84.752 180.734,83.712 184.619,84.168 149.414 C 84.847 97.069,85.177 88.331,86.723 81.755 C 91.327 62.181,107.258 51.725,124.722 56.817 M316.148 67.871 C 318.665 72.924,320.344 78.202,321.088 83.398 C 321.334 85.117,321.596 86.831,321.669 87.208 C 321.742 87.584,321.643 87.793,321.448 87.673 C 321.253 87.552,321.094 86.981,321.094 86.403 C 321.093 82.853,318.655 74.221,316.076 68.638 C 314.217 64.615,314.266 64.094,316.148 67.871 M175.586 73.433 C 176.875 73.854,177.321 74.093,176.576 73.964 C 175.094 73.707,172.225 72.725,172.852 72.689 C 173.066 72.677,174.297 73.012,175.586 73.433 M184.902 75.344 C 187.448 75.800,190.172 76.192,190.957 76.217 C 191.741 76.242,192.054 76.347,191.652 76.450 C 190.558 76.731,184.192 75.883,180.859 75.012 C 177.422 74.113,178.520 74.204,184.902 75.344 M78.136 89.296 C 77.920 91.853,77.566 111.163,77.347 132.206 C 76.798 185.095,78.450 177.233,58.306 222.852 C 56.693 226.504,54.330 231.865,53.055 234.766 C 51.780 237.666,50.383 240.811,49.950 241.755 C 42.143 258.773,37.749 274.679,39.073 281.134 C 41.066 290.845,49.103 295.386,64.212 295.335 C 67.422 295.325,69.958 295.406,69.848 295.517 C 68.313 297.051,52.897 295.272,48.242 293.023 C 33.466 285.885,34.734 274.042,55.088 229.102 C 56.548 225.879,59.059 220.166,60.670 216.406 C 62.280 212.646,65.086 206.143,66.905 201.953 C 76.293 180.325,76.435 179.493,76.744 144.531 C 77.128 101.144,77.348 90.817,77.994 86.017 C 78.435 82.736,78.521 84.719,78.136 89.296 M322.452 109.766 C 322.593 118.896,322.766 127.202,322.835 128.223 C 322.905 129.243,322.834 130.078,322.677 130.078 C 322.521 130.078,322.278 122.563,322.138 113.379 C 321.998 104.194,321.802 94.746,321.704 92.383 C 321.557 88.825,321.584 88.523,321.861 90.625 C 322.045 92.021,322.311 100.635,322.452 109.766 M323.051 145.710 C 323.081 153.763,323.052 160.527,322.986 160.742 C 322.920 160.957,322.775 154.453,322.663 146.289 C 322.476 132.582,322.503 130.576,322.865 130.938 C 322.936 131.009,323.020 137.657,323.051 145.710 M170.702 148.471 C 168.876 149.779,166.740 151.180,165.955 151.585 L 164.528 152.321 165.656 155.228 C 171.952 171.442,164.444 188.951,151.706 187.762 C 142.062 186.861,135.200 174.316,137.914 162.546 C 138.131 161.605,138.224 160.750,138.120 160.646 C 137.810 160.336,120.540 162.542,120.117 162.947 C 118.400 164.589,120.000 177.388,122.586 182.698 C 130.163 198.260,152.723 204.083,165.515 193.778 C 177.205 184.360,181.522 164.958,175.494 148.926 C 174.219 145.534,174.733 145.583,170.702 148.471 M224.976 147.905 C 218.920 162.024,222.383 182.392,232.484 192.052 C 237.956 197.285,241.585 198.633,250.195 198.631 C 268.643 198.627,281.131 185.744,280.379 167.494 C 280.275 164.951,280.120 162.813,280.036 162.741 C 279.336 162.147,261.716 160.361,261.946 160.908 C 264.125 166.093,261.559 178.471,257.358 183.035 C 243.133 198.491,225.511 176.083,234.817 154.373 C 235.229 153.411,235.518 152.599,235.459 152.568 C 235.400 152.538,234.912 152.290,234.375 152.016 C 233.569 151.606,230.538 149.493,226.516 146.538 C 225.853 146.050,225.722 146.166,224.976 147.905 M324.376 177.538 C 325.677 184.057,327.649 189.530,334.138 204.632 C 336.202 209.436,337.883 213.478,337.873 213.616 C 337.813 214.487,332.024 201.260,328.322 191.797 C 324.451 181.901,323.468 177.379,323.267 168.555 L 323.116 161.914 323.434 168.164 C 323.609 171.602,324.033 175.820,324.376 177.538 M339.953 218.066 C 348.733 237.601,354.676 251.530,357.281 258.680 C 366.917 285.122,359.078 296.796,332.422 295.701 C 330.144 295.608,331.494 295.485,336.719 295.310 C 361.660 294.475,366.715 282.310,354.492 252.539 C 353.699 250.605,352.730 248.232,352.341 247.266 C 351.951 246.299,350.105 242.080,348.237 237.891 C 345.249 231.185,338.541 215.887,338.003 214.551 C 337.895 214.282,337.885 214.063,337.980 214.063 C 338.076 214.063,338.963 215.864,339.953 218.066 M111.244 285.059 C 117.561 292.924,126.290 301.176,134.693 307.227 C 139.729 310.852,139.505 310.486,137.421 311.676 C 129.317 316.306,123.218 328.896,125.218 336.866 C 125.452 337.799,125.375 337.887,124.359 337.845 C 123.745 337.820,123.519 337.726,123.856 337.635 C 124.363 337.498,124.468 336.805,124.453 333.676 C 124.427 328.135,126.046 323.464,129.695 318.558 C 131.245 316.473,136.039 311.719,136.591 311.719 C 136.773 311.719,137.131 311.383,137.388 310.972 C 137.808 310.299,137.477 309.941,134.064 307.379 C 124.918 300.513,114.973 290.973,109.983 284.277 C 108.575 282.388,108.774 282.356,102.256 285.516 C 91.653 290.658,76.403 295.449,71.185 295.277 C 70.598 295.258,71.510 294.991,73.212 294.684 C 84.872 292.578,104.030 285.579,107.988 281.978 C 108.192 281.793,108.391 281.641,108.429 281.641 C 108.468 281.641,109.735 283.179,111.244 285.059 M292.731 282.611 C 297.725 286.421,313.978 292.363,325.263 294.506 C 327.374 294.907,328.574 295.247,327.930 295.262 C 326.943 295.285,322.343 294.451,318.784 293.604 C 311.229 291.807,298.581 286.839,293.675 283.741 C 291.556 282.404,291.489 282.437,287.939 286.621 C 284.388 290.807,276.698 298.733,273.633 301.366 C 270.461 304.090,266.641 307.136,264.688 308.497 C 262.161 310.258,262.046 310.807,263.900 312.247 C 267.515 315.054,270.937 319.288,272.740 323.187 C 273.848 325.582,273.535 325.406,272.143 322.852 C 269.460 317.929,265.542 313.456,262.207 311.510 C 260.615 310.581,260.619 310.562,262.610 309.342 C 269.110 305.358,282.942 292.482,288.477 285.261 C 291.677 281.086,291.156 281.410,292.731 282.611 M183.082 324.877 C 184.929 331.625,183.852 338.125,180.216 342.169 L 178.443 344.141 199.814 344.141 L 221.185 344.141 219.727 342.527 C 215.853 338.239,214.740 331.513,216.805 324.876 C 217.717 321.945,217.991 322.133,213.531 322.630 C 206.253 323.442,191.545 322.968,183.550 321.664 L 182.140 321.434 183.082 324.877 M274.975 329.581 C 275.146 330.489,275.158 331.152,275.001 331.055 C 274.843 330.958,274.612 330.215,274.487 329.404 C 274.362 328.593,274.157 327.490,274.033 326.953 L 273.806 325.977 274.235 326.953 C 274.470 327.490,274.803 328.673,274.975 329.581 M201.660 329.883 L 208.984 329.883 208.988 332.031 C 208.991 333.213,209.102 334.839,209.235 335.645 C 209.424 336.788,209.350 337.109,208.898 337.109 C 208.438 337.109,208.356 336.709,208.503 335.178 C 208.605 334.116,208.576 332.645,208.438 331.910 L 208.187 330.573 199.894 330.379 C 190.174 330.151,191.420 329.757,191.136 333.149 C 190.913 335.808,190.942 335.937,191.839 336.295 L 192.773 336.669 191.699 336.694 L 190.625 336.719 190.625 333.015 L 190.625 329.312 192.480 329.597 C 193.501 329.754,197.632 329.882,201.660 329.883 M275.276 333.687 C 275.183 334.173,275.103 333.867,275.099 333.008 C 275.094 332.148,275.171 331.751,275.268 332.124 C 275.366 332.498,275.370 333.201,275.276 333.687 M276.292 337.610 C 277.318 337.738,277.237 337.777,275.837 337.828 C 274.431 337.880,274.176 337.783,274.372 337.273 C 274.503 336.933,274.639 336.186,274.675 335.613 C 274.721 334.885,274.787 335.006,274.893 336.012 C 275.028 337.300,275.177 337.470,276.292 337.610 M207.422 336.802 C 207.422 336.971,205.532 337.076,203.223 337.036 L 199.023 336.962 202.539 336.743 C 207.267 336.448,207.422 336.450,207.422 336.802 M198.344 336.987 C 197.971 337.085,197.268 337.088,196.782 336.995 C 196.296 336.902,196.602 336.822,197.461 336.817 C 198.320 336.813,198.718 336.889,198.344 336.987 M122.233 338.035 C 122.144 338.115,120.752 338.275,119.141 338.391 C 117.331 338.521,116.733 338.486,117.578 338.298 C 119.001 337.981,122.517 337.783,122.233 338.035 M112.269 339.776 C 110.083 340.531,108.243 341.854,107.284 343.359 C 106.941 343.896,106.657 344.122,106.651 343.861 C 106.621 342.490,111.503 339.073,113.477 339.084 C 113.906 339.086,113.363 339.397,112.269 339.776 M106.129 347.949 C 106.030 348.325,105.950 348.018,105.950 347.266 C 105.950 346.514,106.030 346.206,106.129 346.582 C 106.227 346.958,106.227 347.573,106.129 347.949 M292.613 351.106 C 292.403 351.500,291.923 352.071,291.548 352.376 C 291.126 352.719,291.221 352.446,291.796 351.660 C 292.822 350.259,293.206 349.998,292.613 351.106 M290.625 352.922 C 290.625 353.266,287.541 354.688,286.832 354.670 C 286.447 354.661,286.748 354.432,287.500 354.161 C 288.252 353.891,289.219 353.465,289.648 353.214 C 290.547 352.690,290.625 352.666,290.625 352.922 M113.008 354.380 C 114.470 354.796,118.864 355.454,122.774 355.843 C 126.684 356.232,129.268 356.570,128.516 356.594 C 123.678 356.750,113.083 355.184,110.476 353.928 C 109.548 353.481,109.141 353.230,109.570 353.370 C 110.000 353.510,111.547 353.965,113.008 354.380 M285.156 355.078 C 284.619 355.250,283.740 355.388,283.203 355.384 C 282.326 355.377,282.346 355.346,283.398 355.078 C 285.051 354.658,286.469 354.658,285.156 355.078 M280.078 355.884 C 276.853 356.361,265.987 357.127,264.648 356.972 C 264.004 356.897,266.904 356.600,271.094 356.312 C 275.283 356.024,278.784 355.716,278.874 355.629 C 278.963 355.541,279.754 355.491,280.632 355.517 C 282.134 355.563,282.101 355.585,280.078 355.884 M135.266 356.926 C 134.359 357.008,132.777 357.009,131.750 356.928 C 130.723 356.847,131.465 356.780,133.398 356.779 C 135.332 356.778,136.172 356.844,135.266 356.926 M143.848 357.319 C 142.720 357.398,140.874 357.398,139.746 357.319 C 138.618 357.240,139.541 357.176,141.797 357.176 C 144.053 357.176,144.976 357.240,143.848 357.319 M260.266 357.317 C 259.359 357.399,257.777 357.400,256.750 357.319 C 255.723 357.238,256.465 357.171,258.398 357.170 C 260.332 357.169,261.172 357.235,260.266 357.317 M155.976 357.712 C 154.214 357.784,151.226 357.785,149.336 357.713 C 147.445 357.641,148.887 357.582,152.539 357.582 C 156.191 357.581,157.738 357.640,155.976 357.712 M250.897 357.712 C 249.349 357.786,246.712 357.786,245.037 357.713 C 243.363 357.639,244.629 357.579,247.852 357.578 C 251.074 357.578,252.445 357.638,250.897 357.712 M181.543 358.105 C 178.374 358.170,173.188 358.170,170.020 358.105 C 166.851 358.039,169.443 357.985,175.781 357.985 C 182.119 357.985,184.712 358.039,181.543 358.105 M189.941 358.088 C 189.458 358.181,188.667 358.181,188.184 358.088 C 187.700 357.995,188.096 357.919,189.063 357.919 C 190.029 357.919,190.425 357.995,189.941 358.088 M203.809 358.082 C 203.433 358.180,202.817 358.180,202.441 358.082 C 202.065 357.984,202.373 357.903,203.125 357.903 C 203.877 357.903,204.185 357.984,203.809 358.082 M233.301 358.104 C 230.454 358.171,225.796 358.171,222.949 358.104 C 220.103 358.038,222.432 357.983,228.125 357.983 C 233.818 357.983,236.147 358.038,233.301 358.104 " stroke="none" fill="#fbfbfb" fill-rule="evenodd"></path><path id="path2" d="M115.144 55.752 C 115.846 55.839,116.900 55.837,117.487 55.748 C 118.074 55.659,117.500 55.588,116.211 55.590 C 114.922 55.592,114.442 55.665,115.144 55.752 M283.112 55.752 C 283.815 55.839,284.869 55.837,285.456 55.748 C 286.043 55.659,285.469 55.588,284.180 55.590 C 282.891 55.592,282.410 55.665,283.112 55.752 M96.264 63.770 L 95.117 65.039 96.387 63.892 C 97.570 62.822,97.836 62.500,97.534 62.500 C 97.467 62.500,96.896 63.071,96.264 63.770 M314.587 101.367 C 314.588 103.086,314.657 103.740,314.740 102.822 C 314.822 101.903,314.821 100.497,314.737 99.697 C 314.653 98.897,314.586 99.648,314.587 101.367 M84.894 109.180 C 84.896 110.684,84.966 111.251,85.051 110.441 C 85.135 109.630,85.134 108.400,85.048 107.706 C 84.961 107.013,84.892 107.676,84.894 109.180 M230.575 115.999 C 228.184 116.858,225.398 118.372,215.820 124.017 C 202.174 132.059,197.355 132.075,184.032 124.117 C 176.898 119.856,172.799 117.673,169.552 116.406 L 167.424 115.575 166.701 116.479 C 166.303 116.976,165.855 117.654,165.704 117.986 C 164.802 119.972,158.061 125.100,152.886 127.737 C 150.762 128.819,148.804 129.884,148.535 130.102 C 148.267 130.321,148.047 130.423,148.047 130.330 C 148.047 130.237,146.502 130.658,144.613 131.265 C 142.725 131.872,139.605 132.666,137.680 133.029 C 135.755 133.392,133.916 133.805,133.594 133.946 C 130.626 135.249,124.030 133.792,122.632 131.524 C 121.865 130.280,121.633 126.563,122.322 126.563 C 122.491 126.563,122.820 126.167,123.055 125.684 C 123.412 124.946,123.399 124.899,122.971 125.391 C 122.690 125.713,121.934 126.238,121.289 126.558 C 119.027 127.681,112.035 135.145,110.030 138.578 C 90.459 172.088,115.952 218.663,151.367 214.102 C 166.001 212.217,175.007 206.301,181.250 194.474 C 186.993 183.595,192.423 179.097,199.805 179.107 C 207.847 179.117,212.278 183.125,219.733 197.134 C 224.956 206.951,238.431 214.453,250.839 214.453 L 252.748 214.453 251.812 216.309 C 247.294 225.266,247.238 232.268,251.648 236.803 C 260.196 245.594,273.239 236.565,270.109 224.023 C 269.462 221.431,266.647 214.260,265.988 213.524 C 265.819 213.335,267.030 212.522,268.680 211.717 C 299.912 196.485,306.477 147.939,280.065 127.535 L 277.903 125.865 278.054 128.361 C 278.389 133.877,274.344 135.280,263.672 133.346 C 261.846 133.015,259.993 132.705,259.554 132.656 C 259.115 132.608,258.588 132.471,258.382 132.351 C 257.941 132.095,255.236 131.207,254.567 131.099 C 249.672 130.306,236.494 121.077,233.193 116.129 L 232.617 115.266 230.575 115.999 M314.972 122.461 C 314.974 123.965,315.044 124.532,315.129 123.722 C 315.213 122.911,315.212 121.681,315.126 120.987 C 315.039 120.294,314.970 120.957,314.972 122.461 M84.503 130.273 C 84.505 131.777,84.576 132.345,84.660 131.534 C 84.745 130.724,84.743 129.493,84.657 128.800 C 84.571 128.106,84.501 128.770,84.503 130.273 M315.366 144.531 C 315.366 146.143,315.435 146.802,315.519 145.996 C 315.603 145.190,315.603 143.872,315.519 143.066 C 315.435 142.261,315.366 142.920,315.366 144.531 M174.609 146.289 C 174.609 146.611,174.814 146.875,175.065 146.875 C 175.316 146.875,175.424 146.972,175.305 147.091 C 175.187 147.209,175.505 148.484,176.013 149.923 C 176.521 151.362,176.940 152.847,176.945 153.223 C 176.949 153.599,177.141 153.906,177.370 153.906 C 177.609 153.906,177.681 154.239,177.540 154.684 C 177.404 155.112,177.422 155.670,177.579 155.924 C 178.070 156.718,178.428 169.790,177.995 171.094 C 177.888 171.416,177.797 171.943,177.794 172.266 C 177.791 172.588,177.444 174.117,177.024 175.663 C 176.604 177.209,176.358 178.571,176.477 178.690 C 176.595 178.809,176.473 178.906,176.204 178.906 C 175.936 178.906,175.789 179.124,175.878 179.391 C 175.967 179.658,175.795 180.120,175.497 180.418 C 175.199 180.716,175.048 181.201,175.161 181.496 C 175.274 181.790,175.217 182.031,175.035 182.031 C 174.853 182.031,174.484 182.562,174.216 183.210 C 173.947 183.859,173.047 185.361,172.215 186.548 C 171.384 187.735,170.703 188.756,170.703 188.817 C 170.703 189.082,165.070 194.531,164.796 194.531 C 164.629 194.531,164.320 194.839,164.109 195.215 C 163.899 195.591,163.625 195.852,163.501 195.796 C 163.377 195.739,162.430 196.122,161.395 196.646 C 157.600 198.569,147.194 199.913,144.881 198.778 C 144.537 198.609,143.651 198.409,142.914 198.334 C 142.176 198.258,141.360 198.064,141.099 197.903 C 140.838 197.742,140.449 197.719,140.234 197.852 C 140.020 197.984,139.844 197.945,139.844 197.765 C 139.844 197.336,137.484 196.448,137.052 196.715 C 136.869 196.828,136.719 196.725,136.719 196.484 C 136.719 196.244,136.543 196.156,136.328 196.289 C 136.113 196.422,135.938 196.315,135.938 196.052 C 135.938 195.788,135.831 195.680,135.701 195.810 C 135.570 195.940,135.263 195.873,135.017 195.661 C 134.210 194.964,130.469 192.619,130.469 192.809 C 130.469 192.912,129.924 192.375,129.258 191.616 C 128.591 190.858,127.908 190.322,127.739 190.427 C 127.570 190.531,127.215 190.355,126.950 190.035 C 126.684 189.715,126.620 189.447,126.808 189.440 C 126.995 189.433,126.709 189.062,126.172 188.615 C 125.635 188.168,125.195 187.691,125.195 187.554 C 125.194 187.195,123.329 184.595,122.961 184.439 C 122.791 184.367,122.751 184.148,122.872 183.951 C 122.994 183.755,122.896 183.594,122.656 183.594 C 122.416 183.594,122.328 183.418,122.461 183.203 C 122.594 182.988,122.506 182.813,122.266 182.813 C 122.025 182.813,121.929 182.651,122.051 182.453 C 122.173 182.256,122.016 181.837,121.702 181.523 C 121.388 181.209,121.225 180.859,121.339 180.744 C 121.454 180.629,121.322 180.125,121.046 179.623 C 120.770 179.122,120.527 178.535,120.506 178.320 C 120.420 177.418,119.802 174.775,119.594 174.417 C 119.257 173.839,119.289 164.407,119.629 164.197 C 119.790 164.098,119.922 163.697,119.922 163.307 C 119.922 162.490,121.141 162.150,124.916 161.916 C 126.266 161.832,127.758 161.640,128.231 161.490 C 129.150 161.198,131.429 160.961,133.474 160.944 C 134.160 160.938,134.823 160.770,134.946 160.571 C 135.070 160.371,135.810 160.311,136.591 160.438 C 137.733 160.623,137.956 160.561,137.727 160.120 C 137.570 159.817,137.701 159.887,138.018 160.275 C 138.417 160.763,138.642 160.831,138.754 160.497 C 138.844 160.227,139.736 159.968,140.784 159.907 C 141.813 159.847,142.866 159.622,143.125 159.408 C 143.384 159.193,143.962 159.113,144.410 159.230 C 144.858 159.347,145.338 159.260,145.476 159.035 C 145.615 158.811,145.968 158.720,146.262 158.833 C 146.556 158.945,146.902 158.866,147.031 158.657 C 147.161 158.448,147.618 158.368,148.047 158.481 C 148.480 158.594,148.828 158.492,148.828 158.253 C 148.828 158.016,149.136 157.862,149.512 157.911 C 150.440 158.032,154.297 156.959,154.297 156.579 C 154.297 156.412,154.561 156.376,154.883 156.499 C 155.205 156.623,155.469 156.567,155.469 156.375 C 155.469 156.183,155.848 155.997,156.313 155.962 C 156.777 155.927,157.260 155.758,157.387 155.586 C 157.513 155.414,157.969 155.213,158.398 155.140 C 158.828 155.067,159.239 154.846,159.311 154.649 C 159.383 154.453,159.602 154.391,159.799 154.513 C 159.995 154.634,160.156 154.537,160.156 154.297 C 160.156 154.057,160.318 153.960,160.515 154.082 C 160.713 154.204,161.131 154.047,161.445 153.733 C 161.759 153.419,162.125 153.271,162.258 153.404 C 162.391 153.537,162.500 153.430,162.500 153.167 C 162.500 152.904,162.676 152.797,162.891 152.930 C 163.105 153.062,163.281 152.985,163.281 152.757 C 163.281 152.530,163.633 152.344,164.063 152.344 C 164.492 152.344,164.844 152.158,164.844 151.930 C 164.844 151.703,164.993 151.609,165.175 151.721 C 165.358 151.834,165.866 151.591,166.306 151.182 C 166.745 150.773,167.207 150.540,167.332 150.665 C 167.457 150.791,167.670 150.605,167.805 150.253 C 167.940 149.902,168.209 149.712,168.403 149.832 C 168.597 149.951,168.861 149.776,168.989 149.441 C 169.117 149.106,169.371 148.924,169.553 149.037 C 169.734 149.149,170.076 148.879,170.313 148.438 C 170.549 147.996,170.911 147.738,171.116 147.865 C 171.322 147.992,171.595 147.822,171.724 147.486 C 171.853 147.150,172.182 146.875,172.455 146.875 C 172.728 146.875,173.170 146.611,173.438 146.289 C 173.705 145.967,174.078 145.703,174.267 145.703 C 174.455 145.703,174.609 145.967,174.609 146.289 M226.886 146.522 C 227.168 146.973,227.502 147.238,227.629 147.111 C 227.756 146.984,228.105 147.230,228.405 147.659 C 228.705 148.087,229.107 148.438,229.299 148.438 C 229.490 148.438,230.118 148.874,230.693 149.407 C 231.268 149.940,231.894 150.280,232.083 150.163 C 232.272 150.046,232.532 150.224,232.661 150.559 C 232.789 150.894,233.033 151.082,233.203 150.977 C 233.373 150.872,233.617 151.060,233.745 151.394 C 233.874 151.729,234.141 151.903,234.339 151.780 C 234.537 151.658,234.758 151.713,234.830 151.903 C 235.008 152.370,240.623 155.166,240.631 154.790 C 240.634 154.626,240.774 154.707,240.941 154.971 C 241.108 155.234,241.677 155.528,242.204 155.625 C 242.732 155.722,243.208 155.814,243.262 155.830 C 243.315 155.846,243.443 155.868,243.545 155.878 C 243.647 155.888,244.197 156.137,244.766 156.433 C 245.335 156.728,246.042 156.877,246.338 156.763 C 246.633 156.650,246.875 156.759,246.875 157.007 C 246.875 157.254,247.095 157.420,247.363 157.376 C 247.632 157.332,248.333 157.496,248.922 157.739 C 249.511 157.982,250.258 158.079,250.583 157.955 C 250.909 157.830,251.172 157.941,251.172 158.204 C 251.172 158.515,251.508 158.594,252.148 158.433 C 252.761 158.280,253.125 158.354,253.125 158.632 C 253.125 158.883,253.464 158.987,253.906 158.871 C 254.335 158.759,254.772 158.806,254.877 158.975 C 255.155 159.424,261.213 160.246,262.120 159.958 C 262.587 159.809,262.891 159.893,262.891 160.169 C 262.891 160.474,263.467 160.567,264.634 160.451 C 265.593 160.355,266.305 160.394,266.217 160.538 C 266.005 160.879,273.626 161.772,274.358 161.491 C 274.668 161.372,275.037 161.463,275.179 161.692 C 275.321 161.922,275.932 162.109,276.537 162.109 C 278.720 162.109,280.078 162.569,280.078 163.307 C 280.078 163.697,280.218 164.103,280.389 164.209 C 281.437 164.856,280.163 176.737,278.661 180.333 C 278.360 181.052,278.217 181.641,278.343 181.641 C 278.469 181.641,278.294 181.918,277.954 182.258 C 277.614 182.598,277.436 183.037,277.559 183.235 C 277.681 183.432,277.584 183.594,277.344 183.594 C 277.104 183.594,277.006 183.755,277.128 183.951 C 277.249 184.148,277.213 184.367,277.047 184.439 C 276.880 184.511,276.097 185.461,275.306 186.549 C 273.923 188.451,268.128 194.208,267.775 194.031 C 267.681 193.984,267.202 194.289,266.712 194.709 C 266.222 195.129,265.776 195.436,265.723 195.392 C 265.365 195.100,264.849 195.396,265.076 195.763 C 265.243 196.033,265.184 196.109,264.931 195.952 C 264.505 195.689,261.731 196.788,261.284 197.397 C 261.153 197.576,260.977 197.676,260.894 197.619 C 260.810 197.561,260.303 197.659,259.766 197.837 C 259.229 198.014,258.613 198.201,258.398 198.253 C 258.184 198.305,257.920 198.378,257.813 198.415 C 255.877 199.084,246.555 199.071,243.520 198.395 C 242.250 198.112,241.035 197.874,240.820 197.866 C 240.605 197.858,240.196 197.630,239.910 197.360 C 239.624 197.089,239.229 196.968,239.031 197.090 C 238.833 197.212,238.672 197.154,238.672 196.961 C 238.672 196.631,236.700 195.550,236.372 195.700 C 236.288 195.739,236.075 195.535,235.898 195.248 C 235.720 194.961,235.437 194.716,235.268 194.704 C 234.899 194.677,229.334 189.068,229.657 189.050 C 229.781 189.042,229.495 188.713,229.021 188.317 C 228.546 187.921,228.264 187.491,228.393 187.362 C 228.522 187.233,228.340 187.017,227.988 186.882 C 227.636 186.747,227.429 186.506,227.528 186.346 C 227.627 186.187,227.372 185.696,226.963 185.257 C 226.554 184.818,226.326 184.352,226.456 184.221 C 226.586 184.091,226.477 183.984,226.214 183.984 C 225.951 183.984,225.835 183.823,225.957 183.625 C 226.079 183.428,225.922 183.009,225.608 182.695 C 225.294 182.381,225.146 182.015,225.279 181.882 C 225.412 181.749,225.345 181.641,225.130 181.641 C 224.915 181.641,224.731 181.421,224.721 181.152 C 224.711 180.884,224.242 179.106,223.679 177.202 C 223.117 175.298,222.656 173.438,222.656 173.068 C 222.656 172.698,222.553 172.292,222.426 172.166 C 221.690 171.430,221.657 159.307,222.385 157.031 C 222.627 156.276,223.530 151.993,223.662 150.977 C 223.717 150.547,223.800 150.151,223.844 150.098 C 223.889 150.044,223.970 149.824,224.023 149.609 C 224.077 149.395,224.143 149.131,224.170 149.023 C 224.197 148.916,224.204 148.716,224.185 148.579 C 224.167 148.442,224.325 148.222,224.537 148.091 C 224.749 147.959,224.983 147.500,225.059 147.070 C 225.185 146.349,225.698 145.723,226.176 145.709 C 226.285 145.706,226.605 146.072,226.886 146.522 M84.091 152.734 C 84.091 153.701,84.167 154.097,84.260 153.613 C 84.353 153.130,84.353 152.339,84.260 151.855 C 84.167 151.372,84.091 151.768,84.091 152.734 M315.761 166.797 C 315.761 168.623,315.829 169.370,315.911 168.457 C 315.993 167.544,315.993 166.050,315.911 165.137 C 315.829 164.224,315.761 164.971,315.761 166.797 M125.195 290.234 C 126.688 291.738,127.997 292.969,128.104 292.969 C 128.211 292.969,127.078 291.738,125.586 290.234 C 124.094 288.730,122.785 287.500,122.677 287.500 C 122.570 287.500,123.703 288.730,125.195 290.234 M272.046 292.676 L 270.898 293.945 272.168 292.798 C 272.866 292.167,273.438 291.596,273.438 291.528 C 273.438 291.227,273.115 291.492,272.046 292.676 M221.189 343.945 C 221.335 344.203,214.170 344.348,200.060 344.370 C 177.594 344.407,177.343 344.415,177.463 345.085 C 177.505 345.317,177.233 345.484,176.860 345.454 C 176.473 345.424,176.290 345.579,176.435 345.814 C 176.596 346.073,176.442 346.131,176.020 345.969 C 175.651 345.828,175.449 345.873,175.571 346.070 C 175.858 346.534,174.364 347.011,173.771 346.645 C 173.469 346.458,173.423 346.535,173.634 346.876 C 173.870 347.258,173.735 347.332,173.107 347.168 C 172.568 347.027,172.357 347.097,172.521 347.363 C 172.694 347.642,172.307 347.702,171.341 347.545 C 170.551 347.417,169.990 347.451,170.095 347.621 C 170.200 347.791,164.567 347.958,157.578 347.993 C 149.960 348.031,144.959 347.913,145.091 347.698 C 145.219 347.492,144.608 347.420,143.652 347.529 C 142.375 347.675,142.127 347.619,142.578 347.285 C 143.034 346.947,142.914 346.910,142.032 347.115 C 141.234 347.301,140.980 347.248,141.173 346.936 C 141.344 346.660,141.238 346.574,140.891 346.707 C 140.585 346.824,140.089 346.690,139.787 346.409 C 139.486 346.128,138.980 345.841,138.663 345.770 C 138.345 345.699,137.778 345.364,137.401 345.025 C 135.812 343.593,113.435 345.479,113.155 347.069 C 112.692 349.690,145.021 351.165,202.734 351.158 C 257.926 351.150,286.133 349.771,286.133 347.079 C 286.133 345.404,264.196 343.282,262.668 344.809 C 262.364 345.114,261.911 345.236,261.661 345.082 C 261.396 344.918,261.312 344.971,261.460 345.209 C 261.777 345.723,259.133 347.013,258.529 346.640 C 258.236 346.459,258.190 346.538,258.396 346.872 C 258.638 347.262,258.463 347.318,257.643 347.112 C 256.886 346.922,256.656 346.974,256.853 347.293 C 257.053 347.617,256.657 347.676,255.421 347.505 C 254.198 347.336,253.933 347.374,254.492 347.638 C 254.998 347.877,250.773 347.980,242.518 347.930 C 235.502 347.887,229.837 347.730,229.929 347.582 C 230.021 347.433,229.449 347.417,228.659 347.545 C 227.560 347.723,227.294 347.662,227.527 347.285 C 227.752 346.922,227.613 346.861,227.002 347.055 C 226.520 347.208,226.172 347.148,226.172 346.914 C 226.172 346.691,225.879 346.621,225.522 346.758 C 225.088 346.925,224.965 346.857,225.152 346.555 C 225.334 346.260,225.221 346.183,224.825 346.335 C 224.492 346.463,224.219 346.373,224.219 346.136 C 224.219 345.898,224.087 345.724,223.926 345.749 C 223.180 345.867,222.630 345.671,222.824 345.357 C 222.942 345.166,222.737 345.034,222.369 345.064 C 222.000 345.093,221.694 344.912,221.689 344.661 C 221.684 344.411,221.520 344.059,221.324 343.880 C 221.126 343.699,221.066 343.728,221.189 343.945 M237.212 348.322 C 236.732 348.415,235.853 348.417,235.259 348.327 C 234.666 348.237,235.059 348.162,236.133 348.159 C 237.207 348.156,237.693 348.229,237.212 348.322 " stroke="none" fill="#7fcaec" fill-rule="evenodd"></path><path id="path3" d="M161.807 105.094 C 161.318 105.290,160.175 106.265,159.267 107.261 C 153.677 113.392,151.881 115.127,149.609 116.586 C 145.020 119.535,140.535 121.059,131.661 122.687 C 123.565 124.173,121.180 126.045,122.262 130.064 C 123.106 133.199,125.302 134.201,130.615 133.875 C 145.533 132.960,161.446 124.931,167.158 115.437 C 170.746 109.474,167.331 102.875,161.807 105.094 M233.571 105.743 C 225.209 112.780,242.049 128.717,262.406 133.033 C 272.826 135.242,278.610 133.511,277.981 128.371 C 277.576 125.058,275.839 124.121,266.992 122.446 C 254.113 120.006,248.288 116.876,242.516 109.293 C 238.894 104.536,236.252 103.487,233.571 105.743 M160.742 154.234 C 156.626 156.304,150.900 158.119,144.969 159.233 C 137.516 160.633,137.848 160.248,137.780 167.578 C 137.570 190.297,161.943 195.606,167.031 173.950 C 168.283 168.625,167.411 159.661,165.110 154.199 C 164.378 152.462,164.264 152.463,160.742 154.234 M234.995 154.325 C 228.457 170.666,234.647 187.305,247.266 187.305 C 256.491 187.305,262.347 179.593,262.244 167.578 C 262.188 160.988,261.992 160.442,259.543 160.059 C 251.442 158.793,242.632 156.300,238.006 153.965 L 235.621 152.761 234.995 154.325 M195.811 200.590 C 189.283 202.009,178.729 210.324,178.729 214.048 C 178.729 218.384,182.860 219.298,186.896 215.855 C 196.100 208.003,203.233 207.834,212.076 215.260 C 216.131 218.665,218.088 219.022,220.180 216.741 C 222.586 214.117,221.087 211.433,214.266 206.152 C 207.281 200.744,202.179 199.207,195.811 200.590 M194.922 241.061 C 180.980 242.688,164.616 257.177,172.258 261.129 C 174.561 262.320,174.903 262.168,180.901 257.300 C 193.446 247.119,206.237 247.743,219.347 259.176 C 224.358 263.547,229.819 261.487,227.406 256.137 C 223.421 247.301,206.951 239.657,194.922 241.061 M106.476 273.861 C 104.775 274.917,103.534 275.781,103.719 275.781 C 104.167 275.781,109.332 272.651,109.601 272.216 C 109.897 271.736,109.910 271.730,106.476 273.861 M290.061 272.302 C 290.344 272.759,295.693 275.927,295.859 275.736 C 295.930 275.653,294.607 274.770,292.919 273.773 C 291.231 272.775,289.945 272.113,290.061 272.302 M150.781 313.601 C 139.292 317.423,132.845 323.873,132.136 332.255 C 131.606 338.519,135.933 344.876,141.975 346.709 C 144.625 347.513,165.159 347.951,169.727 347.301 C 181.078 345.685,186.250 336.484,182.680 324.257 L 181.836 321.365 177.734 320.455 C 172.534 319.302,166.621 317.271,161.133 314.755 C 155.789 312.306,154.956 312.213,150.781 313.601 M241.406 314.160 C 233.019 318.045,221.857 321.875,218.921 321.875 C 216.274 321.875,215.145 332.592,217.213 338.086 C 219.965 345.395,225.464 347.640,240.625 347.642 C 256.218 347.645,260.533 346.758,263.862 342.869 C 273.065 332.118,264.605 317.226,246.975 313.143 L 244.727 312.623 241.406 314.160 " stroke="none" fill="#0f568a" fill-rule="evenodd"></path><path id="path4" d="M111.900 48.496 C 110.603 48.642,108.933 48.951,108.189 49.181 L 106.836 49.600 108.398 49.359 C 109.258 49.226,111.455 49.003,113.281 48.864 C 115.304 48.711,116.144 48.537,115.430 48.420 C 114.785 48.315,113.197 48.349,111.900 48.496 M279.691 48.534 C 272.576 49.243,266.609 51.796,253.838 59.597 C 232.704 72.504,220.841 76.316,201.699 76.351 C 196.726 76.360,192.737 76.499,192.836 76.660 C 193.106 77.101,206.912 77.012,211.246 76.541 C 223.835 75.173,237.667 70.134,250.031 62.412 C 268.849 50.659,272.956 49.065,284.488 49.039 C 288.524 49.031,291.221 48.898,290.480 48.744 C 288.415 48.315,282.950 48.209,279.691 48.534 M120.117 48.849 C 128.878 49.704,135.064 52.310,147.236 60.275 C 156.635 66.425,169.990 73.109,170.954 72.145 C 171.044 72.054,170.542 71.765,169.837 71.501 C 160.772 68.113,155.893 65.541,145.661 58.756 C 135.284 51.875,126.137 48.325,119.213 48.491 C 117.118 48.541,117.169 48.561,120.117 48.849 M292.188 49.174 C 292.188 49.350,293.334 49.804,294.735 50.183 C 301.634 52.051,306.898 55.672,312.695 62.540 C 314.638 64.841,313.598 63.284,311.176 60.264 C 308.973 57.518,305.522 54.659,301.953 52.626 C 299.851 51.428,292.188 48.719,292.188 49.174 M101.480 51.324 C 93.331 54.999,87.323 60.987,82.805 69.937 C 80.781 73.947,78.485 81.161,78.533 83.363 C 78.543 83.812,79.047 82.246,79.653 79.883 C 83.344 65.491,91.621 55.425,103.472 50.916 C 105.322 50.211,106.484 49.630,106.055 49.624 C 105.625 49.618,103.567 50.383,101.480 51.324 M316.076 68.638 C 318.655 74.221,321.093 82.853,321.094 86.403 C 321.094 86.981,321.253 87.552,321.448 87.673 C 321.643 87.793,321.742 87.584,321.669 87.208 C 321.596 86.831,321.334 85.117,321.088 83.398 C 320.344 78.202,318.665 72.924,316.148 67.871 C 314.266 64.094,314.217 64.615,316.076 68.638 M173.842 73.220 C 174.602 73.500,175.832 73.835,176.576 73.964 C 177.321 74.093,176.875 73.854,175.586 73.433 C 172.982 72.582,171.678 72.423,173.842 73.220 M180.859 75.012 C 184.192 75.883,190.558 76.731,191.652 76.450 C 192.054 76.347,191.741 76.242,190.957 76.217 C 190.172 76.192,187.448 75.800,184.902 75.344 C 178.520 74.204,177.422 74.113,180.859 75.012 M77.994 86.017 C 77.348 90.817,77.128 101.144,76.744 144.531 C 76.435 179.493,76.293 180.325,66.905 201.953 C 65.086 206.143,62.280 212.646,60.670 216.406 C 59.059 220.166,56.548 225.879,55.088 229.102 C 34.734 274.042,33.466 285.885,48.242 293.023 C 52.897 295.272,68.313 297.051,69.848 295.517 C 69.958 295.406,67.422 295.325,64.212 295.335 C 49.103 295.386,41.066 290.845,39.073 281.134 C 37.749 274.679,42.143 258.773,49.950 241.755 C 50.383 240.811,51.780 237.666,53.055 234.766 C 54.330 231.865,56.693 226.504,58.306 222.852 C 78.450 177.233,76.798 185.095,77.347 132.206 C 77.566 111.163,77.920 91.853,78.136 89.296 C 78.521 84.719,78.435 82.736,77.994 86.017 M321.704 92.383 C 321.802 94.746,321.998 104.194,322.138 113.379 C 322.278 122.563,322.521 130.078,322.677 130.078 C 322.834 130.078,322.905 129.243,322.835 128.223 C 322.766 127.202,322.593 118.896,322.452 109.766 C 322.311 100.635,322.045 92.021,321.861 90.625 C 321.584 88.523,321.557 88.825,321.704 92.383 M314.570 96.484 C 314.570 97.666,314.643 98.149,314.733 97.559 C 314.822 96.968,314.822 96.001,314.733 95.410 C 314.643 94.819,314.570 95.303,314.570 96.484 M84.897 103.906 C 84.897 105.518,84.966 106.177,85.050 105.371 C 85.134 104.565,85.134 103.247,85.050 102.441 C 84.966 101.636,84.897 102.295,84.897 103.906 M314.961 117.969 C 314.961 119.150,315.034 119.634,315.124 119.043 C 315.213 118.452,315.213 117.485,315.124 116.895 C 315.034 116.304,314.961 116.787,314.961 117.969 M84.500 125.391 C 84.500 126.787,84.571 127.358,84.658 126.660 C 84.744 125.962,84.744 124.819,84.658 124.121 C 84.571 123.423,84.500 123.994,84.500 125.391 M322.598 131.126 C 322.522 131.302,322.552 138.125,322.663 146.289 C 322.775 154.453,322.920 160.957,322.986 160.742 C 323.361 159.525,322.977 130.241,322.598 131.126 M315.371 138.672 C 315.371 140.498,315.438 141.245,315.520 140.332 C 315.603 139.419,315.603 137.925,315.520 137.012 C 315.438 136.099,315.371 136.846,315.371 138.672 M84.109 148.828 C 84.109 150.225,84.180 150.796,84.267 150.098 C 84.354 149.399,84.354 148.257,84.267 147.559 C 84.180 146.860,84.109 147.432,84.109 148.828 M315.768 159.961 C 315.769 162.109,315.834 162.938,315.913 161.803 C 315.993 160.668,315.992 158.910,315.912 157.897 C 315.831 156.884,315.767 157.813,315.768 159.961 M323.267 168.555 C 323.468 177.379,324.451 181.901,328.322 191.797 C 332.024 201.260,337.813 214.487,337.873 213.616 C 337.883 213.478,336.202 209.436,334.138 204.632 C 325.386 184.262,324.016 179.596,323.434 168.164 L 323.116 161.914 323.267 168.555 M119.239 169.336 C 119.243 170.195,119.323 170.501,119.417 170.015 C 119.510 169.529,119.507 168.826,119.409 168.452 C 119.311 168.079,119.235 168.477,119.239 169.336 M280.567 169.336 C 280.572 170.195,280.652 170.501,280.745 170.015 C 280.838 169.529,280.835 168.826,280.737 168.452 C 280.639 168.079,280.563 168.477,280.567 169.336 M83.705 172.070 C 83.708 173.145,83.784 173.538,83.874 172.944 C 83.964 172.350,83.961 171.471,83.869 170.991 C 83.776 170.510,83.703 170.996,83.705 172.070 M148.931 199.108 C 149.525 199.198,150.404 199.196,150.884 199.103 C 151.365 199.010,150.879 198.937,149.805 198.940 C 148.730 198.943,148.337 199.019,148.931 199.108 M250.103 199.108 C 250.697 199.198,251.576 199.196,252.056 199.103 C 252.537 199.010,252.051 198.937,250.977 198.940 C 249.902 198.943,249.509 199.019,250.103 199.108 M338.003 214.551 C 338.541 215.887,345.249 231.185,348.237 237.891 C 350.105 242.080,351.951 246.299,352.341 247.266 C 352.730 248.232,353.699 250.605,354.492 252.539 C 366.715 282.310,361.660 294.475,336.719 295.310 C 331.494 295.485,330.144 295.608,332.422 295.701 C 359.078 296.796,366.917 285.122,357.281 258.680 C 354.973 252.346,352.910 247.409,346.225 232.227 C 339.841 217.729,338.177 214.063,337.980 214.063 C 337.885 214.063,337.895 214.282,338.003 214.551 M354.018 276.758 C 354.021 277.832,354.097 278.225,354.187 277.631 C 354.276 277.038,354.274 276.159,354.181 275.678 C 354.089 275.198,354.015 275.684,354.018 276.758 M107.988 281.978 C 104.030 285.579,84.872 292.578,73.212 294.684 C 71.510 294.991,70.598 295.258,71.185 295.277 C 76.403 295.449,91.653 290.658,102.256 285.516 C 108.774 282.356,108.575 282.388,109.983 284.277 C 114.973 290.973,124.918 300.513,134.064 307.379 C 137.477 309.941,137.808 310.299,137.388 310.972 C 137.131 311.383,136.773 311.719,136.591 311.719 C 136.039 311.719,131.245 316.473,129.695 318.558 C 126.046 323.464,124.427 328.135,124.453 333.676 C 124.468 336.805,124.363 337.498,123.856 337.635 C 123.519 337.726,123.745 337.820,124.359 337.845 C 125.375 337.887,125.452 337.799,125.218 336.866 C 123.218 328.896,129.317 316.306,137.421 311.676 C 139.505 310.486,139.729 310.852,134.693 307.227 C 126.290 301.176,117.561 292.924,111.244 285.059 C 109.735 283.179,108.468 281.641,108.429 281.641 C 108.391 281.641,108.192 281.793,107.988 281.978 M288.477 285.261 C 282.942 292.482,269.110 305.358,262.610 309.342 C 260.619 310.562,260.615 310.581,262.207 311.510 C 265.542 313.456,269.460 317.929,272.143 322.852 C 273.535 325.406,273.848 325.582,272.740 323.187 C 270.937 319.288,267.515 315.054,263.900 312.247 C 262.046 310.807,262.161 310.258,264.688 308.497 C 266.641 307.136,270.461 304.090,273.633 301.366 C 276.698 298.733,284.388 290.807,287.939 286.621 C 291.489 282.437,291.556 282.404,293.675 283.741 C 298.581 286.839,311.229 291.807,318.784 293.604 C 322.343 294.451,326.943 295.285,327.930 295.262 C 328.574 295.247,327.374 294.907,325.263 294.506 C 313.978 292.363,297.725 286.421,292.731 282.611 C 291.156 281.410,291.677 281.086,288.477 285.261 M61.631 288.568 C 62.550 288.650,63.956 288.649,64.756 288.565 C 65.556 288.481,64.805 288.414,63.086 288.415 C 61.367 288.417,60.713 288.485,61.631 288.568 M334.875 288.569 C 335.902 288.650,337.484 288.649,338.391 288.567 C 339.297 288.485,338.457 288.419,336.523 288.420 C 334.590 288.421,333.848 288.488,334.875 288.569 M274.033 326.953 C 274.157 327.490,274.362 328.593,274.487 329.404 C 274.612 330.215,274.843 330.958,275.001 331.055 C 275.366 331.281,274.798 328.237,274.235 326.953 L 273.806 325.977 274.033 326.953 M190.625 333.015 L 190.625 336.719 191.699 336.694 L 192.773 336.669 191.839 336.295 C 190.942 335.937,190.913 335.808,191.136 333.149 C 191.420 329.757,190.174 330.151,199.894 330.379 L 208.187 330.573 208.438 331.910 C 208.576 332.645,208.605 334.116,208.503 335.178 C 208.356 336.709,208.438 337.109,208.898 337.109 C 209.350 337.109,209.424 336.788,209.235 335.645 C 209.102 334.839,208.991 333.213,208.988 332.031 L 208.984 329.883 201.660 329.883 C 197.632 329.882,193.501 329.754,192.480 329.597 L 190.625 329.312 190.625 333.015 M275.099 333.008 C 275.103 333.867,275.183 334.173,275.276 333.687 C 275.370 333.201,275.366 332.498,275.268 332.124 C 275.171 331.751,275.094 332.148,275.099 333.008 M131.731 333.203 C 131.731 333.955,131.812 334.263,131.910 333.887 C 132.008 333.511,132.008 332.896,131.910 332.520 C 131.812 332.144,131.731 332.451,131.731 333.203 M274.675 335.613 C 274.639 336.186,274.503 336.933,274.372 337.273 C 274.176 337.783,274.431 337.880,275.837 337.828 C 277.237 337.777,277.318 337.738,276.292 337.610 C 275.177 337.470,275.028 337.300,274.893 336.012 C 274.787 335.006,274.721 334.885,274.675 335.613 M202.539 336.743 L 199.023 336.962 203.223 337.036 C 205.532 337.076,207.422 336.971,207.422 336.802 C 207.422 336.450,207.267 336.448,202.539 336.743 M196.782 336.995 C 197.268 337.088,197.971 337.085,198.344 336.987 C 198.718 336.889,198.320 336.813,197.461 336.817 C 196.602 336.822,196.296 336.902,196.782 336.995 M117.578 338.298 C 116.733 338.486,117.331 338.521,119.141 338.391 C 120.752 338.275,122.144 338.115,122.233 338.035 C 122.517 337.783,119.001 337.981,117.578 338.298 M111.093 339.807 C 109.367 340.591,106.634 343.085,106.651 343.861 C 106.657 344.122,106.941 343.896,107.284 343.359 C 108.243 341.854,110.083 340.531,112.269 339.776 C 113.363 339.397,113.906 339.086,113.477 339.084 C 113.047 339.082,111.974 339.407,111.093 339.807 M134.761 344.432 C 135.940 344.513,137.171 344.805,137.495 345.081 C 137.820 345.358,138.350 345.718,138.672 345.882 C 138.994 346.046,138.730 345.727,138.086 345.174 C 137.108 344.335,136.559 344.178,134.766 344.227 L 132.617 344.285 134.761 344.432 M176.563 345.335 C 175.596 345.955,173.838 346.719,172.656 347.033 C 171.475 347.348,170.897 347.616,171.372 347.631 C 172.619 347.668,176.189 346.257,177.733 345.118 C 179.528 343.794,178.739 343.940,176.563 345.335 M221.094 344.552 C 222.129 345.256,223.828 346.119,223.828 345.940 C 223.828 345.688,221.259 344.140,220.852 344.147 C 220.663 344.150,220.771 344.332,221.094 344.552 M262.281 344.570 C 262.135 344.806,260.938 345.509,259.621 346.132 C 258.304 346.755,257.465 347.265,257.756 347.265 C 258.047 347.265,259.156 346.828,260.221 346.293 C 262.189 345.305,263.660 344.141,262.942 344.141 C 262.724 344.141,262.427 344.334,262.281 344.570 M265.909 344.423 C 266.603 344.509,267.833 344.510,268.644 344.426 C 269.454 344.341,268.887 344.271,267.383 344.269 C 265.879 344.267,265.216 344.336,265.909 344.423 M126.079 344.808 C 126.565 344.901,127.268 344.897,127.641 344.800 C 128.015 344.702,127.617 344.625,126.758 344.630 C 125.898 344.634,125.593 344.714,126.079 344.808 M274.707 344.801 C 275.083 344.899,275.698 344.899,276.074 344.801 C 276.450 344.702,276.143 344.622,275.391 344.622 C 274.639 344.622,274.331 344.702,274.707 344.801 M105.950 347.266 C 105.950 348.018,106.030 348.325,106.129 347.949 C 106.227 347.573,106.227 346.958,106.129 346.582 C 106.030 346.206,105.950 346.514,105.950 347.266 M140.820 346.896 C 141.680 347.303,142.910 347.621,143.555 347.603 C 144.535 347.576,144.458 347.518,143.085 347.246 C 142.181 347.068,141.094 346.736,140.669 346.508 C 140.243 346.280,139.752 346.108,139.576 346.125 C 139.401 346.143,139.961 346.490,140.820 346.896 M148.947 347.948 C 151.268 348.017,154.960 348.017,157.150 347.947 C 159.341 347.878,157.441 347.821,152.930 347.822 C 148.418 347.822,146.626 347.879,148.947 347.948 M165.928 347.943 C 166.847 348.025,168.253 348.024,169.053 347.940 C 169.853 347.856,169.102 347.789,167.383 347.790 C 165.664 347.792,165.010 347.860,165.928 347.943 M230.566 347.936 C 231.157 348.026,232.124 348.026,232.715 347.936 C 233.306 347.847,232.822 347.773,231.641 347.773 C 230.459 347.773,229.976 347.847,230.566 347.936 M243.673 347.948 C 245.887 348.018,249.402 348.017,251.486 347.947 C 253.569 347.877,251.758 347.820,247.461 347.820 C 243.164 347.821,241.460 347.878,243.673 347.948 M235.259 348.327 C 235.853 348.417,236.732 348.415,237.212 348.322 C 237.693 348.229,237.207 348.156,236.133 348.159 C 235.059 348.162,234.666 348.237,235.259 348.327 M133.887 350.276 C 134.370 350.369,135.161 350.369,135.645 350.276 C 136.128 350.183,135.732 350.106,134.766 350.106 C 133.799 350.106,133.403 350.183,133.887 350.276 M265.137 350.276 C 265.620 350.369,266.411 350.369,266.895 350.276 C 267.378 350.183,266.982 350.106,266.016 350.106 C 265.049 350.106,264.653 350.183,265.137 350.276 M143.644 350.673 C 144.337 350.759,145.568 350.760,146.378 350.676 C 147.188 350.591,146.621 350.521,145.117 350.519 C 143.613 350.517,142.950 350.586,143.644 350.673 M255.762 350.673 C 256.460 350.760,257.603 350.760,258.301 350.673 C 258.999 350.587,258.428 350.516,257.031 350.516 C 255.635 350.516,255.063 350.587,255.762 350.673 M291.796 351.660 C 291.221 352.446,291.126 352.719,291.548 352.376 C 292.189 351.856,293.157 350.391,292.861 350.391 C 292.786 350.391,292.307 350.962,291.796 351.660 M161.035 351.071 C 162.485 351.146,164.858 351.146,166.309 351.071 C 167.759 350.996,166.572 350.934,163.672 350.934 C 160.771 350.934,159.585 350.996,161.035 351.071 M237.808 351.071 C 239.159 351.147,241.269 351.147,242.496 351.069 C 243.723 350.992,242.617 350.930,240.039 350.930 C 237.461 350.931,236.457 350.994,237.808 351.071 M289.648 353.214 C 289.219 353.465,288.252 353.891,287.500 354.161 C 286.748 354.432,286.447 354.661,286.832 354.670 C 287.541 354.688,290.625 353.266,290.625 352.922 C 290.625 352.666,290.547 352.690,289.648 353.214 M110.476 353.928 C 113.083 355.184,123.678 356.750,128.516 356.594 C 129.268 356.570,126.684 356.232,122.774 355.843 C 116.689 355.238,113.426 354.627,109.570 353.370 C 109.141 353.230,109.548 353.481,110.476 353.928 M283.398 355.078 C 282.346 355.346,282.326 355.377,283.203 355.384 C 283.740 355.388,284.619 355.250,285.156 355.078 C 286.469 354.658,285.051 354.658,283.398 355.078 M278.874 355.629 C 278.784 355.716,275.283 356.024,271.094 356.312 C 266.904 356.600,264.004 356.897,264.648 356.972 C 265.987 357.127,276.853 356.361,280.078 355.884 C 282.101 355.585,282.134 355.563,280.632 355.517 C 279.754 355.491,278.963 355.541,278.874 355.629 M131.750 356.928 C 132.777 357.009,134.359 357.008,135.266 356.926 C 136.172 356.844,135.332 356.778,133.398 356.779 C 131.465 356.780,130.723 356.847,131.750 356.928 M139.746 357.319 C 140.874 357.398,142.720 357.398,143.848 357.319 C 144.976 357.240,144.053 357.176,141.797 357.176 C 139.541 357.176,138.618 357.240,139.746 357.319 M256.750 357.319 C 257.777 357.400,259.359 357.399,260.266 357.317 C 261.172 357.235,260.332 357.169,258.398 357.170 C 256.465 357.171,255.723 357.238,256.750 357.319 M149.336 357.713 C 151.226 357.785,154.214 357.784,155.976 357.712 C 157.738 357.640,156.191 357.581,152.539 357.582 C 148.887 357.582,147.445 357.641,149.336 357.713 M245.037 357.713 C 246.712 357.786,249.349 357.786,250.897 357.712 C 252.445 357.638,251.074 357.578,247.852 357.578 C 244.629 357.579,243.363 357.639,245.037 357.713 M170.020 358.105 C 173.188 358.170,178.374 358.170,181.543 358.105 C 184.712 358.039,182.119 357.985,175.781 357.985 C 169.443 357.985,166.851 358.039,170.020 358.105 M188.184 358.088 C 188.667 358.181,189.458 358.181,189.941 358.088 C 190.425 357.995,190.029 357.919,189.063 357.919 C 188.096 357.919,187.700 357.995,188.184 358.088 M202.441 358.082 C 202.817 358.180,203.433 358.180,203.809 358.082 C 204.185 357.984,203.877 357.903,203.125 357.903 C 202.373 357.903,202.065 357.984,202.441 358.082 M222.949 358.104 C 225.796 358.171,230.454 358.171,233.301 358.104 C 236.147 358.038,233.818 357.983,228.125 357.983 C 222.432 357.983,220.103 358.038,222.949 358.104 " stroke="none" fill="#c8e1f1" fill-rule="evenodd"></path></g></svg>